<svg width="12" height="8" viewBox="0 0 12 8" fill="none" xmlns="http://www.w3.org/2000/svg">
<path d="M5.15134 7.52062L0.355342 2.03862C-0.210658 1.39362 0.249342 0.380616 1.10834 0.380616H10.7003C10.8926 0.380451 11.0808 0.435703 11.2425 0.539756C11.4041 0.643809 11.5323 0.792252 11.6118 0.967308C11.6912 1.14236 11.7186 1.33661 11.6905 1.52679C11.6624 1.71697 11.58 1.89502 11.4533 2.03962L6.65734 7.51962C6.56348 7.62703 6.44773 7.71311 6.31785 7.7721C6.18798 7.83108 6.04698 7.8616 5.90434 7.8616C5.7617 7.8616 5.62071 7.83108 5.49083 7.7721C5.36096 7.71311 5.2452 7.62703 5.15134 7.51962V7.52062Z" fill="#D92A37"/>
</svg>
