<svg width="13" height="8" viewBox="0 0 13 8" fill="none" xmlns="http://www.w3.org/2000/svg">
<path d="M5.70606 7.36876L0.910056 1.88676C0.344056 1.24176 0.804056 0.22876 1.66306 0.22876H11.2551C11.4473 0.228595 11.6355 0.283848 11.7972 0.387901C11.9588 0.491954 12.087 0.640397 12.1665 0.815453C12.246 0.990509 12.2733 1.18476 12.2452 1.37494C12.2171 1.56512 12.1347 1.74316 12.0081 1.88776L7.21206 7.36776C7.1182 7.47517 7.00244 7.56126 6.87257 7.62024C6.74269 7.67922 6.6017 7.70974 6.45906 7.70974C6.31641 7.70974 6.17542 7.67922 6.04555 7.62024C5.91567 7.56126 5.79992 7.47517 5.70606 7.36776V7.36876Z" fill="#D0D4D6"/>
</svg>
