<?xml version="1.0" encoding="UTF-8" standalone="no"?><!-- Generator: Gravit.io --><svg xmlns="http://www.w3.org/2000/svg" xmlns:xlink="http://www.w3.org/1999/xlink" style="isolation:isolate" viewBox="0 0 500 500" width="500pt" height="500pt"><defs><clipPath id="_clipPath_jD0LBPOxLvNixcT1mRjEMwT6XKzMZ9YB"><rect width="500" height="500"/></clipPath></defs><g clip-path="url(#_clipPath_jD0LBPOxLvNixcT1mRjEMwT6XKzMZ9YB)"><g><path d=" M 200.634 368.713 L 200.634 481.641 C 216.557 485.018 233.056 486.828 249.985 486.828 C 266.996 486.828 283.574 484.996 299.572 481.589 L 299.572 368.713 L 200.634 368.713 L 200.634 368.713 Z " fill="rgb(221,182,140)"/><g><path d=" M 240.681 389.871 L 240.681 486.591 C 241.253 486.612 241.833 486.617 242.405 486.636 L 242.405 389.875 L 240.681 389.875 L 240.681 389.871 Z " fill="rgb(204,168,133)"/><path d=" M 229.489 389.871 L 229.489 485.885 C 230.061 485.934 230.637 485.971 231.209 486.016 L 231.209 389.871 L 229.489 389.871 L 229.489 389.871 Z " fill="rgb(204,168,133)"/><path d=" M 269.267 389.871 L 269.267 485.977 C 269.839 485.932 270.415 485.898 270.987 485.847 L 270.987 389.871 L 269.267 389.871 Z " fill="rgb(204,168,133)"/><path d=" M 258.07 389.871 L 258.07 486.621 C 258.642 486.602 259.222 486.602 259.794 486.575 L 259.794 389.871 L 258.07 389.871 L 258.07 389.871 Z " fill="rgb(204,168,133)"/><rect x="200.638" y="444.569" width="98.938" height="2.199" transform="matrix(1,0,0,1,0,0)" fill="rgb(204,168,133)"/><rect x="200.638" y="458.855" width="98.938" height="2.199" transform="matrix(1,0,0,1,0,0)" fill="rgb(204,168,133)"/></g><rect x="225.641" y="155.725" width="49.744" height="45.896" transform="matrix(1,0,0,1,0,0)" fill="rgb(196,168,96)"/><g><path d=" M 272.086 149.128 L 228.939 149.128 L 225.641 155.725 L 275.384 155.725 L 272.086 149.128 Z " fill="rgb(127,123,121)"/><path d=" M 263.567 142.629 C 263.567 142.629 252.692 100.305 252.692 65.863 L 250.467 28.486 L 248.335 65.863 C 248.335 100.031 237.46 142.629 237.46 142.629 L 234.162 149.222 L 266.868 149.222 L 263.567 142.629 Z " fill="rgb(127,123,121)"/></g><rect x="230.704" y="163.952" width="39.617" height="32.979" transform="matrix(1,0,0,1,0,0)" fill="rgb(214,173,41)"/><rect x="222.627" y="193.083" width="55.787" height="8.519" transform="matrix(1,0,0,1,0,0)" fill="rgb(153,135,121)"/><path d=" M 205.683 244.124 L 205.683 256.342 C 205.683 259.36 208.129 261.806 211.147 261.806 L 290.149 261.806 C 293.167 261.806 295.613 259.36 295.613 256.342 L 295.613 244.124 C 295.616 241.11 205.683 241.11 205.683 244.124 Z " fill="rgb(186,163,145)"/><path d=" M 278.357 199.834 L 222.944 199.834 L 205.683 244.124 L 295.616 244.124 L 278.357 199.834 Z " fill="rgb(209,179,153)"/><path d=" M 205.683 253.108 L 205.683 314.309 C 205.683 317.332 208.129 319.774 211.147 319.774 L 290.149 319.774 C 293.167 319.774 295.613 317.328 295.613 314.309 L 295.613 253.108 C 295.616 250.09 205.683 250.09 205.683 253.108 Z " fill="rgb(239,195,151)"/><path d=" M 298.2 276.939 L 203.103 276.939 C 199.472 276.939 196.525 279.882 196.525 283.517 L 196.525 357.188 C 196.525 360.823 199.472 363.766 203.103 363.766 L 298.2 363.766 C 301.835 363.766 304.778 360.819 304.778 357.188 L 304.778 283.517 C 304.777 279.882 301.831 276.939 298.2 276.939 Z " fill="rgb(221,182,140)"/><g><path d=" M 296.124 287.911 L 205.683 287.911 C 204.355 287.911 203.282 288.611 203.282 289.471 L 203.282 294.063 C 203.282 294.923 204.355 295.621 205.683 295.621 L 296.125 295.621 C 297.449 295.621 298.526 294.923 298.526 294.063 L 298.526 289.471 C 298.525 288.611 297.448 287.911 296.124 287.911 Z " fill="rgb(206,162,120)"/><path d=" M 296.124 329.249 L 205.683 329.249 C 204.355 329.249 203.282 329.945 203.282 330.808 L 203.282 335.4 C 203.282 336.26 204.355 336.959 205.683 336.959 L 296.125 336.959 C 297.449 336.959 298.526 336.26 298.526 335.4 L 298.526 330.808 C 298.525 329.944 297.448 329.249 296.124 329.249 Z " fill="rgb(206,162,120)"/><path d=" M 296.124 308.213 L 205.683 308.213 C 204.355 308.213 203.282 308.91 203.282 309.773 L 203.282 314.365 C 203.282 315.225 204.355 315.924 205.683 315.924 L 296.125 315.924 C 297.449 315.924 298.526 315.225 298.526 314.365 L 298.526 309.773 C 298.525 308.91 297.448 308.213 296.124 308.213 Z " fill="rgb(206,162,120)"/></g><path d=" M 298.2 347.842 L 203.103 347.842 C 199.472 347.842 196.525 350.789 196.525 354.42 L 196.525 364.778 C 196.525 368.413 199.472 371.356 203.103 371.356 L 298.2 371.356 C 301.835 371.356 304.778 368.413 304.778 364.778 L 304.778 354.42 C 304.777 350.789 301.831 347.842 298.2 347.842 Z " fill="rgb(221,182,140)"/><rect x="216.568" y="281.3" width="68.726" height="68.726" transform="matrix(1,0,0,1,0,0)" fill="rgb(204,176,58)"/><rect x="218.221" y="282.983" width="65.405" height="65.409" transform="matrix(1,0,0,1,0,0)" fill="rgb(168,138,108)"/><circle vector-effect="non-scaling-stroke" cx="250.63599999999985" cy="315.3974999999999" r="29.130999999999986" fill="rgb(211,170,121)"/><circle vector-effect="non-scaling-stroke" cx="250.63599999999997" cy="315.39750000000015" r="26.932000000000016" fill="rgb(234,222,211)"/><g><path d=" M 250.651 295.058 C 250.277 295.058 249.918 295.094 249.552 295.113 L 249.552 301.16 C 249.918 301.135 250.277 301.105 250.651 301.105 C 251.021 301.105 251.384 301.135 251.75 301.16 L 251.75 295.113 C 251.384 295.096 251.021 295.058 250.651 295.058 Z " fill="rgb(196,191,187)"/><path d=" M 233.64 304.284 C 233.236 304.896 232.873 305.533 232.541 306.187 L 237.78 309.22 C 238.102 308.554 238.461 307.915 238.879 307.313 L 233.64 304.284 Z " fill="rgb(196,191,187)"/><path d=" M 263.519 321.572 C 263.201 322.237 262.838 322.876 262.423 323.478 L 267.662 326.507 C 268.066 325.895 268.429 325.258 268.761 324.604 L 263.519 321.572 Z " fill="rgb(196,191,187)"/><path d=" M 236.414 314.298 L 230.367 314.298 C 230.348 314.664 230.311 315.023 230.311 315.396 C 230.311 315.766 230.345 316.13 230.367 316.496 L 236.414 316.496 C 236.388 316.13 236.358 315.766 236.358 315.396 C 236.358 315.024 236.388 314.66 236.414 314.298 Z " fill="rgb(196,191,187)"/><path d=" M 270.931 314.298 L 264.884 314.298 C 264.91 314.66 264.94 315.023 264.94 315.396 C 264.94 315.766 264.91 316.13 264.884 316.496 L 270.931 316.496 C 270.95 316.13 270.987 315.766 270.987 315.396 C 270.987 315.024 270.953 314.66 270.931 314.298 Z " fill="rgb(196,191,187)"/><path d=" M 250.651 329.687 C 250.277 329.687 249.918 329.66 249.552 329.631 L 249.552 335.678 C 249.918 335.697 250.277 335.734 250.651 335.734 C 251.021 335.734 251.384 335.697 251.75 335.678 L 251.75 329.631 C 251.384 329.66 251.021 329.687 250.651 329.687 Z " fill="rgb(196,191,187)"/><path d=" M 258.672 327.211 C 258.066 327.621 257.423 327.977 256.757 328.295 L 259.764 333.549 C 260.418 333.22 261.062 332.857 261.675 332.461 L 258.672 327.211 Z " fill="rgb(196,191,187)"/><path d=" M 241.534 297.242 C 240.88 297.571 240.236 297.934 239.623 298.333 L 242.626 303.581 C 243.232 303.17 243.871 302.814 244.541 302.496 L 241.534 297.242 Z " fill="rgb(196,191,187)"/><path d=" M 237.749 321.507 L 232.495 324.511 C 232.824 325.169 233.191 325.809 233.587 326.421 L 238.834 323.422 C 238.422 322.817 238.071 322.174 237.749 321.507 Z " fill="rgb(196,191,187)"/><path d=" M 267.715 304.374 L 262.468 307.373 C 262.879 307.975 263.231 308.618 263.552 309.284 L 268.806 306.281 C 268.474 305.622 268.111 304.987 267.715 304.374 Z " fill="rgb(196,191,187)"/><path d=" M 242.57 327.17 L 239.537 332.409 C 240.15 332.809 240.786 333.171 241.44 333.505 L 244.473 328.266 C 243.811 327.944 243.168 327.584 242.57 327.17 Z " fill="rgb(196,191,187)"/><path d=" M 259.861 297.286 L 256.828 302.53 C 257.49 302.847 258.133 303.21 258.731 303.621 L 261.764 298.382 C 261.152 297.986 260.512 297.624 259.861 297.286 Z " fill="rgb(196,191,187)"/><path d=" M 264.884 314.298 C 264.749 312.514 264.278 310.828 263.549 309.286 C 263.231 308.621 262.876 307.977 262.465 307.376 C 261.463 305.902 260.195 304.635 258.729 303.625 C 258.127 303.213 257.487 302.851 256.826 302.533 C 255.267 301.78 253.554 301.303 251.748 301.164 C 251.382 301.137 251.019 301.107 250.649 301.107 C 250.275 301.107 249.916 301.137 249.55 301.164 C 247.77 301.299 246.08 301.77 244.543 302.498 C 243.874 302.816 243.23 303.167 242.628 303.583 C 241.158 304.584 239.887 305.852 238.881 307.319 C 238.462 307.92 238.103 308.56 237.782 309.225 C 237.03 310.785 236.555 312.493 236.417 314.303 C 236.391 314.666 236.361 315.028 236.361 315.402 C 236.361 315.772 236.391 316.135 236.417 316.501 C 236.552 318.285 237.023 319.971 237.752 321.512 C 238.07 322.178 238.425 322.825 238.836 323.427 C 239.838 324.897 241.106 326.165 242.572 327.174 C 243.174 327.589 243.814 327.948 244.475 328.27 C 246.034 329.022 247.747 329.497 249.553 329.636 C 249.919 329.665 250.278 329.691 250.652 329.691 C 251.022 329.691 251.385 329.665 251.751 329.636 C 253.531 329.501 255.221 329.03 256.758 328.3 C 257.424 327.987 258.071 327.631 258.673 327.217 C 260.143 326.214 261.414 324.947 262.42 323.484 C 262.839 322.882 263.198 322.239 263.516 321.578 C 264.268 320.018 264.743 318.309 264.885 316.502 C 264.911 316.136 264.941 315.774 264.941 315.404 C 264.944 315.024 264.914 314.66 264.884 314.298 Z  M 262.689 316.496 C 262.562 317.903 262.184 319.242 261.612 320.472 C 261.302 321.141 260.935 321.781 260.513 322.375 C 259.709 323.508 258.718 324.495 257.581 325.296 C 256.979 325.715 256.339 326.081 255.67 326.388 C 254.458 326.941 253.138 327.308 251.751 327.435 C 251.388 327.469 251.022 327.495 250.652 327.495 C 250.278 327.495 249.915 327.473 249.553 327.435 C 248.143 327.308 246.808 326.93 245.578 326.362 C 244.909 326.052 244.273 325.685 243.678 325.259 C 242.545 324.455 241.558 323.464 240.757 322.327 C 240.334 321.729 239.972 321.089 239.665 320.42 C 239.108 319.205 238.741 317.888 238.618 316.501 C 238.584 316.138 238.562 315.772 238.562 315.402 C 238.562 315.028 238.584 314.665 238.618 314.303 C 238.745 312.893 239.123 311.558 239.695 310.328 C 240.005 309.659 240.372 309.019 240.794 308.425 C 241.598 307.292 242.589 306.305 243.726 305.504 C 244.328 305.085 244.968 304.719 245.633 304.412 C 246.848 303.855 248.165 303.488 249.552 303.365 C 249.915 303.331 250.277 303.309 250.651 303.309 C 251.021 303.309 251.388 303.328 251.75 303.365 C 253.16 303.492 254.495 303.87 255.725 304.442 C 256.394 304.752 257.03 305.123 257.625 305.541 C 258.758 306.345 259.745 307.336 260.546 308.477 C 260.969 309.075 261.331 309.715 261.638 310.384 C 262.191 311.596 262.562 312.912 262.685 314.303 C 262.719 314.665 262.741 315.028 262.741 315.401 C 262.741 315.768 262.719 316.135 262.689 316.496 Z " fill="rgb(196,191,187)"/><path d=" M 273.129 314.298 C 272.972 311.03 272.123 307.948 270.713 305.188 C 270.38 304.534 270.014 303.894 269.621 303.28 C 267.878 300.562 265.575 298.24 262.864 296.486 C 262.251 296.086 261.619 295.718 260.961 295.382 C 258.179 293.939 255.056 293.078 251.75 292.919 C 251.384 292.9 251.021 292.862 250.651 292.862 C 250.277 292.862 249.918 292.896 249.552 292.919 C 246.287 293.075 243.202 293.924 240.446 295.334 C 239.788 295.668 239.152 296.034 238.535 296.426 C 235.816 298.17 233.494 300.472 231.74 303.184 C 231.344 303.796 230.973 304.429 230.637 305.083 C 229.197 307.869 228.333 310.988 228.173 314.297 C 228.154 314.663 228.117 315.022 228.117 315.396 C 228.117 315.766 228.154 316.129 228.173 316.495 C 228.33 319.763 229.179 322.845 230.589 325.605 C 230.922 326.259 231.285 326.899 231.681 327.512 C 233.424 330.234 235.727 332.553 238.438 334.307 C 239.051 334.707 239.683 335.074 240.341 335.41 C 243.123 336.853 246.246 337.718 249.552 337.874 C 249.918 337.893 250.277 337.934 250.651 337.934 C 251.021 337.934 251.384 337.897 251.75 337.874 C 255.015 337.718 258.1 336.868 260.856 335.463 C 261.514 335.126 262.15 334.763 262.767 334.371 C 265.486 332.627 267.808 330.32 269.562 327.613 C 269.958 326.996 270.329 326.364 270.665 325.71 C 272.105 322.924 272.969 319.801 273.129 316.496 C 273.148 316.131 273.185 315.767 273.185 315.397 C 273.186 315.024 273.148 314.66 273.129 314.298 Z  M 270.931 316.496 C 270.774 319.403 270.015 322.146 268.758 324.604 C 268.425 325.258 268.062 325.898 267.659 326.507 C 266.103 328.885 264.062 330.912 261.676 332.457 C 261.063 332.853 260.423 333.216 259.765 333.545 C 257.327 334.775 254.619 335.519 251.747 335.673 C 251.381 335.692 251.018 335.729 250.648 335.729 C 250.274 335.729 249.915 335.692 249.549 335.673 C 246.643 335.516 243.899 334.757 241.438 333.5 C 240.784 333.163 240.148 332.801 239.535 332.404 C 237.157 330.845 235.13 328.803 233.585 326.417 C 233.189 325.799 232.826 325.164 232.493 324.506 C 231.266 322.072 230.519 319.36 230.365 316.492 C 230.346 316.126 230.309 315.763 230.309 315.393 C 230.309 315.019 230.343 314.66 230.365 314.294 C 230.522 311.388 231.281 308.643 232.538 306.183 C 232.871 305.529 233.234 304.889 233.637 304.28 C 235.193 301.902 237.234 299.875 239.62 298.33 C 240.233 297.934 240.873 297.571 241.531 297.238 C 243.969 296.008 246.677 295.264 249.549 295.11 C 249.915 295.091 250.274 295.054 250.648 295.054 C 251.018 295.054 251.381 295.091 251.747 295.11 C 254.653 295.267 257.397 296.026 259.858 297.283 C 260.512 297.62 261.148 297.982 261.761 298.379 C 264.139 299.938 266.166 301.98 267.711 304.37 C 268.107 304.983 268.47 305.619 268.803 306.277 C 270.03 308.711 270.777 311.423 270.931 314.295 C 270.95 314.661 270.987 315.02 270.987 315.394 C 270.987 315.768 270.953 316.131 270.931 316.496 Z " fill="rgb(196,191,187)"/></g><g><path d=" M 272.98 327.492 L 246.089 311.939 L 245.569 310.91 C 245.569 310.91 245.244 311.221 244.948 311.367 C 244.578 311.549 244.088 311.65 244.088 311.65 C 244.088 311.65 244.23 312.133 244.271 312.462 C 244.312 312.795 244.192 313.285 244.192 313.285 L 245.325 313.022 L 272.362 328.657 C 272.362 328.657 272.807 328.691 273.013 328.28 C 273.219 327.869 272.98 327.492 272.98 327.492 Z " fill="rgb(107,102,99)"/><path d=" M 251.956 308.333 C 251.672 308.097 251.518 307.54 251.518 307.54 C 251.518 307.54 251.178 308.064 250.766 308.173 C 250.171 308.333 249.719 308.8 249.633 309.13 C 249.547 309.458 250.239 310.588 250.239 310.588 L 247.438 327.064 L 248.724 327.285 L 251.529 310.761 C 251.529 310.761 252.707 310.215 252.741 309.736 C 252.782 309.246 252.588 308.846 251.956 308.333 Z " fill="rgb(107,102,99)"/><path d=" M 249.189 326.646 C 248.755 326.535 248.318 326.65 248.004 326.924 C 247.858 326.535 247.537 326.217 247.099 326.104 C 246.396 325.921 245.678 326.343 245.495 327.046 C 245.312 327.749 246.759 330.744 247.077 330.475 C 247.223 330.868 249.953 328.964 250.136 328.261 C 250.314 327.55 249.896 326.829 249.189 326.646 Z " fill="rgb(107,102,99)"/><circle vector-effect="non-scaling-stroke" cx="247.08299999999994" cy="330.5875" r="0.7330000000000041" fill="rgb(107,102,99)"/></g><path d=" M 284.947 350.025 L 216.905 350.025 L 208.315 364.499 L 293.533 364.499 L 284.947 350.025 Z " fill="rgb(168,136,109)"/><g><path d=" M 224.343 356.144 L 221.564 356.144 C 221.033 356.144 220.603 356.824 220.603 357.661 L 220.603 364.497 L 225.304 364.497 L 225.304 357.661 C 225.304 356.824 224.874 356.144 224.343 356.144 Z " fill="rgb(137,118,100)"/><path d=" M 242.562 356.144 L 239.784 356.144 C 239.249 356.144 238.823 356.824 238.823 357.661 L 238.823 364.497 L 243.524 364.497 L 243.524 357.661 C 243.527 356.824 243.093 356.144 242.562 356.144 Z " fill="rgb(137,118,100)"/><path d=" M 260.781 356.144 L 258.003 356.144 C 257.472 356.144 257.042 356.824 257.042 357.661 L 257.042 364.497 L 261.743 364.497 L 261.743 357.661 C 261.746 356.824 261.312 356.144 260.781 356.144 Z " fill="rgb(137,118,100)"/><path d=" M 279.004 356.144 L 276.225 356.144 C 275.694 356.144 275.264 356.824 275.264 357.661 L 275.264 364.497 L 279.965 364.497 L 279.965 357.661 C 279.965 356.824 279.532 356.144 279.004 356.144 Z " fill="rgb(137,118,100)"/><path d=" M 233.453 356.144 L 230.674 356.144 C 230.143 356.144 229.713 356.824 229.713 357.661 L 229.713 364.497 L 234.414 364.497 L 234.414 357.661 C 234.414 356.824 233.984 356.144 233.453 356.144 Z " fill="rgb(137,118,100)"/><path d=" M 251.676 356.144 L 248.894 356.144 C 248.363 356.144 247.933 356.824 247.933 357.661 L 247.933 364.497 L 252.634 364.497 L 252.634 357.661 C 252.637 356.824 252.203 356.144 251.676 356.144 Z " fill="rgb(137,118,100)"/><path d=" M 269.891 356.144 L 267.112 356.144 C 266.577 356.144 266.151 356.824 266.151 357.661 L 266.151 364.497 L 270.848 364.497 L 270.848 357.661 C 270.852 356.824 270.422 356.144 269.891 356.144 Z " fill="rgb(137,118,100)"/><path d=" M 224.343 256.199 L 221.564 256.199 C 221.033 256.199 220.603 256.88 220.603 257.717 L 220.603 266.992 C 220.603 267.829 221.033 268.51 221.564 268.51 L 224.343 268.51 C 224.874 268.51 225.304 267.828 225.304 266.992 L 225.304 257.717 C 225.304 256.88 224.874 256.199 224.343 256.199 Z " fill="rgb(137,118,100)"/><path d=" M 242.562 256.199 L 239.784 256.199 C 239.249 256.199 238.823 256.88 238.823 257.717 L 238.823 266.992 C 238.823 267.829 239.249 268.51 239.784 268.51 L 242.562 268.51 C 243.093 268.51 243.523 267.828 243.523 266.992 L 243.523 257.717 C 243.527 256.88 243.093 256.199 242.562 256.199 Z " fill="rgb(137,118,100)"/><path d=" M 260.781 256.199 L 258.003 256.199 C 257.472 256.199 257.042 256.88 257.042 257.717 L 257.042 266.992 C 257.042 267.829 257.472 268.51 258.003 268.51 L 260.781 268.51 C 261.312 268.51 261.742 267.828 261.742 266.992 L 261.742 257.717 C 261.746 256.88 261.312 256.199 260.781 256.199 Z " fill="rgb(137,118,100)"/><path d=" M 279.004 256.199 L 276.225 256.199 C 275.694 256.199 275.264 256.88 275.264 257.717 L 275.264 266.992 C 275.264 267.829 275.694 268.51 276.225 268.51 L 279.004 268.51 C 279.535 268.51 279.965 267.828 279.965 266.992 L 279.965 257.717 C 279.965 256.88 279.532 256.199 279.004 256.199 Z " fill="rgb(137,118,100)"/><path d=" M 233.453 256.199 L 230.674 256.199 C 230.143 256.199 229.713 256.88 229.713 257.717 L 229.713 266.992 C 229.713 267.829 230.147 268.51 230.674 268.51 L 233.453 268.51 C 233.984 268.51 234.414 267.828 234.414 266.992 L 234.414 257.717 C 234.414 256.88 233.984 256.199 233.453 256.199 Z " fill="rgb(137,118,100)"/><path d=" M 251.676 256.199 L 248.894 256.199 C 248.363 256.199 247.933 256.88 247.933 257.717 L 247.933 266.992 C 247.933 267.829 248.363 268.51 248.894 268.51 L 251.676 268.51 C 252.207 268.51 252.637 267.828 252.637 266.992 L 252.637 257.717 C 252.637 256.88 252.203 256.199 251.676 256.199 Z " fill="rgb(137,118,100)"/><path d=" M 269.891 256.199 L 267.112 256.199 C 266.577 256.199 266.151 256.88 266.151 257.717 L 266.151 266.992 C 266.151 267.829 266.577 268.51 267.112 268.51 L 269.891 268.51 C 270.422 268.51 270.852 267.828 270.852 266.992 L 270.852 257.717 C 270.852 256.88 270.422 256.199 269.891 256.199 Z " fill="rgb(137,118,100)"/><path d=" M 226.104 226.848 L 223.516 226.848 C 223.019 226.848 222.618 227.401 222.618 228.086 L 222.618 235.625 C 222.618 236.309 223.018 236.859 223.516 236.859 L 226.104 236.859 C 226.598 236.859 226.998 236.309 226.998 235.625 L 226.998 228.086 C 226.998 227.402 226.598 226.848 226.104 226.848 Z " fill="rgb(137,118,100)"/><path d=" M 243.086 226.848 L 240.498 226.848 C 240.001 226.848 239.601 227.401 239.601 228.086 L 239.601 235.625 C 239.601 236.309 240.001 236.859 240.498 236.859 L 243.086 236.859 C 243.58 236.859 243.98 236.309 243.98 235.625 L 243.98 228.086 C 243.983 227.402 243.583 226.848 243.086 226.848 Z " fill="rgb(137,118,100)"/><path d=" M 260.067 226.848 L 257.479 226.848 C 256.982 226.848 256.582 227.401 256.582 228.086 L 256.582 235.625 C 256.582 236.309 256.982 236.859 257.479 236.859 L 260.067 236.859 C 260.564 236.859 260.964 236.309 260.964 235.625 L 260.964 228.086 C 260.968 227.402 260.565 226.848 260.067 226.848 Z " fill="rgb(137,118,100)"/><path d=" M 277.052 226.848 L 274.46 226.848 C 273.966 226.848 273.566 227.401 273.566 228.086 L 273.566 235.625 C 273.566 236.309 273.966 236.859 274.46 236.859 L 277.052 236.859 C 277.546 236.859 277.949 236.309 277.949 235.625 L 277.949 228.086 C 277.95 227.402 277.546 226.848 277.052 226.848 Z " fill="rgb(137,118,100)"/><path d=" M 234.414 207.979 L 231.826 207.979 C 231.332 207.979 230.932 208.532 230.932 209.213 L 230.932 216.752 C 230.932 217.433 231.332 217.986 231.826 217.986 L 234.414 217.986 C 234.911 217.986 235.311 217.433 235.311 216.752 L 235.311 209.213 C 235.311 208.532 234.907 207.979 234.414 207.979 Z " fill="rgb(137,118,100)"/><path d=" M 251.395 207.979 L 248.807 207.979 C 248.31 207.979 247.91 208.532 247.91 209.213 L 247.91 216.752 C 247.91 217.433 248.31 217.986 248.807 217.986 L 251.395 217.986 C 251.892 217.986 252.292 217.433 252.292 216.752 L 252.292 209.213 C 252.293 208.532 251.892 207.979 251.395 207.979 Z " fill="rgb(137,118,100)"/><path d=" M 268.38 207.979 L 265.788 207.979 C 265.294 207.979 264.894 208.532 264.894 209.213 L 264.894 216.752 C 264.894 217.433 265.294 217.986 265.788 217.986 L 268.38 217.986 C 268.874 217.986 269.277 217.433 269.277 216.752 L 269.277 209.213 C 269.278 208.532 268.874 207.979 268.38 207.979 Z " fill="rgb(137,118,100)"/><path d=" M 236.108 165.531 L 233.797 165.531 C 233.356 165.531 232.997 166.997 232.997 168.811 L 232.997 188.87 C 232.997 190.683 233.356 192.15 233.797 192.15 L 236.108 192.15 C 236.549 192.15 236.908 190.683 236.908 188.87 L 236.908 168.811 C 236.908 166.997 236.549 165.531 236.108 165.531 Z " fill="rgb(137,118,100)"/><path d=" M 251.257 165.531 L 248.946 165.531 C 248.505 165.531 248.149 166.997 248.149 168.811 L 248.149 188.87 C 248.149 190.683 248.504 192.15 248.946 192.15 L 251.257 192.15 C 251.695 192.15 252.054 190.683 252.054 188.87 L 252.054 168.811 C 252.057 166.997 251.698 165.531 251.257 165.531 Z " fill="rgb(137,118,100)"/><path d=" M 266.406 165.531 L 264.095 165.531 C 263.65 165.531 263.295 166.997 263.295 168.811 L 263.295 188.87 C 263.295 190.683 263.65 192.15 264.095 192.15 L 266.406 192.15 C 266.847 192.15 267.203 190.683 267.203 188.87 L 267.203 168.811 C 267.202 166.997 266.847 165.531 266.406 165.531 Z " fill="rgb(137,118,100)"/><path d=" M 243.804 165.531 L 241.493 165.531 C 241.052 165.531 240.693 166.997 240.693 168.811 L 240.693 188.87 C 240.693 190.683 241.052 192.15 241.493 192.15 L 243.804 192.15 C 244.245 192.15 244.601 190.683 244.601 188.87 L 244.601 168.811 C 244.6 166.997 244.241 165.531 243.804 165.531 Z " fill="rgb(137,118,100)"/><path d=" M 258.953 165.531 L 256.642 165.531 C 256.201 165.531 255.845 166.997 255.845 168.811 L 255.845 188.87 C 255.845 190.683 256.204 192.15 256.642 192.15 L 258.953 192.15 C 259.394 192.15 259.75 190.683 259.75 188.87 L 259.75 168.811 C 259.749 166.997 259.394 165.531 258.953 165.531 Z " fill="rgb(137,118,100)"/></g><path d=" M 280.399 379.79 L 220.626 379.79 C 217.324 379.79 214.646 381.005 214.646 382.509 L 214.646 389.188 C 214.646 390.688 217.324 391.906 220.626 391.906 L 280.399 391.906 C 283.697 391.906 286.375 390.688 286.375 389.188 L 286.375 382.509 C 286.375 381.005 283.698 379.79 280.399 379.79 Z " fill="rgb(229,195,161)"/><path d=" M 253.732 61.532 L 247.569 61.532 C 246.541 61.532 245.703 62.123 245.703 62.852 L 245.703 65.892 C 245.703 66.621 246.537 67.212 247.569 67.212 L 253.728 67.212 C 254.756 67.212 255.594 66.621 255.594 65.892 L 255.594 62.852 C 255.595 62.119 254.761 61.532 253.732 61.532 Z " fill="rgb(127,123,121)"/><g><path d=" M 224.343 383.443 L 221.564 383.443 C 221.033 383.443 220.603 384.123 220.603 384.958 L 220.603 391.797 L 225.304 391.797 L 225.304 384.958 C 225.304 384.124 224.874 383.443 224.343 383.443 Z " fill="rgb(137,118,100)"/><path d=" M 242.562 383.443 L 239.784 383.443 C 239.249 383.443 238.823 384.123 238.823 384.958 L 238.823 391.797 L 243.524 391.797 L 243.524 384.958 C 243.527 384.124 243.093 383.443 242.562 383.443 Z " fill="rgb(137,118,100)"/><path d=" M 260.781 383.443 L 258.003 383.443 C 257.472 383.443 257.042 384.123 257.042 384.958 L 257.042 391.797 L 261.743 391.797 L 261.743 384.958 C 261.746 384.124 261.312 383.443 260.781 383.443 Z " fill="rgb(137,118,100)"/><path d=" M 279.004 383.443 L 276.225 383.443 C 275.694 383.443 275.264 384.123 275.264 384.958 L 275.264 391.797 L 279.965 391.797 L 279.965 384.958 C 279.965 384.124 279.532 383.443 279.004 383.443 Z " fill="rgb(137,118,100)"/><path d=" M 233.453 383.443 L 230.674 383.443 C 230.143 383.443 229.713 384.123 229.713 384.958 L 229.713 391.797 L 234.414 391.797 L 234.414 384.958 C 234.414 384.124 233.984 383.443 233.453 383.443 Z " fill="rgb(137,118,100)"/><path d=" M 251.676 383.443 L 248.894 383.443 C 248.363 383.443 247.933 384.123 247.933 384.958 L 247.933 391.797 L 252.634 391.797 L 252.634 384.958 C 252.637 384.124 252.203 383.443 251.676 383.443 Z " fill="rgb(137,118,100)"/><path d=" M 269.891 383.443 L 267.112 383.443 C 266.577 383.443 266.151 384.123 266.151 384.958 L 266.151 391.797 L 270.848 391.797 L 270.848 384.958 C 270.852 384.124 270.422 383.443 269.891 383.443 Z " fill="rgb(137,118,100)"/></g></g></g></svg>