<?xml version="1.0" encoding="UTF-8" standalone="no"?><!-- Generator: Gravit.io --><svg xmlns="http://www.w3.org/2000/svg" xmlns:xlink="http://www.w3.org/1999/xlink" style="isolation:isolate" viewBox="0 0 500 500" width="500pt" height="500pt"><defs><clipPath id="_clipPath_hnA4BgAhi45ZXdPwl7kSEyU8Jf7XElQf"><rect width="500" height="500"/></clipPath></defs><g clip-path="url(#_clipPath_hnA4BgAhi45ZXdPwl7kSEyU8Jf7XElQf)"><g><rect x="224.272" y="304.086" width="50.75" height="3.429" transform="matrix(1,0,0,1,0,0)" fill="rgb(91,82,76)"/><g style="opacity:0.7;"><g opacity="0.7"><rect x="238.856" y="318.173" width="20.986" height="7.068" transform="matrix(1,0,0,1,0,0)" fill="rgb(102,95,89)"/></g></g><g style="opacity:0.7;"><g opacity="0.7"><rect x="236.283" y="332.009" width="26.128" height="7.068" transform="matrix(1,0,0,1,0,0)" fill="rgb(66,63,62)"/></g></g><rect x="194.464" y="398.312" width="109.607" height="8.257" transform="matrix(1,0,0,1,0,0)" fill="rgb(183,158,128)"/><path d=" M 220.106 317.148 L 223.401 318.861 L 275.65 318.861 L 278.945 317.148 L 220.106 317.148 Z " fill="rgb(66,60,56)"/><path d=" M 218.689 309.011 L 220.106 317.148 L 278.945 317.148 L 280.358 309.011 L 218.689 309.011 Z " fill="rgb(91,82,76)"/><path d=" M 278.945 306.868 L 220.106 306.868 L 218.689 309.011 L 280.358 309.011 L 278.945 306.868 Z " fill="rgb(158,143,126)"/><g><path d=" M 250.793 201.894 L 248.665 201.894 C 245.756 273.911 241.35 303.562 241.35 303.562 L 258.107 303.562 C 258.111 303.562 254.11 273.911 250.793 201.894 Z  M 249.738 204.19 L 252.644 300.948 L 246.818 300.948 L 249.738 204.19 Z " fill="rgb(91,82,76)"/><path d=" M 256.597 95.885 L 254.103 95.885 C 257.001 189.984 268.16 301.3 268.16 301.3 L 231.31 301.3 C 231.31 301.3 242.465 189.98 245.367 95.885 L 242.873 95.885 C 238.318 243.718 226.172 304.695 226.172 304.695 L 273.298 304.695 C 273.294 304.695 261.148 243.718 256.597 95.885 Z " fill="rgb(91,82,76)"/><path d=" M 259.734 70.314 L 254.596 64.181 L 254.596 59.458 L 254.611 59.458 L 254.596 59.439 L 254.596 59.394 L 254.551 59.394 L 251.818 56.47 L 251.806 56.47 L 251.806 44.765 L 247.663 44.765 L 247.663 56.47 L 247.655 56.47 L 244.922 59.394 L 244.884 59.394 L 244.884 59.432 L 244.858 59.458 L 244.884 59.458 L 244.884 64.181 L 239.743 70.314 L 239.63 84.449 L 239.743 90.44 L 242.869 95.885 L 256.608 95.885 L 259.734 90.44 L 259.847 84.449 L 259.734 70.314 Z " fill="rgb(91,82,76)"/></g><rect x="248.43" y="27.795" width="2.64" height="16.955" transform="matrix(1,0,0,1,0,0)" fill="rgb(229,229,229)"/><g><ellipse vector-effect="non-scaling-stroke" cx="249.62599999999998" cy="28.168999999999983" rx="2.4639999999999986" ry="1.5" fill="rgb(91,82,76)"/><rect x="239.081" y="184.55" width="21.207" height="8.994" transform="matrix(1,0,0,1,0,0)" fill="rgb(91,82,76)"/></g><g style="opacity:0.8;"><g opacity="0.8"><rect x="230.704" y="293.125" width="37.908" height="8.997" transform="matrix(1,0,0,1,0,0)" fill="rgb(91,82,76)"/></g></g><g style="opacity:0.7;"><g opacity="0.7"><rect x="230.704" y="278.167" width="37.908" height="6.608" transform="matrix(1,0,0,1,0,0)" fill="rgb(91,82,76)"/></g></g><g style="opacity:0.7;"><g opacity="0.7"><rect x="232.645" y="262.659" width="34.049" height="6.612" transform="matrix(1,0,0,1,0,0)" fill="rgb(91,82,76)"/></g></g><g style="opacity:0.7;"><g opacity="0.7"><rect x="234.556" y="247.158" width="30.216" height="6.608" transform="matrix(1,0,0,1,0,0)" fill="rgb(91,82,76)"/></g></g><g style="opacity:0.7;"><g opacity="0.7"><rect x="236.179" y="231.639" width="26.985" height="6.604" transform="matrix(1,0,0,1,0,0)" fill="rgb(91,82,76)"/></g></g><g style="opacity:0.7;"><g opacity="0.7"><rect x="236.822" y="216.12" width="25.698" height="6.608" transform="matrix(1,0,0,1,0,0)" fill="rgb(91,82,76)"/></g></g><g style="opacity:0.7;"><g opacity="0.7"><rect x="238.408" y="200.638" width="22.475" height="6.604" transform="matrix(1,0,0,1,0,0)" fill="rgb(91,82,76)"/></g></g><path d=" M 250.793 201.894 L 248.665 201.894 C 245.756 273.911 241.35 303.562 241.35 303.562 L 258.107 303.562 C 258.111 303.562 254.11 273.911 250.793 201.894 Z " fill="rgb(91,82,76)"/><g style="opacity:0.7;"><g opacity="0.7"><rect x="240.352" y="172.034" width="18.634" height="6.088" transform="matrix(1,0,0,1,0,0)" fill="rgb(91,82,76)"/></g></g><g style="opacity:0.7;"><g opacity="0.7"><rect x="241.287" y="157.737" width="16.738" height="6.092" transform="matrix(1,0,0,1,0,0)" fill="rgb(91,82,76)"/></g></g><g style="opacity:0.7;"><g opacity="0.7"><rect x="242.259" y="143.437" width="14.846" height="6.092" transform="matrix(1,0,0,1,0,0)" fill="rgb(91,82,76)"/></g></g><g style="opacity:0.7;"><g opacity="0.7"><rect x="243.045" y="129.137" width="13.268" height="6.092" transform="matrix(1,0,0,1,0,0)" fill="rgb(91,82,76)"/></g></g><g style="opacity:0.7;"><g opacity="0.7"><rect x="243.344" y="114.852" width="12.632" height="6.088" transform="matrix(1,0,0,1,0,0)" fill="rgb(91,82,76)"/></g></g><g style="opacity:0.7;"><g opacity="0.7"><rect x="244.144" y="100.548" width="11.054" height="6.092" transform="matrix(1,0,0,1,0,0)" fill="rgb(91,82,76)"/></g></g><g><path d=" M 239.331 207.362 L 249.559 202.036 L 241.463 193.772 L 249.219 184.292 L 241.231 178.126 L 249.234 172.038 L 242.076 163.9 L 249.185 158.366 L 242.944 149.581 L 249.144 143.333 L 243.714 135.274 L 249.121 129.193 L 244.013 120.981 L 249.095 115.076 L 244.761 106.666 L 248.65 100.451 L 245.827 95.619 L 244.899 96.154 L 247.401 100.428 L 243.527 106.614 L 247.813 114.927 L 242.689 120.884 L 247.79 129.077 L 242.364 135.188 L 247.764 143.202 L 241.549 149.473 L 247.723 158.149 L 240.528 163.751 L 247.674 171.884 L 239.477 178.122 L 247.689 184.472 L 240.027 193.836 L 247.779 201.752 L 237.518 207.096 L 246.769 216.019 L 237.342 222.873 L 246.298 231.4 L 235.285 238.164 L 244.989 246.825 L 233.651 253.687 L 244.484 262.647 L 231.665 269.166 L 242.768 278.077 L 231.254 284.049 L 241.616 293.544 L 230.405 301.689 L 231.029 302.552 L 243.306 293.637 L 233.105 284.292 L 244.724 278.271 L 233.628 269.367 L 246.425 262.864 L 235.494 253.826 L 246.78 246.994 L 237.069 238.325 L 248.048 231.583 L 239.01 222.982 L 248.43 216.131 L 239.331 207.362 Z " fill="rgb(91,82,76)"/><path d=" M 257.722 293.544 L 268.081 284.049 L 256.574 278.077 L 267.673 269.166 L 254.85 262.647 L 265.691 253.687 L 254.349 246.825 L 264.057 238.164 L 253.044 231.4 L 261.993 222.873 L 252.566 216.019 L 261.821 207.096 L 251.556 201.752 L 259.312 193.836 L 251.646 184.472 L 259.861 178.122 L 251.664 171.884 L 258.814 163.751 L 251.619 158.149 L 257.786 149.473 L 251.575 143.202 L 256.975 135.188 L 251.548 129.077 L 256.645 120.884 L 251.526 114.927 L 255.808 106.614 L 251.937 100.428 L 254.435 96.154 L 253.508 95.619 L 250.688 100.451 L 254.577 106.666 L 250.243 115.076 L 255.322 120.981 L 250.217 129.193 L 255.621 135.274 L 250.195 143.333 L 256.391 149.581 L 250.15 158.366 L 257.259 163.9 L 250.101 172.038 L 258.104 178.126 L 250.12 184.292 L 257.872 193.772 L 249.78 202.036 L 260.004 207.362 L 250.909 216.131 L 260.325 222.982 L 251.298 231.583 L 262.266 238.325 L 252.558 246.994 L 263.844 253.826 L 252.91 262.864 L 265.714 269.367 L 254.619 278.271 L 266.23 284.292 L 256.036 293.637 L 268.305 302.552 L 268.934 301.689 L 257.722 293.544 Z " fill="rgb(91,82,76)"/><path d=" M 239.559 200.604 L 249.286 193.723 L 241.852 185.321 L 249.656 178.488 L 241.321 171.97 L 249.952 163.347 L 242.256 157.644 L 249.884 149.234 L 243.149 143.374 L 249.828 135.457 L 243.871 129.092 L 249.802 120.981 L 244.17 114.788 L 249.772 106.539 L 244.978 100.567 L 249.451 95.429 L 248.486 94.587 L 243.306 100.529 L 248.172 106.603 L 242.54 114.901 L 248.142 121.071 L 242.203 129.193 L 248.112 135.502 L 241.347 143.512 L 248.056 149.342 L 240.352 157.831 L 247.988 163.496 L 239.387 172.094 L 247.644 178.544 L 240.03 185.205 L 247.371 193.503 L 237.289 200.638 L 247.581 207.485 L 237.308 216.153 L 247.207 222.858 L 235.001 231.699 L 245.909 238.022 L 234.709 246.979 L 244.963 253.71 L 233.404 262.382 L 243.946 269.405 L 231.067 277.778 L 242.016 284.543 L 229.605 293.114 L 241.526 301.733 L 242.282 300.69 L 231.826 293.14 L 244.361 284.479 L 233.471 277.752 L 246.283 269.424 L 235.633 262.318 L 247.196 253.643 L 236.897 246.878 L 248.179 237.85 L 237.357 231.583 L 249.447 222.828 L 239.432 216.041 L 249.716 207.365 L 239.559 200.604 Z " fill="rgb(91,82,76)"/><path d=" M 257.457 284.543 L 268.403 277.778 L 255.52 269.405 L 266.062 262.382 L 254.506 253.71 L 264.76 246.979 L 253.56 238.022 L 264.472 231.699 L 252.263 222.858 L 262.161 216.153 L 251.885 207.485 L 262.176 200.638 L 252.098 193.503 L 259.439 185.205 L 251.829 178.544 L 260.086 172.094 L 251.481 163.496 L 259.121 157.831 L 251.418 149.342 L 258.119 143.512 L 251.358 135.502 L 257.262 129.193 L 251.324 121.071 L 256.93 114.901 L 251.298 106.603 L 256.163 100.529 L 250.984 94.587 L 250.015 95.429 L 254.491 100.567 L 249.701 106.539 L 255.299 114.788 L 249.671 120.981 L 255.598 129.092 L 249.641 135.457 L 256.324 143.374 L 249.585 149.234 L 257.218 157.644 L 249.522 163.347 L 258.149 171.97 L 249.813 178.488 L 257.621 185.321 L 250.187 193.723 L 259.91 200.604 L 249.753 207.365 L 260.037 216.041 L 250.023 222.828 L 262.113 231.583 L 251.29 237.85 L 262.573 246.878 L 252.274 253.643 L 263.84 262.318 L 253.186 269.424 L 266.002 277.752 L 255.105 284.479 L 267.636 293.14 L 257.188 300.69 L 257.939 301.733 L 269.865 293.114 L 257.457 284.543 Z " fill="rgb(91,82,76)"/></g><path d=" M 239.657 318.434 L 224.56 386.098 L 231.362 386.715 L 246.137 318.434 L 239.657 318.434 Z " fill="rgb(130,116,103)"/><g><path d=" M 223.618 318.434 L 203.914 386.958 L 226.224 387.575 L 240.999 318.438 L 223.617 318.438 L 223.617 318.434 L 223.618 318.434 Z  M 222.365 386.932 L 207.018 386.506 L 210.466 374.502 L 225.297 374.502 L 222.365 386.932 Z  M 225.801 372.367 L 211.078 372.367 L 214.526 360.374 L 228.628 360.374 L 225.801 372.367 Z  M 229.133 358.227 L 215.14 358.227 L 218.708 345.808 L 232.066 345.808 L 229.133 358.227 Z  M 232.57 343.669 L 219.324 343.669 L 222.648 332.103 L 235.295 332.103 L 232.57 343.669 Z  M 223.262 329.967 L 226.467 318.827 L 238.426 318.827 L 235.801 329.967 L 223.262 329.967 L 223.262 329.967 Z " fill="rgb(145,126,109)"/><path d=" M 230.584 325.596 L 239.466 319.504 L 238.928 318.752 L 237.701 318.7 L 229.463 324.287 L 225.335 319.078 L 224.355 319.908 L 228.394 325.009 L 220.649 330.241 L 226.651 337.578 L 218.491 343.483 L 222.773 351.175 L 212.568 358.501 L 218.877 367.147 L 209.513 374.435 L 214.778 379.932 L 205.182 385.799 L 206.076 387.261 L 215.99 381.199 L 221.91 387.377 L 222.837 386.487 L 217.115 380.511 L 226.542 374.752 L 220.989 367.135 L 229.463 360.538 L 224.673 351.926 L 234.717 344.72 L 228.861 337.566 L 236.247 332.218 L 230.584 325.596 Z  M 224.055 374.259 L 215.892 379.244 L 211.419 374.57 L 219.627 368.187 L 224.055 374.259 Z  M 227.802 360.202 L 220.226 366.096 L 214.968 358.882 L 223.618 352.682 L 227.802 360.202 Z  M 232.226 344.391 L 223.819 350.419 L 220.162 343.852 L 227.454 338.568 L 232.226 344.391 Z  M 228.034 336.568 L 223.158 330.611 L 229.504 326.322 L 234.35 331.991 L 228.034 336.568 Z " fill="rgb(145,126,109)"/></g><path d=" M 258.792 318.434 L 252.311 318.434 L 267.086 387.572 L 273.889 386.955 L 258.792 318.434 Z " fill="rgb(130,116,103)"/><g><path d=" M 274.835 318.434 L 257.45 318.434 L 272.225 387.571 L 294.535 386.954 L 274.835 318.434 Z  M 260.019 318.823 L 271.982 318.823 L 275.179 329.963 L 262.644 329.963 L 260.019 318.823 Z  M 263.152 332.103 L 275.795 332.103 L 279.116 343.669 L 265.874 343.669 L 263.152 332.103 Z  M 266.383 345.808 L 279.733 345.808 L 283.304 358.227 L 269.311 358.227 L 266.383 345.808 Z  M 269.816 360.374 L 283.922 360.374 L 287.366 372.367 L 272.643 372.367 L 269.816 360.374 Z  M 273.148 374.502 L 287.979 374.502 L 291.431 386.506 L 276.08 386.932 L 273.148 374.502 Z " fill="rgb(145,126,109)"/><path d=" M 283.671 379.932 L 288.936 374.435 L 279.576 367.147 L 285.885 358.501 L 275.676 351.175 L 279.962 343.483 L 271.802 337.578 L 277.8 330.241 L 270.059 325.009 L 274.098 319.908 L 273.122 319.078 L 268.994 324.287 L 260.756 318.7 L 259.526 318.752 L 258.995 319.504 L 267.873 325.596 L 262.219 332.219 L 269.608 337.567 L 263.752 344.721 L 273.8 351.927 L 269.002 360.539 L 277.48 367.136 L 271.927 374.753 L 281.354 380.512 L 275.632 386.488 L 276.563 387.378 L 282.475 381.2 L 292.389 387.262 L 293.279 385.8 L 283.671 379.932 Z  M 264.091 331.99 L 268.937 326.321 L 275.291 330.61 L 270.415 336.567 L 264.091 331.99 Z  M 266.219 344.391 L 270.983 338.568 L 278.275 343.852 L 274.618 350.419 L 266.219 344.391 Z  M 270.646 360.202 L 274.834 352.682 L 283.484 358.882 L 278.222 366.096 L 270.646 360.202 Z  M 274.386 374.259 L 278.817 368.19 L 287.025 374.573 L 282.549 379.247 L 274.386 374.259 Z " fill="rgb(145,126,109)"/></g><path d=" M 276.828 325.143 L 221.688 325.143 L 219.545 332.211 L 278.866 332.211 L 276.828 325.143 Z " fill="rgb(132,118,106)"/><path d=" M 194.464 385.818 L 194.464 398.959 L 304.078 398.959 L 304.078 385.818 L 194.464 385.818 Z  M 206.793 396.808 L 197.276 396.808 L 197.276 388.024 L 206.793 388.024 L 206.793 396.808 Z  M 218.913 396.808 L 209.392 396.808 L 209.392 388.024 L 218.913 388.024 L 218.913 396.808 Z  M 230.596 396.808 L 221.079 396.808 L 221.079 388.024 L 230.596 388.024 L 230.596 396.808 L 230.596 396.808 Z  M 242.712 396.808 L 233.195 396.808 L 233.195 388.024 L 242.712 388.024 L 242.712 396.808 Z  M 254.177 396.808 L 244.66 396.808 L 244.66 388.024 L 254.177 388.024 L 254.177 396.808 Z  M 266.294 396.808 L 256.777 396.808 L 256.777 388.024 L 266.294 388.024 L 266.294 396.808 Z  M 277.98 396.808 L 268.459 396.808 L 268.459 388.024 L 277.98 388.024 L 277.98 396.808 Z  M 290.096 396.808 L 280.575 396.808 L 280.575 388.024 L 290.096 388.024 L 290.096 396.808 Z  M 301.561 396.808 L 292.044 396.808 L 292.044 388.024 L 301.561 388.024 L 301.561 396.808 Z " fill="rgb(183,158,128)"/><path d=" M 287.972 417.657 L 210.204 417.657 L 173.754 474.214 C 176.166 475.033 178.574 475.848 181.02 476.592 C 185.134 443.482 211.079 417.948 249.091 417.948 C 287.291 417.948 313.314 443.732 317.226 477.082 C 319.728 476.345 322.207 475.556 324.671 474.737 L 287.972 417.657 Z " fill="rgb(160,138,114)"/><g><path d=" M 304.605 447.962 L 280.186 428.692 L 245.494 419.695 L 219.796 425.476 L 190.885 453.104 L 184.52 477.587 C 186.008 478.013 187.493 478.458 188.993 478.858 C 189.094 448.938 215.955 424.702 249.088 424.702 C 282.28 424.702 309.19 449.028 309.19 479.027 L 309.209 479.364 C 310.667 478.986 312.092 478.538 313.539 478.134 L 304.605 447.962 Z " fill="rgb(132,120,107)"/><path d=" M 249.088 417.952 C 211.075 417.952 185.13 443.486 181.017 476.596 C 182.176 476.948 183.354 477.254 184.517 477.591 L 190.882 453.108 L 219.793 425.48 L 245.491 419.699 L 280.183 428.696 L 304.602 447.966 L 313.54 478.137 C 314.77 477.793 316.001 477.449 317.223 477.09 C 313.311 443.736 287.288 417.952 249.088 417.952 Z " fill="rgb(132,120,107)"/></g><g><path d=" M 303.712 404.082 L 282.12 404.082 L 286.619 413.913 L 210.803 413.913 L 215.298 404.082 L 194.469 404.082 L 155.327 467.098 C 159.833 469.065 164.388 470.927 169.036 472.621 L 206.948 415.222 L 295.243 415.723 L 325.612 474.423 C 331.595 472.407 337.493 470.201 343.252 467.733 L 303.712 404.082 Z " fill="rgb(183,158,128)"/><path d=" M 295.238 415.719 L 206.943 415.218 L 169.031 472.617 C 170.59 473.182 172.18 473.679 173.754 474.214 L 210.204 417.657 L 287.972 417.657 L 324.668 474.738 C 324.978 474.633 325.293 474.525 325.603 474.42 L 295.238 415.719 Z " fill="rgb(183,158,128)"/><rect x="206.303" y="409.418" width="84.163" height="1.286" transform="matrix(1,0,0,1,0,0)" fill="rgb(183,158,128)"/></g></g></g></svg>