<?xml version="1.0" encoding="UTF-8" standalone="no"?><!-- Generator: Gravit.io --><svg xmlns="http://www.w3.org/2000/svg" xmlns:xlink="http://www.w3.org/1999/xlink" style="isolation:isolate" viewBox="0 0 500 500" width="500pt" height="500pt"><defs><clipPath id="_clipPath_9tGfrxOJmURlfv0KqDBpjSPkwp9q8URx"><rect width="500" height="500"/></clipPath></defs><g clip-path="url(#_clipPath_9tGfrxOJmURlfv0KqDBpjSPkwp9q8URx)"><clipPath id="_clipPath_GuQjcR3KNBDpNKka6wCpKbPJuZHaImim"><rect x="-9" y="0" width="500" height="500" transform="matrix(1,0,0,1,0,0)" fill="rgb(255,255,255)"/></clipPath><g clip-path="url(#_clipPath_GuQjcR3KNBDpNKka6wCpKbPJuZHaImim)"><g><g><rect x="243.616" y="35" width="6.807" height="72.603" transform="matrix(1,0,0,1,0,0)" fill="rgb(255,255,255)"/><path d=" M 255.34 104.199 L 258.004 177.554 L 236.046 177.554 L 238.71 104.199 L 247.025 104.199 L 255.34 104.199 Z " fill="rgb(204,204,204)"/><path d=" M 268.204 172.265 L 268.204 194.193 L 225.846 194.193 L 225.846 172.265 L 238.71 172.265 L 255.34 172.265 L 268.204 172.265 Z " fill="rgb(230,230,230)"/><path d=" M 277.654 188.147 L 277.654 219.91 L 268.578 232.006 L 273.872 272.845 L 272.73 460.032 L 261.001 485.614 C 254.523 486.158 247.966 486.431 241.353 486.431 C 238.574 486.431 235.805 486.386 233.049 486.283 L 219.421 456.622 L 220.934 346.205 L 221.69 239.57 L 216.396 219.91 L 216.396 188.147 L 225.846 188.147 L 268.204 188.147 L 277.654 188.147 L 277.654 188.147 Z " fill="rgb(179,179,179)"/><g><path d=" M 242.964 196.461 L 242.964 486.419 C 242.43 486.43 241.886 486.43 241.353 486.43 C 240.377 486.43 239.402 486.419 238.426 486.407 L 238.426 196.461 L 242.964 196.461 Z " fill="rgb(153,153,153)"/><path d=" M 255.624 196.461 L 255.624 486 C 254.115 486.102 252.595 486.17 251.086 486.238 L 251.086 196.461 L 255.624 196.461 Z " fill="rgb(153,153,153)"/><path d=" M 268.295 196.461 L 268.295 484.899 C 266.787 485.08 265.278 485.239 263.758 485.375 L 263.758 196.461 L 268.295 196.461 Z " fill="rgb(153,153,153)"/><path d=" M 230.292 196.461 L 230.292 486.169 C 228.772 486.101 227.263 486.022 225.754 485.919 L 225.754 196.461 L 230.292 196.461 Z " fill="rgb(153,153,153)"/></g><g><path d=" M 233.049 219.91 L 233.049 273.599 L 208.829 273.599 L 208.829 219.91 L 216.396 219.91 L 233.049 219.91 Z " fill="rgb(204,204,204)"/><path d=" M 285.22 219.91 L 285.22 273.599 L 261.001 273.599 L 261.001 219.91 L 277.654 219.91 L 285.22 219.91 Z " fill="rgb(204,204,204)"/></g><g><rect x="215.642" y="227.466" width="4.538" height="180.747" transform="matrix(1,0,0,1,0,0)" fill="rgb(153,153,153)"/><rect x="223.956" y="227.466" width="4.538" height="180.747" transform="matrix(1,0,0,1,0,0)" fill="rgb(153,153,153)"/><rect x="265.556" y="227.466" width="4.538" height="180.747" transform="matrix(1,0,0,1,0,0)" fill="rgb(153,153,153)"/><rect x="273.871" y="227.466" width="4.538" height="180.747" transform="matrix(1,0,0,1,0,0)" fill="rgb(153,153,153)"/></g><g><path d=" M 233.049 266.036 L 233.049 451.328 L 202.783 451.328 L 202.783 399.812 L 202.783 266.036 L 208.829 266.036 L 233.049 266.036 Z " fill="rgb(230,230,230)"/><path d=" M 291.267 411.736 L 291.267 460.032 L 261.001 460.032 L 261.001 266.036 L 285.22 266.036 L 291.267 266.036 L 291.267 411.736 Z " fill="rgb(230,230,230)"/></g><g><rect x="267.439" y="273.602" width="4.538" height="180.747" transform="matrix(1,0,0,1,0,0)" fill="rgb(153,153,153)"/><rect x="278.034" y="273.602" width="4.538" height="180.747" transform="matrix(1,0,0,1,0,0)" fill="rgb(153,153,153)"/><rect x="211.478" y="273.602" width="4.538" height="180.747" transform="matrix(1,0,0,1,0,0)" fill="rgb(153,153,153)"/><rect x="222.062" y="273.602" width="4.538" height="180.747" transform="matrix(1,0,0,1,0,0)" fill="rgb(153,153,153)"/></g><g><path d=" M 300.343 448.303 L 300.343 478.989 C 298.21 479.545 296.065 480.056 293.911 480.543 C 292.402 480.895 290.893 481.224 289.373 481.53 C 287.365 481.95 285.346 482.335 283.326 482.698 C 281.818 482.971 280.309 483.231 278.789 483.481 C 276.781 483.787 274.773 484.083 272.742 484.354 C 271.233 484.559 269.724 484.74 268.204 484.91 C 265.811 485.182 263.417 485.409 261.001 485.614 L 261.001 448.303 L 300.343 448.303 L 300.343 448.303 Z " fill="rgb(204,204,204)"/><path d=" M 233.049 448.303 L 233.049 486.283 C 230.633 486.204 228.24 486.079 225.846 485.931 C 224.326 485.829 222.817 485.716 221.308 485.591 C 219.277 485.41 217.269 485.217 215.261 485.002 C 213.741 484.831 212.232 484.65 210.723 484.457 C 208.693 484.197 206.685 483.902 204.677 483.595 C 203.157 483.357 201.648 483.107 200.139 482.846 C 197.983 482.46 195.84 482.052 193.707 481.621 L 193.707 448.303 L 233.049 448.303 L 233.049 448.303 Z " fill="rgb(204,204,204)"/></g><g><path d=" M 272.742 455.109 L 272.742 484.355 C 271.233 484.56 269.724 484.741 268.204 484.911 L 268.204 455.109 L 272.742 455.109 Z " fill="rgb(153,153,153)"/><path d=" M 283.326 455.109 L 283.326 482.699 C 281.818 482.972 280.309 483.232 278.789 483.482 L 278.789 455.11 L 283.326 455.11 L 283.326 455.109 Z " fill="rgb(153,153,153)"/><path d=" M 293.911 455.109 L 293.911 480.543 C 292.402 480.895 290.893 481.224 289.373 481.53 L 289.373 455.109 L 293.911 455.109 L 293.911 455.109 Z " fill="rgb(153,153,153)"/><path d=" M 204.677 455.109 L 204.677 483.594 C 203.157 483.356 201.648 483.106 200.139 482.845 L 200.139 455.109 L 204.677 455.109 L 204.677 455.109 Z " fill="rgb(153,153,153)"/><path d=" M 215.261 455.109 L 215.261 485.001 C 213.741 484.831 212.232 484.649 210.723 484.457 L 210.723 455.109 L 215.261 455.109 Z " fill="rgb(153,153,153)"/><path d=" M 225.846 455.109 L 225.846 485.931 C 224.326 485.829 222.817 485.716 221.308 485.591 L 221.308 455.109 L 225.846 455.109 L 225.846 455.109 Z " fill="rgb(153,153,153)"/></g></g></g></g></g></svg>