<?xml version="1.0" encoding="UTF-8" standalone="no"?><!-- Generator: Gravit.io --><svg xmlns="http://www.w3.org/2000/svg" xmlns:xlink="http://www.w3.org/1999/xlink" style="isolation:isolate" viewBox="0 0 500 500" width="500pt" height="500pt"><defs><clipPath id="_clipPath_qgWEOnSNHosv0KZAqxUYA9bJCEECVFjY"><rect width="500" height="500"/></clipPath></defs><g clip-path="url(#_clipPath_qgWEOnSNHosv0KZAqxUYA9bJCEECVFjY)"><clipPath id="_clipPath_lfbDaiGobUV7bjQturxJE3JKNuVpLRCM"><rect x="24" y="80" width="420" height="420" transform="matrix(1,0,0,1,0,0)" fill="rgb(255,255,255)"/></clipPath><g clip-path="url(#_clipPath_lfbDaiGobUV7bjQturxJE3JKNuVpLRCM)"><g><g><path d=" M 304.24 159.01 C 304.24 159.01 292.395 157.216 288.088 154.345 C 288.088 154.345 276.601 147.167 267.268 145.732 L 267.268 205.315 C 267.268 205.315 280.91 203.876 289.524 196.701 L 323.264 198.856 C 323.264 198.856 340.849 188.446 342.284 160.448 C 342.288 160.445 322.187 159.726 304.24 159.01 Z " fill="rgb(219,212,210)"/><g><path d=" M 321.351 180.188 C 315.847 185.211 296.231 197.129 296.231 197.129 L 323.267 198.853 C 323.267 198.853 340.852 188.443 342.287 160.445 C 342.288 160.445 326.854 175.162 321.351 180.188 Z " fill="rgb(196,194,194)"/><path d=" M 304.24 159.01 C 304.24 159.01 292.395 157.216 288.088 154.345 C 288.088 154.345 276.601 147.167 267.268 145.732 L 267.268 205.315 C 267.268 205.315 291.916 187.13 298.614 180.191 C 305.314 173.252 317.999 159.547 317.999 159.547 C 313.524 159.374 308.811 159.192 304.24 159.01 Z " fill="rgb(196,194,194)"/></g><path d=" M 296.978 157.561 C 293.679 156.767 290.08 155.671 288.092 154.342 C 288.092 154.342 276.604 147.164 267.272 145.728 L 267.272 188.324 C 267.272 188.324 277.071 181.78 284.982 174.207 C 292.886 166.628 298.894 158.023 296.978 157.561 Z " fill="rgb(219,212,210)"/><path d=" M 323.267 198.85 C 323.267 198.85 340.852 188.44 342.287 160.442 L 323.267 198.85 Z " fill="rgb(175,175,175)"/><path d=" M 376.37 168.858 C 376.37 167.94 375.698 167.202 374.871 167.202 L 373.929 167.202 C 374.466 166.948 374.843 166.36 374.843 165.676 C 374.843 164.762 374.173 164.02 373.344 164.02 L 363.911 164.02 C 364.737 163.892 365.388 163.206 365.388 162.339 C 365.388 161.384 364.609 161.236 363.654 161.236 C 363.654 161.236 356.734 160.442 354.083 160.354 C 351.884 160.278 349.279 160.922 348.966 161.368 L 341.747 161.519 L 336.661 171.806 L 345.997 171.806 C 345.997 171.806 349.104 176.292 355.833 176.292 L 368.85 176.292 C 369.535 176.292 370.088 175.573 370.088 174.891 C 370.088 174.435 369.83 174.055 369.466 173.841 C 369.469 173.804 371.185 173.841 371.185 173.841 L 373.422 173.841 C 374.257 173.841 374.935 173.09 374.935 172.158 C 374.935 171.297 374.338 170.607 373.579 170.512 L 374.873 170.512 C 375.698 170.516 376.37 169.775 376.37 168.858 Z " fill="rgb(219,212,210)"/><g><path d=" M 353.775 164.033 C 353.775 164.033 359.429 165.289 364.05 163.998 L 353.775 164.033 Z " fill="rgb(168,165,165)"/><line x1="362.357" y1="167.205" x2="374.011" y2="167.2"/><line x1="360.833" y1="170.523" x2="373.737" y2="170.519"/><line x1="359.542" y1="173.843" x2="369.465" y2="173.843"/></g><g><path d=" M 179.917 154.342 C 175.609 157.213 163.763 159.006 163.763 159.006 C 145.818 159.725 125.72 160.442 125.72 160.442 C 127.155 188.44 144.741 198.85 144.741 198.85 L 178.484 196.695 C 187.091 203.873 200.736 205.309 200.736 205.309 L 200.736 145.728 C 191.408 147.164 179.917 154.342 179.917 154.342 Z " fill="rgb(196,194,194)"/><path d=" M 146.658 180.188 C 141.154 175.162 125.721 160.445 125.721 160.445 C 127.157 188.443 144.742 198.853 144.742 198.853 L 171.778 197.129 C 171.778 197.125 152.16 185.211 146.658 180.188 Z " fill="rgb(196,194,194)"/><path d=" M 179.917 154.342 C 175.609 157.213 163.763 159.006 163.763 159.006 C 159.193 159.188 154.484 159.371 150.002 159.54 C 150.002 159.54 162.686 173.243 169.386 180.184 C 176.087 187.124 200.733 205.308 200.733 205.308 L 200.733 145.728 C 191.408 147.164 179.917 154.342 179.917 154.342 Z " fill="rgb(196,194,194)"/></g><path d=" M 179.917 154.342 C 177.928 155.671 174.331 156.763 171.029 157.561 C 169.113 158.023 175.123 166.627 183.026 174.203 C 190.936 181.777 200.737 188.321 200.737 188.321 L 200.737 145.726 C 191.408 147.164 179.917 154.342 179.917 154.342 Z " fill="rgb(219,212,210)"/><path d=" M 125.72 160.445 C 127.155 188.443 144.741 198.853 144.741 198.853 L 125.72 160.445 Z " fill="rgb(175,175,175)"/><path d=" M 126.254 161.523 L 119.035 161.372 C 118.724 160.923 116.117 160.282 113.918 160.358 C 111.267 160.446 104.349 161.241 104.349 161.241 C 103.391 161.241 102.612 161.385 102.612 162.344 C 102.612 163.21 103.262 163.898 104.089 164.024 L 94.656 164.024 C 93.827 164.024 93.157 164.766 93.157 165.68 C 93.157 166.368 93.534 166.955 94.068 167.206 L 93.129 167.206 C 92.302 167.206 91.63 167.945 91.63 168.862 C 91.63 169.779 92.302 170.518 93.129 170.518 L 94.423 170.518 C 93.666 170.612 93.066 171.303 93.066 172.164 C 93.066 173.097 93.748 173.847 94.587 173.847 L 96.817 173.847 C 96.817 173.847 98.532 173.81 98.536 173.847 C 98.168 174.064 97.915 174.445 97.915 174.896 C 97.915 175.578 98.468 176.298 99.156 176.298 L 112.17 176.298 C 118.898 176.298 122.005 171.812 122.005 171.812 L 131.341 171.812 L 126.254 161.523 Z " fill="rgb(219,212,210)"/><g><path d=" M 103.958 163.998 C 108.582 165.289 114.233 164.033 114.233 164.033 L 103.958 163.998 Z " fill="rgb(168,165,165)"/><line x1="94" y1="167.199" x2="105.651" y2="167.205"/><line x1="94.27" y1="170.516" x2="107.174" y2="170.519"/><line x1="98.542" y1="173.846" x2="108.465" y2="173.846"/></g><rect x="204.581" y="258.176" width="60.312" height="162.236" transform="matrix(1,0,0,1,0,0)" fill="rgb(219,212,210)"/><rect x="214.634" y="258.176" width="2.397" height="162.236" transform="matrix(1,0,0,1,0,0)" fill="rgb(168,165,165)"/><g><rect x="236.873" y="258.176" width="2.394" height="162.236" transform="matrix(1,0,0,1,0,0)" fill="rgb(160,159,159)"/><rect x="259.145" y="258.176" width="2.397" height="162.236" transform="matrix(1,0,0,1,0,0)" fill="rgb(160,159,159)"/><rect x="207.213" y="258.176" width="2.397" height="162.236" transform="matrix(1,0,0,1,0,0)" fill="rgb(160,159,159)"/></g><g><rect x="229.461" y="258.176" width="2.394" height="162.236" transform="matrix(1,0,0,1,0,0)" fill="rgb(168,165,165)"/><rect x="251.732" y="258.176" width="2.397" height="162.236" transform="matrix(1,0,0,1,0,0)" fill="rgb(168,165,165)"/></g><rect x="222.292" y="258.176" width="2.394" height="162.236" transform="matrix(1,0,0,1,0,0)" fill="rgb(160,159,159)"/><rect x="244.542" y="258.176" width="2.397" height="162.236" transform="matrix(1,0,0,1,0,0)" fill="rgb(168,165,165)"/><path d=" M 257.584 144.834 C 257.584 144.834 250.944 140.885 243.762 140.166 L 221.33 140.166 C 221.33 140.166 213.795 142.32 210.562 144.294 C 210.562 144.294 205.087 144.294 200.737 145.729 L 200.737 197.952 L 196.208 198.489 L 196.208 251.968 C 196.208 251.968 193.333 258.788 200.872 261.659 C 200.872 261.659 202.129 261.838 202.129 264.351 C 202.129 264.351 201.231 269.736 204.996 272.248 C 204.996 272.248 211.279 275.298 211.816 276.734 C 212.353 278.169 212.712 278.888 211.816 279.426 C 210.921 279.963 206.791 281.219 204.996 282.658 C 203.2 284.094 203.382 286.783 203.382 290.555 C 203.382 294.324 203.382 302.58 208.044 305.991 C 212.709 309.399 261.707 336.499 261.707 336.499 C 261.707 336.499 266.732 339.191 266.553 330.217 L 266.013 308.322 L 268.348 305.63 L 268.527 293.426 L 268.527 146.448 C 268.528 146.448 265.481 145.013 257.584 144.834 Z " fill="rgb(219,212,210)"/><g><path d=" M 223.482 253.407 C 226.831 278.773 244.538 286.431 244.538 286.431 C 233.534 278.057 223.482 253.407 223.482 253.407 Z " fill="rgb(196,194,194)"/><path d=" M 245.254 307.292 C 245.254 307.292 261.347 316.204 268.348 305.678 C 268.349 305.678 256.739 310.342 245.254 307.292 Z " fill="rgb(196,194,194)"/><path d=" M 227.073 173.547 C 218.381 168.213 213.433 145.132 213.433 145.132 L 210.567 146.087 C 210.567 146.087 207.096 146.329 204.821 146.564 C 202.547 146.799 199.794 148.48 199.794 148.48 L 197.883 196.337 C 197.883 196.337 204.461 204.114 220.613 208.06 C 236.769 212.009 251.959 200.524 251.959 200.524 L 251.959 178.749 C 237.479 178.75 234.969 178.391 227.073 173.547 Z " fill="rgb(196,194,194)"/></g><path d=" M 223.728 173.488 C 213.675 163.675 212.718 142.619 212.718 142.619 L 210.566 143.577 C 210.566 143.577 207.094 143.816 204.819 144.054 C 202.546 144.293 199.794 145.97 199.794 145.97 L 197.882 193.827 C 197.882 193.827 204.459 201.604 220.612 205.55 C 236.768 209.499 251.958 200.524 251.958 200.524 L 251.958 180.423 C 228.508 181.381 223.728 173.488 223.728 173.488 Z " fill="rgb(219,212,210)"/><g><path d=" M 251.119 148.48 L 250.405 274.463 L 251.659 275.54 L 254.355 151.951 L 251.119 148.48 Z " fill="rgb(196,194,194)"/><path d=" M 212.952 205.312 L 211.282 204.715 L 212.001 272.788 L 213.914 270.998 L 212.952 205.312 Z " fill="rgb(196,194,194)"/><path d=" M 219.172 141.064 L 216.841 141.783 C 216.841 141.783 217.919 168.88 234.433 174.983 C 234.433 174.98 223.482 169.42 219.172 141.064 Z " fill="rgb(196,194,194)"/><path d=" M 247.714 141.064 C 243.403 169.42 232.456 174.98 232.456 174.98 C 248.97 168.88 250.044 141.779 250.044 141.779 L 247.714 141.064 Z " fill="rgb(196,194,194)"/></g><path d=" M 220.852 405.594 L 220.852 475.948 C 225.206 476.231 229.579 476.429 234.005 476.429 C 247.865 476.429 261.394 475.002 274.454 472.304 L 274.454 405.594 L 220.852 405.594 Z " fill="rgb(219,212,210)"/><g><path d=" M 274.452 405.594 L 274.452 472.304 C 281.039 470.944 287.5 469.251 293.833 467.259 L 293.833 405.597 L 274.452 405.597 L 274.452 405.594 Z " fill="rgb(196,194,194)"/><path d=" M 174.667 405.594 L 174.667 467.426 C 189.393 472.022 204.87 474.906 220.849 475.948 L 220.849 405.594 L 174.667 405.594 Z " fill="rgb(196,194,194)"/><path d=" M 291.679 391.955 L 176.823 391.955 C 170.085 391.955 164.619 395.169 164.619 399.136 C 164.619 403.103 170.085 406.314 176.823 406.314 L 291.679 406.314 C 298.417 406.314 303.883 403.103 303.883 399.136 C 303.883 395.169 298.416 391.955 291.679 391.955 Z " fill="rgb(196,194,194)"/></g><path d=" M 246.458 110.195 C 241.793 101.939 233.415 103.736 233.415 103.736 C 221.094 104.336 221.447 121.201 221.447 121.201 C 220.849 128.737 219.896 142.499 219.896 142.499 C 232.573 153.264 248.849 144.77 248.849 144.77 L 248.849 134.722 C 249.69 119.889 246.458 110.195 246.458 110.195 Z " fill="rgb(219,212,210)"/><path d=" M 245.902 122.521 C 245.902 122.521 244.856 117.752 235.579 117.517 C 235.507 117.514 234.738 117.514 234.659 117.517 C 225.387 117.752 224.343 122.521 224.343 122.521 C 223.539 127.066 225.687 135.921 225.687 135.921 L 225.687 144.654 C 225.687 144.654 228.508 150.635 235.149 150.635 C 241.793 150.635 244.565 144.654 244.565 144.654 L 244.565 135.921 C 244.56 135.919 246.706 127.067 245.902 122.521 Z " fill="rgb(196,194,194)"/><g><path d=" M 227.256 125.807 C 231.201 130.65 233.534 125.807 233.534 125.807 L 227.256 125.807 Z " fill="rgb(175,175,175)"/><path d=" M 236.946 125.807 C 236.946 125.807 239.277 130.65 243.228 125.807 L 236.946 125.807 Z " fill="rgb(175,175,175)"/></g><path d=" M 245.343 132.089 C 245.343 132.089 242.936 140.414 235.048 140.517 C 227.151 140.416 224.748 132.089 224.748 132.089 C 224.07 146.181 233.777 146.931 235.048 146.809 C 236.318 146.932 246.024 146.181 245.343 132.089 Z " fill="rgb(219,212,210)"/><g><path d=" M 237.618 132.994 C 237.52 132.818 237.304 132.755 237.131 132.853 C 235.714 133.619 234.552 132.944 234.156 132.655 L 234.967 127.116 C 234.995 126.918 234.86 126.737 234.662 126.708 C 234.427 126.692 234.285 126.818 234.254 127.013 L 233.416 132.755 C 233.399 132.875 233.441 132.991 233.529 133.073 C 233.932 133.443 234.773 133.924 235.809 133.924 C 236.328 133.924 236.893 133.801 237.474 133.484 C 237.649 133.387 237.714 133.169 237.618 132.994 Z " fill="rgb(175,175,175)"/><path d=" M 230.729 137.162 C 230.729 137.162 235.498 139.678 239.343 137.162 C 239.343 137.162 234.386 135.724 230.729 137.162 Z " fill="rgb(175,175,175)"/></g><path d=" M 226.272 136.217 L 226.234 138.221 C 226.234 138.221 234.546 135.011 244.064 138.519 L 244.095 136.515 C 234.583 133.007 226.272 136.217 226.272 136.217 Z " fill="rgb(219,212,210)"/></g></g></g></g></svg>