<svg xmlns="http://www.w3.org/2000/svg" width="19.481" height="19.481" viewBox="0 0 19.481 19.481"><g transform="translate(-1101.26 -34.259)"><circle cx="5" cy="5" r="5" transform="translate(1106 39)" fill="#fff"/><path d="M0,2.1a1,1,0,0,1-1-1V0A1,1,0,0,1,0-1,1,1,0,0,1,1,0V1.1A1,1,0,0,1,0,2.1Z" transform="translate(1111 35.259)" fill="#fff"/><path d="M0,2.1a1,1,0,0,1-1-1V0A1,1,0,0,1,0-1,1,1,0,0,1,1,0V1.1A1,1,0,0,1,0,2.1Z" transform="translate(1111 51.639)" fill="#fff"/><path d="M0,2.1a1,1,0,0,1-1-1V0A1,1,0,0,1,0-1,1,1,0,0,1,1,0V1.1A1,1,0,0,1,0,2.1Z" transform="translate(1119.74 44) rotate(90)" fill="#fff"/><path d="M0,2.1a1,1,0,0,1-1-1V0A1,1,0,0,1,0-1,1,1,0,0,1,1,0V1.1A1,1,0,0,1,0,2.1Z" transform="translate(1103.361 44) rotate(90)" fill="#fff"/><path d="M0,2.1a1,1,0,0,1-1-1V0A1,1,0,0,1,0-1,1,1,0,0,1,1,0V1.1A1,1,0,0,1,0,2.1Z" transform="translate(1117.181 50.181) rotate(135)" fill="#fff"/><path d="M0,2.1a1,1,0,0,1-1-1V0A1,1,0,0,1,0-1,1,1,0,0,1,1,0V1.1A1,1,0,0,1,0,2.1Z" transform="translate(1105.599 38.598) rotate(135)" fill="#fff"/><path d="M0,2.1a1,1,0,0,1-1-1V0A1,1,0,0,1,0-1,1,1,0,0,1,1,0V1.1A1,1,0,0,1,0,2.1Z" transform="translate(1104.819 50.181) rotate(-135)" fill="#fff"/><path d="M0,2.1a1,1,0,0,1-1-1V0A1,1,0,0,1,0-1,1,1,0,0,1,1,0V1.1A1,1,0,0,1,0,2.1Z" transform="translate(1116.401 38.599) rotate(-135)" fill="#fff"/></g></svg>