<svg width="16" height="16" viewBox="0 0 16 16" fill="none" xmlns="http://www.w3.org/2000/svg">
<path d="M3.30639 3.30651C3.37138 3.24135 3.4486 3.18966 3.5336 3.15438C3.61861 3.11911 3.70974 3.10095 3.80177 3.10095C3.8938 3.10095 3.98493 3.11911 4.06994 3.15438C4.15494 3.18966 4.23216 3.24135 4.29715 3.30651L7.99991 7.01067L11.7027 3.30651C11.7677 3.24146 11.845 3.18985 11.9299 3.15465C12.0149 3.11944 12.106 3.10132 12.198 3.10132C12.29 3.10132 12.3811 3.11944 12.4661 3.15465C12.5511 3.18985 12.6284 3.24146 12.6934 3.30651C12.7585 3.37157 12.8101 3.4488 12.8453 3.53379C12.8805 3.61879 12.8986 3.70989 12.8986 3.80189C12.8986 3.89389 12.8805 3.98499 12.8453 4.06999C12.8101 4.15499 12.7585 4.23222 12.6934 4.29727L8.98927 8.00003L12.6934 11.7028C12.7585 11.7678 12.8101 11.8451 12.8453 11.9301C12.8805 12.0151 12.8986 12.1062 12.8986 12.1982C12.8986 12.2902 12.8805 12.3813 12.8453 12.4663C12.8101 12.5513 12.7585 12.6285 12.6934 12.6936C12.6284 12.7586 12.5511 12.8102 12.4661 12.8454C12.3811 12.8806 12.29 12.8987 12.198 12.8987C12.106 12.8987 12.0149 12.8806 11.9299 12.8454C11.845 12.8102 11.7677 12.7586 11.7027 12.6936L7.99991 8.98939L4.29715 12.6936C4.2321 12.7586 4.15487 12.8102 4.06987 12.8454C3.98487 12.8806 3.89377 12.8987 3.80177 12.8987C3.70977 12.8987 3.61867 12.8806 3.53367 12.8454C3.44867 12.8102 3.37144 12.7586 3.30639 12.6936C3.24134 12.6285 3.18973 12.5513 3.15452 12.4663C3.11932 12.3813 3.1012 12.2902 3.1012 12.1982C3.1012 12.1062 3.11932 12.0151 3.15452 11.9301C3.18973 11.8451 3.24134 11.7678 3.30639 11.7028L7.01055 8.00003L3.30639 4.29727C3.24123 4.23228 3.18953 4.15507 3.15426 4.07006C3.11899 3.98506 3.10083 3.89393 3.10083 3.80189C3.10083 3.70986 3.11899 3.61873 3.15426 3.53372C3.18953 3.44872 3.24123 3.37151 3.30639 3.30651Z" fill="#209E61"/>
</svg>
