<svg xmlns="http://www.w3.org/2000/svg" width="40" height="40" viewBox="0 0 40 40"><g transform="translate(-1094 -27)"><rect width="40" height="40" rx="8" transform="translate(1094 27)" fill="rgba(32,158,97,0.1)"/><path d="M8,2A6.007,6.007,0,0,0,2,8V32a6.007,6.007,0,0,0,6,6H32a6.007,6.007,0,0,0,6-6V8a6.007,6.007,0,0,0-6-6H8M8,0H32a8,8,0,0,1,8,8V32a8,8,0,0,1-8,8H8a8,8,0,0,1-8-8V8A8,8,0,0,1,8,0Z" transform="translate(1094 27)" fill="#209e61"/><g transform="translate(1102 35)"><path d="M0,0H24V24H0Z" fill="none"/><path d="M15.5,14h-.79l-.28-.27a6.51,6.51,0,1,0-.7.7l.27.28v.79l5,4.99L20.49,19Zm-6,0A4.5,4.5,0,1,1,14,9.5,4.494,4.494,0,0,1,9.5,14Z" fill="#209e61"/></g></g></svg>