<svg xmlns="http://www.w3.org/2000/svg" width="40" height="40" viewBox="0 0 40 40"><g transform="translate(-1094 -27)"><rect width="40" height="40" rx="8" transform="translate(1094 27)" fill="rgba(32,158,97,0.1)"/><path d="M8,2A6.007,6.007,0,0,0,2,8V32a6.007,6.007,0,0,0,6,6H32a6.007,6.007,0,0,0,6-6V8a6.007,6.007,0,0,0-6-6H8M8,0H32a8,8,0,0,1,8,8V32a8,8,0,0,1-8,8H8a8,8,0,0,1-8-8V8A8,8,0,0,1,8,0Z" transform="translate(1094 27)" fill="#209e61"/><g transform="translate(1102 35)"><path d="M0,0H24V24H0Z" fill="none"/><path d="M12,6V9l4-4L12,1V4A7.986,7.986,0,0,0,5.24,16.26L6.7,14.8A5.87,5.87,0,0,1,6,12,6,6,0,0,1,12,6Zm6.76,1.74L17.3,9.2A5.99,5.99,0,0,1,12,18V15L8,19l4,4V20A7.986,7.986,0,0,0,18.76,7.74Z" fill="#209e61"/></g></g></svg>