<?xml version="1.0" encoding="utf-8"?>
<!-- Generator: Adobe Illustrator 27.3.1, SVG Export Plug-In . SVG Version: 6.00 Build 0)  -->
<svg version="1.1" id="Layer_1" xmlns="http://www.w3.org/2000/svg" xmlns:xlink="http://www.w3.org/1999/xlink" x="0px" y="0px"
	 viewBox="0 0 60 60" style="enable-background:new 0 0 60 60;" xml:space="preserve">
<style type="text/css">
	.st0{opacity:0.1;fill:#BB241F;}
	.st1{fill:none;stroke:#AB3428;stroke-width:2;}
	.st2{fill:#DD0031;}
	.st3{fill:#C3002F;}
	.st4{fill:#FFFFFF;}
</style>
<g transform="translate(-450.538 -2105)">
	<g transform="translate(450.538 2105)">
		<path class="st0" d="M8,0h44c4.4,0,8,3.6,8,8v44c0,4.4-3.6,8-8,8H8c-4.4,0-8-3.6-8-8V8C0,3.6,3.6,0,8,0z"/>
		<path class="st1" d="M8,1h44c3.9,0,7,3.1,7,7v44c0,3.9-3.1,7-7,7H8c-3.9,0-7-3.1-7-7V8C1,4.1,4.1,1,8,1z"/>
	</g>
	<g transform="translate(428.073 2082.911)">
		<path class="st2" d="M52.5,30L52.5,30l-20.6,7.3L35,64.5l17.4,9.7l0,0l17.4-9.7L73,37.3L52.5,30z"/>
		<path class="st3" d="M52.5,30v27.3l0,0v16.9l0,0l17.4-9.7L73,37.3L52.5,30z"/>
		<path class="st4" d="M52.5,34.9L39.6,63.7h4.8l2.6-6.4h10.9l2.6,6.4h4.8L52.5,34.9z M56.2,53.3h-7.5l3.8-9L56.2,53.3z"/>
	</g>
</g>
</svg>
