<?xml version="1.0" encoding="utf-8"?>
<!-- Generator: Adobe Illustrator 27.3.1, SVG Export Plug-In . SVG Version: 6.00 Build 0)  -->
<svg version="1.1" id="Layer_1" xmlns="http://www.w3.org/2000/svg" xmlns:xlink="http://www.w3.org/1999/xlink" x="0px" y="0px"
	 viewBox="0 0 60 60" style="enable-background:new 0 0 60 60;" xml:space="preserve">
<style type="text/css">
	.st0{opacity:0.1;fill:#00A759;}
	.st1{fill:none;stroke:#00A25B;stroke-width:2;}
	.st2{fill:#264DE4;}
	.st3{fill:#2965F1;}
	.st4{fill:#EBEBEB;}
	.st5{fill:#FFFFFF;}
</style>
<g transform="translate(-450.538 -2105)">
	<g transform="translate(450.538 2105)">
		<path class="st0" d="M8,0h44c4.4,0,8,3.6,8,8v44c0,4.4-3.6,8-8,8H8c-4.4,0-8-3.6-8-8V8C0,3.6,3.6,0,8,0z"/>
		<path class="st1" d="M8,1h44c3.9,0,7,3.1,7,7v44c0,3.9-3.1,7-7,7H8c-3.9,0-7-3.1-7-7V8C1,4.1,4.1,1,8,1z"/>
	</g>
	<g transform="translate(294.828 1842.73)">
		<g transform="translate(170.062 270.181)">
			<path class="st2" d="M15.6,44.2L2.8,40.6L0,8.7h31.3l-2.9,31.9L15.6,44.2z"/>
			<path class="st3" d="M26,38.6l2.4-27.3H15.6v30.2L26,38.6z"/>
			<path class="st4" d="M6.5,23.1l0.4,3.9h8.8v-3.9H6.5z"/>
			<path class="st4" d="M5.8,15.2l0.4,3.9h9.5v-3.9H5.8z"/>
			<path class="st4" d="M15.6,33.3L15.6,33.3l-4.4-1.2L11,29H7.1l0.5,6.2l8,2.2l0,0V33.3z"/>
			<path d="M7.4,0h4.7v2H9.4v2h2.8v2H7.4V0z"/>
			<path d="M13.1,0h4.7v1.7H15v0.3h2.8v4h-4.7V4.2h2.8V3.9h-2.8V0z"/>
			<path d="M18.8,0h4.7v1.7h-2.8v0.3h2.8v4h-4.7V4.2h2.8V3.9h-2.8V0z"/>
			<path class="st5" d="M24.7,23.1l0.7-7.9h-9.8v3.9h5.5l-0.4,4h-5.2v3.9h4.8L20,32.1l-4.4,1.2v4.1l8-2.2l0.1-0.7l0.9-10.3
				L24.7,23.1z"/>
		</g>
	</g>
</g>
</svg>
