<svg width="60" height="60" viewBox="0 0 60 60" fill="none" xmlns="http://www.w3.org/2000/svg">
<rect width="60" height="60" rx="8" fill="#1E1E1E"/>
<g clip-path="url(#clip0_1_136)">
<path d="M30 30C30 27.9667 30.7902 26.0166 32.1967 24.5789C33.6032 23.1411 35.5109 22.3333 37.5 22.3333C39.4891 22.3333 41.3968 23.1411 42.8033 24.5789C44.2098 26.0166 45 27.9667 45 30C45 32.0333 44.2098 33.9834 42.8033 35.4212C41.3968 36.8589 39.4891 37.6667 37.5 37.6667C35.5109 37.6667 33.6032 36.8589 32.1967 35.4212C30.7902 33.9834 30 32.0333 30 30V30Z" fill="#1ABCFE"/>
<path d="M15 45.3333C15 43.3 15.7902 41.35 17.1967 39.9122C18.6032 38.4744 20.5109 37.6667 22.5 37.6667H30V45.3333C30 47.3666 29.2098 49.3167 27.8033 50.7545C26.3968 52.1923 24.4891 53 22.5 53C20.5109 53 18.6032 52.1923 17.1967 50.7545C15.7902 49.3167 15 47.3666 15 45.3333V45.3333Z" fill="#0ACF83"/>
<path d="M30 7V22.3333H37.5C39.4891 22.3333 41.3968 21.5256 42.8033 20.0878C44.2098 18.65 45 16.7 45 14.6667C45 12.6333 44.2098 10.6833 42.8033 9.24551C41.3968 7.80774 39.4891 7 37.5 7L30 7Z" fill="#FF7262"/>
<path d="M15 14.6667C15 16.7 15.7902 18.65 17.1967 20.0878C18.6032 21.5256 20.5109 22.3333 22.5 22.3333H30V7H22.5C20.5109 7 18.6032 7.80774 17.1967 9.24551C15.7902 10.6833 15 12.6333 15 14.6667V14.6667Z" fill="#F24E1E"/>
<path d="M15 30C15 32.0333 15.7902 33.9834 17.1967 35.4212C18.6032 36.8589 20.5109 37.6667 22.5 37.6667H30V22.3333H22.5C20.5109 22.3333 18.6032 23.1411 17.1967 24.5789C15.7902 26.0166 15 27.9667 15 30V30Z" fill="#A259FF"/>
</g>
<defs>
<clipPath id="clip0_1_136">
<rect width="30" height="46" fill="white" transform="translate(15 7)"/>
</clipPath>
</defs>
</svg>
