<?xml version="1.0" encoding="utf-8"?>
<!-- Generator: Adobe Illustrator 27.3.1, SVG Export Plug-In . SVG Version: 6.00 Build 0)  -->
<svg version="1.1" id="a" xmlns="http://www.w3.org/2000/svg" xmlns:xlink="http://www.w3.org/1999/xlink" x="0px" y="0px"
	 viewBox="0 0 60 60" style="enable-background:new 0 0 60 60;" xml:space="preserve">
<style type="text/css">
	.st0{opacity:0.1;fill:#BB241F;}
	.st1{fill:#AB3428;}
	.st2{clip-path:url(#SVGID_00000053528418065951020440000005131313145407851434_);}
	.st3{fill:#54C5F8;}
	.st4{clip-path:url(#SVGID_00000150089769197572697850000004971317648636915092_);}
	.st5{clip-path:url(#SVGID_00000071541931834052089300000004682570439498518664_);}
	.st6{fill:#01579B;}
	.st7{clip-path:url(#SVGID_00000037664353766121163450000001237372237954803105_);}
	.st8{fill:url(#SVGID_00000130621390969921421020000015756802247008244643_);}
	.st9{clip-path:url(#SVGID_00000147920572280712934350000016111407863795267212_);}
	.st10{fill:#29B6F6;}
	.st11{fill:url(#SVGID_00000096759425645281094110000002840226337786213275_);}
</style>
<g>
	<path class="st0" d="M8.3,1h43.4c4,0,7.3,3.3,7.3,7.3v43.4c0,4-3.3,7.3-7.3,7.3H8.3c-4,0-7.3-3.3-7.3-7.3V8.3C1,4.3,4.3,1,8.3,1z"
		/>
	<path class="st1" d="M51.7,2C55.2,2,58,4.8,58,8.3v43.4c0,3.5-2.8,6.3-6.3,6.3H8.3C4.8,58,2,55.2,2,51.7V8.3C2,4.8,4.8,2,8.3,2
		L51.7,2 M51.7,0H8.3C3.7,0,0,3.7,0,8.3v43.4C0,56.3,3.7,60,8.3,60h43.4c4.6,0,8.3-3.7,8.3-8.3V8.3C60,3.7,56.3,0,51.7,0
		C51.7,0,51.7,0,51.7,0z"/>
</g>
<g>
	<defs>
		<path id="SVGID_1_" d="M44.2,28.6l-9.5,9.5l9.5,9.5H33.4l-4.1-4.1l0,0l-5.4-5.4l9.5-9.5H44.2z M33.4,12.4L15.8,30l5.4,5.4
			l23.1-23.1C44.2,12.4,33.4,12.4,33.4,12.4z"/>
	</defs>
	<clipPath id="SVGID_00000127044601179549179650000014500619691031495090_">
		<use xlink:href="#SVGID_1_"  style="overflow:visible;"/>
	</clipPath>
	<g style="clip-path:url(#SVGID_00000127044601179549179650000014500619691031495090_);">
		<g>
			
				<image style="overflow:visible;opacity:0.2;enable-background:new    ;" width="123" height="99" xlink:href="473BA9ED9F59BAD5.png"  transform="matrix(0.2 0 0 0.2 22.62 27.04)">
			</image>
			<polygon class="st3" points="44.2,28.6 44.2,28.6 44.2,28.6 33.4,28.6 23.9,38.1 29.3,43.6 			"/>
		</g>
	</g>
</g>
<g>
	<defs>
		<path id="SVGID_00000046340839107028801650000014552010949728117182_" d="M44.2,28.6l-9.5,9.5l9.5,9.5H33.4l-4.1-4.1l0,0l-5.4-5.4
			l9.5-9.5H44.2z M33.4,12.4L15.8,30l5.4,5.4l23.1-23.1C44.2,12.4,33.4,12.4,33.4,12.4z"/>
	</defs>
	<clipPath id="SVGID_00000138550262762341428200000010653026437367730595_">
		<use xlink:href="#SVGID_00000046340839107028801650000014552010949728117182_"  style="overflow:visible;"/>
	</clipPath>
	<g style="clip-path:url(#SVGID_00000138550262762341428200000010653026437367730595_);">
		<polygon class="st3" points="21.2,35.4 15.8,30 33.4,12.4 44.2,12.4 		"/>
	</g>
</g>
<g>
	<defs>
		<path id="SVGID_00000099632597519172907550000003941417307715837319_" d="M44.2,28.6l-9.5,9.5l9.5,9.5H33.4l-4.1-4.1l0,0l-5.4-5.4
			l9.5-9.5H44.2z M33.4,12.4L15.8,30l5.4,5.4l23.1-23.1C44.2,12.4,33.4,12.4,33.4,12.4z"/>
	</defs>
	<clipPath id="SVGID_00000101803675610756606460000008230993520469042865_">
		<use xlink:href="#SVGID_00000099632597519172907550000003941417307715837319_"  style="overflow:visible;"/>
	</clipPath>
	<g style="clip-path:url(#SVGID_00000101803675610756606460000008230993520469042865_);">
		<polygon class="st6" points="29.3,43.6 33.4,47.6 44.2,47.6 44.2,47.6 34.8,38.1 		"/>
	</g>
</g>
<g>
	<defs>
		<path id="SVGID_00000087396197062799825450000010054930070334127794_" d="M44.2,28.6l-9.5,9.5l9.5,9.5H33.4l-4.1-4.1l0,0l-5.4-5.4
			l9.5-9.5H44.2z M33.4,12.4L15.8,30l5.4,5.4l23.1-23.1C44.2,12.4,33.4,12.4,33.4,12.4z"/>
	</defs>
	<clipPath id="SVGID_00000072258594634596853500000003745666090539009689_">
		<use xlink:href="#SVGID_00000087396197062799825450000010054930070334127794_"  style="overflow:visible;"/>
	</clipPath>
	<g style="clip-path:url(#SVGID_00000072258594634596853500000003745666090539009689_);">
		
			<linearGradient id="SVGID_00000017482128991852088930000008955425419128985533_" gradientUnits="userSpaceOnUse" x1="7341.6099" y1="7523.1597" x2="7357.7798" y2="7506.9897" gradientTransform="matrix(0.25 0 0 0.25 -1804.5 -1836.1724)">
			<stop  offset="0" style="stop-color:#1A237E;stop-opacity:0.4"/>
			<stop  offset="1" style="stop-color:#1A237E;stop-opacity:0"/>
		</linearGradient>
		<polygon style="fill:url(#SVGID_00000017482128991852088930000008955425419128985533_);" points="29.3,43.6 37.4,40.8 34.8,38.1 
					"/>
	</g>
</g>
<g>
	<defs>
		<path id="SVGID_00000051351853529256578730000004632058650445059459_" d="M44.2,28.6l-9.5,9.5l9.5,9.5H33.4l-4.1-4.1l0,0l-5.4-5.4
			l9.5-9.5H44.2z M33.4,12.4L15.8,30l5.4,5.4l23.1-23.1C44.2,12.4,33.4,12.4,33.4,12.4z"/>
	</defs>
	<clipPath id="SVGID_00000029751958099226758300000002415327432955112105_">
		<use xlink:href="#SVGID_00000051351853529256578730000004632058650445059459_"  style="overflow:visible;"/>
	</clipPath>
	<g style="clip-path:url(#SVGID_00000029751958099226758300000002415327432955112105_);">
		
			<rect x="25.5" y="34.3" transform="matrix(0.7071 -0.7071 0.7071 0.7071 -18.3857 31.9063)" class="st10" width="7.7" height="7.7"/>
	</g>
</g>
<radialGradient id="SVGID_00000039102120338205009890000017366607352396572086_" cx="7284.21" cy="7403.7495" r="172.67" gradientTransform="matrix(0.25 0 0 0.25 -1804.5 -1836.1724)" gradientUnits="userSpaceOnUse">
	<stop  offset="0" style="stop-color:#FFFFFF;stop-opacity:0.1"/>
	<stop  offset="1" style="stop-color:#FFFFFF;stop-opacity:0"/>
</radialGradient>
<path style="fill:url(#SVGID_00000039102120338205009890000017366607352396572086_);" d="M44.2,28.6l-9.5,9.5l9.5,9.5H33.4l-4.1-4.1
	l0,0l-5.4-5.4l9.5-9.5H44.2z M33.4,12.4L15.8,30l5.4,5.4l23.1-23.1C44.2,12.4,33.4,12.4,33.4,12.4z"/>
</svg>
