<svg xmlns="http://www.w3.org/2000/svg" width="60" height="60" viewBox="0 0 60 60"><g transform="translate(-450.538 -2105)"><rect width="60" height="60" rx="8" transform="translate(450.538 2105)" fill="#24292f"/><path d="M22.467,0a22.656,22.656,0,0,0-7.1,44.105c1.116.225,1.525-.487,1.525-1.086,0-.525-.037-2.323-.037-4.2-6.25,1.349-7.551-2.7-7.551-2.7-1-2.623-2.493-3.3-2.493-3.3-2.046-1.387.149-1.387.149-1.387a4.711,4.711,0,0,1,3.46,2.323c2.008,3.447,5.244,2.473,6.546,1.874A4.822,4.822,0,0,1,18.375,32.6c-4.985-.525-10.229-2.473-10.229-11.167a8.861,8.861,0,0,1,2.306-6.07,8.233,8.233,0,0,1,.224-6s1.9-.6,6.174,2.323a21.418,21.418,0,0,1,11.233,0c4.278-2.923,6.175-2.323,6.175-2.323a8.231,8.231,0,0,1,.223,6,8.691,8.691,0,0,1,2.306,6.07c0,8.694-5.244,10.6-10.266,11.167a5.375,5.375,0,0,1,1.525,4.2c0,3.035-.037,5.471-.037,6.22,0,.6.409,1.312,1.525,1.087A22.657,22.657,0,0,0,22.467,0Z" transform="translate(458.09 2112.926)" fill="#fff" fill-rule="evenodd"/></g></svg>