<?xml version="1.0" encoding="utf-8"?>
<!-- Generator: Adobe Illustrator 27.3.1, SVG Export Plug-In . SVG Version: 6.00 Build 0)  -->
<svg version="1.1" id="Layer_1" xmlns="http://www.w3.org/2000/svg" xmlns:xlink="http://www.w3.org/1999/xlink" x="0px" y="0px"
	 viewBox="0 0 60 60" style="enable-background:new 0 0 60 60;" xml:space="preserve">
<style type="text/css">
	.st0{opacity:0.1;fill:#209E61;}
	.st1{fill:none;stroke:#209E61;stroke-width:2;}
	.st2{fill:#E44D26;}
	.st3{fill:#F16529;}
	.st4{fill:#EBEBEB;}
	.st5{fill:#FFFFFF;}
</style>
<g transform="translate(-450.538 -2105)">
	<g transform="translate(450.538 2105)">
		<path class="st0" d="M8,0h44c4.4,0,8,3.6,8,8v44c0,4.4-3.6,8-8,8H8c-4.4,0-8-3.6-8-8V8C0,3.6,3.6,0,8,0z"/>
		<path class="st1" d="M8,1h44c3.9,0,7,3.1,7,7v44c0,3.9-3.1,7-7,7H8c-3.9,0-7-3.1-7-7V8C1,4.1,4.1,1,8,1z"/>
	</g>
	<g transform="translate(244.604 1842.73)">
		<g transform="translate(220.285 270.181)">
			<path class="st2" d="M31.3,8.7l-2.9,31.9l-12.8,3.6L2.8,40.6L0,8.7H31.3z"/>
			<path class="st3" d="M15.6,41.5L26,38.6l2.4-27.3H15.6V41.5z"/>
			<path class="st4" d="M10.1,19.1h5.5v-3.9H5.8l0.1,1.1l1,10.8h8.8v-3.9h-5.2L10.1,19.1z"/>
			<path class="st4" d="M11,29H7.1l0.5,6.2l8,2.2l0,0v-4.1h0l-4.4-1.2L11,29z"/>
			<path d="M2.9,0h2v2h1.8V0h2v6h-2V4H4.9v2h-2V0z"/>
			<path d="M11.3,2H9.6V0h5.5v2h-1.8v4h-2L11.3,2L11.3,2z"/>
			<path d="M16,0H18l1.3,2.1L20.6,0h2.1v6h-2V3l-1.4,2.1h0L17.9,3v3H16L16,0z"/>
			<path d="M23.6,0h2v4h2.8v2h-4.8V0z"/>
			<path class="st5" d="M15.6,27.1h4.8L20,32.1l-4.4,1.2v4.1l8-2.2l0.1-0.7l0.9-10.3l0.1-1.1h-9.1L15.6,27.1z"/>
			<path class="st5" d="M15.6,19.1L15.6,19.1l9.5,0l0.1-0.9l0.2-2l0.1-1.1h-9.8L15.6,19.1L15.6,19.1z"/>
		</g>
	</g>
</g>
</svg>
