<svg xmlns="http://www.w3.org/2000/svg" width="60" height="60" viewBox="0 0 60 60"><g transform="translate(-450.538 -2105)"><rect width="60" height="60" rx="8" transform="translate(450.538 2105)" fill="#320000"/><g transform="translate(450.539 2105.751)"><path d="M10.625,0H49.374A10.616,10.616,0,0,1,60,10.625V47.874A10.616,10.616,0,0,1,49.374,58.5H10.625A10.616,10.616,0,0,1,0,47.874V10.625A10.616,10.616,0,0,1,10.625,0Z" fill="#300"/><path d="M65.967,73.925h-9.3l-1.9,5.875a.438.438,0,0,1-.475.35h-4.7c-.275,0-.35-.15-.275-.45l8.05-23.174c.075-.25.15-.525.25-.825a8.732,8.732,0,0,0,.15-1.625.248.248,0,0,1,.2-.275h6.475c.2,0,.3.075.325.2l9.125,25.749c.075.275,0,.4-.25.4H68.417a.377.377,0,0,1-.4-.275Zm-7.85-5.075h6.35c-.15-.525-.35-1.15-.575-1.8-.225-.675-.45-1.4-.675-2.15-.25-.775-.475-1.525-.725-2.3s-.475-1.5-.675-2.225c-.2-.7-.375-1.35-.55-1.95h-.05a30.7,30.7,0,0,1-.85,3.225c-.375,1.2-.75,2.45-1.15,3.7-.35,1.275-.725,2.45-1.1,3.5Zm21.35-10.675a3.094,3.094,0,0,1-2.225-.875,3.248,3.248,0,0,1-.85-2.3,2.941,2.941,0,0,1,.9-2.225,3.2,3.2,0,0,1,2.225-.875,2.994,2.994,0,0,1,2.275.875,3.437,3.437,0,0,1-.05,4.525,2.94,2.94,0,0,1-2.275.875Zm-2.8,21.7V60.625c0-.25.1-.35.325-.35h4.95c.225,0,.325.125.325.35v19.25c0,.275-.1.4-.325.4h-4.9A.35.35,0,0,1,76.667,79.874Z" transform="translate(-36.968 -38.925)" fill="#ff9a00"/></g></g></svg>