<svg xmlns="http://www.w3.org/2000/svg" width="32" height="32" viewBox="0 0 32 32"><path d="M32,2.353V29.647A2.353,2.353,0,0,1,29.647,32H2.353A2.353,2.353,0,0,1,0,29.647V2.353A2.353,2.353,0,0,1,2.353,0H29.647A2.353,2.353,0,0,1,32,2.353ZM9.412,12.235H4.706V27.294H9.412Zm.424-5.176A2.711,2.711,0,0,0,7.144,4.329H7.059a2.729,2.729,0,1,0,0,5.459h0A2.711,2.711,0,0,0,9.835,7.144ZM27.294,18.146c0-4.527-2.88-6.287-5.741-6.287a5.365,5.365,0,0,0-4.762,2.428h-.132V12.235H12.235V27.294h4.706V19.285a3.125,3.125,0,0,1,2.824-3.369h.179c1.5,0,2.607.941,2.607,3.313v8.066h4.706Z" fill="#fff"/></svg>