<svg width="32" height="32" viewBox="0 0 32 32" fill="none" xmlns="http://www.w3.org/2000/svg">
<path fill-rule="evenodd" clip-rule="evenodd" d="M16 32C7.16344 32 0 24.8366 0 16C0 7.16344 7.16344 0 16 0C24.8366 0 32 7.16344 32 16C32 24.8366 24.8366 32 16 32ZM19.0656 17.2608C19.3984 17.8048 20.6016 19.2064 22.4192 19.2064C24.064 19.2064 25.344 17.888 25.344 15.968C25.344 14.048 24.064 12.7296 22.4192 12.7296C20.7552 12.7296 19.4944 13.8176 19.0656 17.2608ZM17.3248 14.528C17.7984 12.544 19.456 10.6112 22.4192 10.6112C25.3568 10.6112 27.6992 12.9152 27.6992 15.9808C27.6992 19.0464 25.3632 21.3184 22.4256 21.3184C22.3864 21.3184 22.3488 21.3167 22.3121 21.3151C22.2769 21.3135 22.2424 21.312 22.208 21.312H22.2016C21.2544 21.28 20.3328 20.992 19.5328 20.4864C19.2256 20.3072 18.9376 20.096 18.6624 19.872L17.824 24.9792H15.424L16.6848 17.7664C15.328 15.8656 14.624 13.7024 14.3232 12.576V16C14.3232 19.1296 12.3392 21.312 9.4912 21.312C8.0576 21.312 6.8224 20.7872 5.92 19.7952C5.0432 18.8352 4.5632 17.4848 4.5632 16V10.9056H6.9248L6.9056 16C6.9056 17.8496 7.8464 19.2128 9.4976 19.2128C11.1488 19.2128 11.9872 17.8496 11.9872 16V10.8992H14.144H16.0768C16.3904 12.16 16.7872 13.5168 17.3248 14.528Z" fill="white"/>
</svg>
