<?xml version="1.0" encoding="utf-8"?>
<!-- Generator: Adobe Illustrator 27.3.1, SVG Export Plug-In . SVG Version: 6.00 Build 0)  -->
<svg version="1.1" id="Layer_1" xmlns="http://www.w3.org/2000/svg" xmlns:xlink="http://www.w3.org/1999/xlink" x="0px" y="0px"
	 viewBox="0 0 60 60" style="enable-background:new 0 0 60 60;" xml:space="preserve">
<style type="text/css">
	.st0{opacity:0.1;}
	.st1{fill:#9D87EE;}
	.st2{fill:#9D87EE;stroke:#998DEB;stroke-width:2;}
	.st3{fill:none;}
	.st4{fill:none;stroke:#998DEB;stroke-width:2;}
	.st5{fill:#FFFFFF;}
	.st6{fill-rule:evenodd;clip-rule:evenodd;}
</style>
<g transform="translate(-450.538 -2105)">
	<g transform="translate(450.538 2105)" class="st0">
		<path class="st1" d="M8,0h44c4.4,0,8,3.6,8,8v44c0,4.4-3.6,8-8,8H8c-4.4,0-8-3.6-8-8V8C0,3.6,3.6,0,8,0z"/>
		<path class="st2" d="M8,1h44c3.9,0,7,3.1,7,7v44c0,3.9-3.1,7-7,7H8c-3.9,0-7-3.1-7-7V8C1,4.1,4.1,1,8,1z"/>
	</g>
	<g transform="translate(450.538 2105)">
		<path class="st3" d="M8,0h44c4.4,0,8,3.6,8,8v44c0,4.4-3.6,8-8,8H8c-4.4,0-8-3.6-8-8V8C0,3.6,3.6,0,8,0z"/>
		<path class="st4" d="M8,1h44c3.9,0,7,3.1,7,7v44c0,3.9-3.1,7-7,7H8c-3.9,0-7-3.1-7-7V8C1,4.1,4.1,1,8,1z"/>
	</g>
	<g transform="translate(459.396 2112.912)">
		<path class="st5" d="M2.7,1.9l24.4-1.8c3-0.3,3.8-0.1,5.7,1.3l7.8,5.5c1.3,0.9,1.7,1.2,1.7,2.2v30.1c0,1.9-0.7,3-3.1,3.2
			l-28.4,1.7C9,44.2,8.1,44,7.2,42.8l-5.8-7.5c-0.9-1-1.4-2.3-1.5-3.6V4.9c-0.2-1.5,0.9-2.8,2.4-3C2.5,1.9,2.6,1.9,2.7,1.9L2.7,1.9z
			"/>
		<path class="st6" d="M27.1,0.1L2.7,1.9C1.2,1.9,0,3.1,0,4.6c0,0.1,0,0.2,0,0.3v26.8c0.1,1.3,0.6,2.6,1.5,3.6l5.7,7.5
			c0.9,1.2,1.8,1.5,3.6,1.4l28.4-1.7c2.4-0.2,3.1-1.3,3.1-3.2V9.1c0-1-0.4-1.3-1.5-2.1l-8-5.6C30.9,0,30.1-0.2,27.1,0.1z M11.5,8.6
			C9.1,8.8,8.6,8.8,7.3,7.7L3.9,5.1C3.6,4.7,3.8,4.3,4.6,4.2l23.5-1.7c1.4-0.2,2.7,0.2,3.8,1.1l4,2.9c0.2,0.1,0.6,0.6,0.1,0.6
			L11.8,8.6L11.5,8.6L11.5,8.6z M8.8,39V13.4c0-1.1,0.3-1.6,1.4-1.7L38,10.1c0.9-0.1,1.4,0.5,1.4,1.6v25.4c0,1.1-0.2,2.1-1.7,2.1
			L11,40.8C9.4,40.9,8.7,40.4,8.8,39L8.8,39z M35.1,14.8c0.2,0.8,0,1.5-0.8,1.6L33,16.7v18.9c-0.9,0.5-1.9,0.9-3,0.9
			c-1.4,0-1.7-0.4-2.7-1.7l-8.4-13.2v12.8l2.7,0.6c0,0,0,1.5-2.1,1.5l-5.9,0.3c-0.2-0.5,0.1-1.1,0.6-1.4l1.5-0.4V18.1L13.5,18
			c-0.2-0.9,0.3-1.7,1.2-1.9c0.1,0,0.2,0,0.3,0l6.3-0.4L30,29V17.1l-2.2-0.3c-0.1-0.8,0.4-1.5,1.2-1.7c0.1,0,0.1,0,0.2,0L35.1,14.8
			L35.1,14.8z"/>
	</g>
</g>
</svg>
