<svg xmlns="http://www.w3.org/2000/svg" width="60" height="60" viewBox="0 0 60 60"><g transform="translate(-450.538 -2105)"><rect width="60" height="60" rx="8" transform="translate(450.538 2105)" fill="#001d36"/><g transform="translate(450.539 2105.75)"><path d="M10.625,0h38.75A10.616,10.616,0,0,1,60,10.625v37.25A10.616,10.616,0,0,1,49.375,58.5H10.625A10.616,10.616,0,0,1,0,47.875V10.625A10.616,10.616,0,0,1,10.625,0Z" fill="#001e36"/><g transform="translate(13.5 14.875)"><path d="M54,85.65V59.925c0-.175.075-.275.25-.275.425,0,.825,0,1.4-.025.6-.025,1.225-.025,1.9-.05s1.4-.025,2.175-.05S61.25,59.5,62,59.5a14.7,14.7,0,0,1,5.15.775,8.928,8.928,0,0,1,3.35,2.05,7.96,7.96,0,0,1,1.825,2.85,9.569,9.569,0,0,1,.575,3.25,8.938,8.938,0,0,1-1.5,5.325,8.565,8.565,0,0,1-4.025,3.05,16.2,16.2,0,0,1-5.625.85c-.6,0-1,0-1.25-.025s-.6-.025-1.075-.025v8.025a.311.311,0,0,1-.275.35H54.3C54.1,85.975,54,85.875,54,85.65Zm5.45-21.175v8.4c.35.025.675.05.975.05H61.75a9.338,9.338,0,0,0,2.875-.45,4.3,4.3,0,0,0,2.05-1.325,3.863,3.863,0,0,0,.775-2.575,4.115,4.115,0,0,0-.575-2.225,3.625,3.625,0,0,0-1.75-1.425,7.336,7.336,0,0,0-2.95-.5c-.65,0-1.225,0-1.7.025a5.724,5.724,0,0,0-1.025.025Z" transform="translate(-54 -59.5)" fill="#31a8ff"/><path d="M153.215,89.95a8.848,8.848,0,0,0-2.4-.85,13.179,13.179,0,0,0-2.8-.325,5.034,5.034,0,0,0-1.5.175,1.284,1.284,0,0,0-.775.5,1.325,1.325,0,0,0-.2.675,1.112,1.112,0,0,0,.25.65,2.821,2.821,0,0,0,.85.675c.575.3,1.175.575,1.775.825a18.107,18.107,0,0,1,3.85,1.825,5.817,5.817,0,0,1,1.975,2.075,5.4,5.4,0,0,1,.575,2.575,5.817,5.817,0,0,1-.975,3.325,6.265,6.265,0,0,1-2.8,2.225,11.455,11.455,0,0,1-4.525.8,17.221,17.221,0,0,1-3.4-.325,10.084,10.084,0,0,1-2.55-.8.492.492,0,0,1-.275-.475V99.15a.271.271,0,0,1,.1-.225.19.19,0,0,1,.225.025,10.7,10.7,0,0,0,3.1,1.225,11.639,11.639,0,0,0,2.95.375,4.772,4.772,0,0,0,2.075-.35,1.161,1.161,0,0,0,.675-1.05,1.325,1.325,0,0,0-.6-1,10.6,10.6,0,0,0-2.45-1.175,15.3,15.3,0,0,1-3.55-1.8,6.473,6.473,0,0,1-1.9-2.125,5.364,5.364,0,0,1-.575-2.55,5.88,5.88,0,0,1,.85-3.025,6.163,6.163,0,0,1,2.625-2.3,9.694,9.694,0,0,1,4.425-.875,21.552,21.552,0,0,1,3.1.225,8.8,8.8,0,0,1,2.15.575.439.439,0,0,1,.25.225,1.254,1.254,0,0,1,.05.3V89.7a.308.308,0,0,1-.125.25A.666.666,0,0,1,153.215,89.95Z" transform="translate(-118.715 -78.1)" fill="#31a8ff"/></g></g></g></svg>