<svg xmlns="http://www.w3.org/2000/svg" width="60" height="60" viewBox="0 0 60 60"><path d="M8.3,1H51.7A7.341,7.341,0,0,1,59,8.3V51.7A7.341,7.341,0,0,1,51.7,59H8.3A7.341,7.341,0,0,1,1,51.7V8.3A7.341,7.341,0,0,1,8.3,1Z" fill="#515d8c"/><path d="M51.7,2A6.274,6.274,0,0,1,58,8.3V51.7A6.274,6.274,0,0,1,51.7,58H8.3A6.274,6.274,0,0,1,2,51.7V8.3A6.274,6.274,0,0,1,8.3,2H51.7m0-2H8.3A8.28,8.28,0,0,0,0,8.3V51.7A8.28,8.28,0,0,0,8.3,60H51.7A8.28,8.28,0,0,0,60,51.7V8.3A8.28,8.28,0,0,0,51.7,0Z" fill="#515d8c"/><g transform="translate(7.8 21.836)"><path d="M6.62,5.91a2.779,2.779,0,0,1,2.064.571A2.264,2.264,0,0,1,8.93,8.444a3.287,3.287,0,0,1-1.086,2.067A3.99,3.99,0,0,1,5.4,11.13H3.744L4.758,5.91ZM0,16.414H2.717L3.362,13.1H5.689a8.334,8.334,0,0,0,2.535-.324,4.8,4.8,0,0,0,1.808-1.085,5.418,5.418,0,0,0,1.706-3.055,3.883,3.883,0,0,0-.65-3.455A4.339,4.339,0,0,0,7.649,3.942H2.424L0,16.414M13.734.626h2.7l-.644,3.316h2.4a4.676,4.676,0,0,1,3.127.791,2.615,2.615,0,0,1,.516,2.562L20.7,13.1H17.963L19.035,7.58A1.5,1.5,0,0,0,18.9,6.3a1.894,1.894,0,0,0-1.352-.343H15.394L14.005,13.1h-2.7L13.734.626M27.827,5.91a2.779,2.779,0,0,1,2.064.571,2.264,2.264,0,0,1,.246,1.962,3.287,3.287,0,0,1-1.086,2.067,3.99,3.99,0,0,1-2.448.619H24.951l1.014-5.22Zm-6.62,10.5h2.717l.644-3.316H26.9a8.334,8.334,0,0,0,2.535-.324,4.8,4.8,0,0,0,1.808-1.085,5.417,5.417,0,0,0,1.706-3.055,3.883,3.883,0,0,0-.65-3.455,4.34,4.34,0,0,0-3.439-1.237H23.631L21.207,16.414" transform="translate(0 -0.156)" fill="#fff"/><path d="M297.615,6.239c-.733-1.764-1.366-3.287-.747-4.352a.974.974,0,0,1,.781-.487,1.794,1.794,0,0,1,1.115.641l.739.9-.462-1.066C299.007,1.8,298.212,0,296.786,0a2.344,2.344,0,0,0-1.518.667l-.016.016c-1.233,1.425-.021,4.116,1.049,6.49l0,.006.794,1.845h0a5.249,5.249,0,0,1,.5,2.9,4.672,4.672,0,0,1-1.5,2.193l-.744.57.893-.283A4.038,4.038,0,0,0,298.8,12a7.42,7.42,0,0,0-.458-3.92c.049-.041-.051.043,0,0l-.693-1.773" transform="translate(-256.522)" fill="#fff"/><path d="M266.692,2.608l-.925-1.01.661,1.2a3.489,3.489,0,0,1-.2,3.268,7.449,7.449,0,0,1-1.7,1.636l-1.344.863c-.014-.032-.007-.016,0,0l-.047.034h0a22.246,22.246,0,0,1-2.9,1.388c-2.067.92-3.355,2.352-3.534,3.93a3.471,3.471,0,0,0,1.5,3.174l.014.01a4.229,4.229,0,0,0,2.2.619,6.125,6.125,0,0,0,3.7-1.472l.992-.894-1.179.627a4.952,4.952,0,0,1-2.018.521,2.014,2.014,0,0,1-1.958-1.213c-.49-1.744,1.229-2.934,3.219-4.311.264-.183.536-.371.806-.563,0,0,.015-.015.017-.011l1.178-.875c.018-.028.048-.049.046-.054a6.611,6.611,0,0,0,2.556-3.822,4.2,4.2,0,0,0-1.083-3.045Z" transform="translate(-223.403 -1.391)" fill="#0f0f0f"/></g></svg>