<svg xmlns="http://www.w3.org/2000/svg" width="60" height="60" viewBox="0 0 60 60"><g transform="translate(-450.538 -2105)"><rect width="60" height="60" rx="8" transform="translate(450.538 2105)" fill="#cb6499"/><g transform="translate(458.45 2112.912)"><path d="M22.088,0A22.088,22.088,0,1,1,0,22.088,22.089,22.089,0,0,1,22.088,0Z" fill="#c69" fill-rule="evenodd"/><path d="M102.746,54.019c-1-3.923-7.5-5.212-13.661-3.026A30.942,30.942,0,0,0,78.6,57.006c-3.391,3.172-3.932,5.932-3.708,7.085.786,4.07,6.363,6.731,8.655,8.7v.012c-.676.332-5.623,2.836-6.781,5.4-1.221,2.7.195,4.638,1.132,4.9a6.947,6.947,0,0,0,7.488-3.035,7.609,7.609,0,0,0,.745-6.765,8.909,8.909,0,0,1,3.38-.194c3.875.453,4.635,2.872,4.49,3.885a2.553,2.553,0,0,1-1.23,1.737c-.272.168-.355.227-.332.352.033.182.159.175.39.135a3.022,3.022,0,0,0,2.108-2.692c.094-2.373-2.18-5.028-6.207-4.958a10.635,10.635,0,0,0-3.455.467c-.056-.063-.112-.127-.171-.189-2.489-2.656-7.091-4.534-6.9-8.1.071-1.3.523-4.716,8.842-8.862,6.816-3.4,12.272-2.461,13.215-.39,1.347,2.959-2.916,8.458-9.994,9.252-2.7.3-4.117-.743-4.469-1.132-.372-.41-.427-.428-.567-.352-.226.126-.083.487,0,.7A4.193,4.193,0,0,0,87.8,64.971a13.559,13.559,0,0,0,8.3-.819c4.288-1.659,7.637-6.274,6.653-10.13ZM84.5,74.011a5.65,5.65,0,0,1-.046,3.3c-.037.112-.077.221-.121.331s-.091.216-.143.323a6.177,6.177,0,0,1-1.02,1.487c-1.284,1.4-3.076,1.93-3.845,1.484-.83-.482-.414-2.456,1.073-4.028a14.957,14.957,0,0,1,3.9-2.78l0-.006.2-.11Z" transform="translate(-66.803 -44.565)" fill="#fff"/></g></g></svg>