<svg xmlns="http://www.w3.org/2000/svg" width="60" height="60" viewBox="0 0 60 60"><g transform="translate(-450.538 -2105)"><rect width="60" height="60" rx="8" transform="translate(450.538 2105)"/><g transform="translate(458.428 2117.156)"><path d="M16.278,19.378l14.011-14a5.051,5.051,0,0,1,7.125,0L38.5,6.47l2.183-2.183L39.6,3.194a8.144,8.144,0,0,0-11.505,0l-14,14Z" transform="translate(-7.087 -0.41)" fill="#fff"/><path d="M27.9,9.581,25.712,7.4,11.7,21.414a5.047,5.047,0,0,1-7.135-7.14L16.653,2.183,14.471,0,2.379,12.092A8.134,8.134,0,1,0,13.88,23.6Zm13.951,2.511a8.149,8.149,0,0,0-11.505,0L16.325,26.108l2.183,2.183L32.524,14.274a5.047,5.047,0,0,1,8.611,3.57,4.972,4.972,0,0,1-1.492,3.57L27.567,33.506l2.188,2.183L41.846,23.6a8.144,8.144,0,0,0,0-11.505Z" fill="#fff"/><path d="M45.767,33.63,31.751,47.641a5.056,5.056,0,0,1-7.14,0l-1.089-1.094L21.34,48.73l1.089,1.094a8.149,8.149,0,0,0,11.505,0L47.95,35.8Z" transform="translate(-10.732 -16.909)" fill="#fff"/></g></g></svg>