<svg xmlns="http://www.w3.org/2000/svg" width="60" height="60" viewBox="0 0 60 60"><g transform="translate(-450.538 -2105)"><rect width="60" height="60" rx="8" transform="translate(450.538 2105)"/><path d="M32.8,60.976s-3.585,11.259-3.877,12.189C28.812,72.208,26.183,52,26.183,52c-6.108,0-9.374,4.355-11.1,8.949,0,0-4.355,11.286-4.727,12.242-.027-.876-.664-12.109-.664-12.109A9.979,9.979,0,0,0,0,52.027L5.045,82.645c6.4-.027,9.852-4.355,11.658-8.949,0,0,3.851-9.958,4.01-10.41.027.425,2.762,19.359,2.762,19.359,6.426,0,9.879-4.063,11.737-8.5l9-22.12C37.868,52.027,34.522,56.355,32.8,60.976Z" transform="translate(458.431 2067.678)" fill="#fff"/></g></svg>