<svg width="60" height="60" viewBox="0 0 60 60" fill="none" xmlns="http://www.w3.org/2000/svg">
<rect x="0.5" y="0.5" width="59" height="59" rx="7.5" fill="#2B3A42"/>
<g clip-path="url(#clip0_244_2438)">
<path d="M30 5L52 17.4986V42.5014L30 55L8 42.5014V17.4986L30 5Z" fill="white"/>
<path d="M48.0719 41.6395L30.7277 51.4945V43.8206L41.5344 37.8482L48.0719 41.6395ZM49.26 40.5604V19.954L42.9158 23.6368V36.8833L49.26 40.5604ZM11.86 41.6395L29.2042 51.4945V43.8206L18.3918 37.8482L11.86 41.6395ZM10.6719 40.5604V19.954L17.0161 23.6368V36.8833L10.6719 40.5604ZM11.4166 18.6179L29.2042 8.51172V15.9286L17.8062 22.2265L17.7153 22.2778L11.4166 18.6179ZM48.5153 18.6179L30.7277 8.51172V15.9286L42.1256 22.2208L42.2166 22.2721L48.5153 18.6179Z" fill="#8ED6FB"/>
<path d="M29.2042 42.0732L18.5396 36.1808V24.5158L29.2042 30.6995V42.0732ZM30.7277 42.0732L41.3923 36.1865V24.5158L30.7277 30.6995V42.0732ZM19.2615 23.1683L29.9659 17.2588L40.6703 23.1683L29.9659 29.3748L19.2615 23.1683Z" fill="#1C78C0"/>
</g>
<rect x="0.5" y="0.5" width="59" height="59" rx="7.5" stroke="#2B3A42"/>
<defs>
<clipPath id="clip0_244_2438">
<rect width="44" height="50" fill="white" transform="translate(8 5)"/>
</clipPath>
</defs>
</svg>
