<svg width="60" height="60" viewBox="0 0 60 60" fill="none" xmlns="http://www.w3.org/2000/svg">
<g clip-path="url(#clip0_280_2792)">
<path d="M8 1H52C55.9 1 59 4.1 59 8V52C59 55.9 55.9 59 52 59H8C4.1 59 1 55.9 1 52V8C1 4.1 4.1 1 8 1Z" fill="black" stroke="black" stroke-width="2"/>
<g clip-path="url(#clip1_280_2792)">
<path d="M32.8939 22.304C32.1222 22.7007 31.7878 23.4412 31.7878 25.4511C31.7878 25.4511 32.1736 25.0544 32.791 24.8164C33.2412 24.6445 33.5627 24.4197 33.7942 24.2478C34.463 23.7321 34.5659 23.1106 34.5659 22.0263C34.5531 22.0263 33.4984 21.9602 32.8939 22.304Z" fill="white"/>
<path d="M28.1736 22.767C27.5048 23.3356 27.3376 24.3141 27.3376 24.3141L25.1768 32.8298L23.4019 25.8612C23.2347 25.1207 22.9003 24.2083 22.3987 23.5736C21.7813 22.767 20.4952 22.7141 20.3408 22.7141C20.2251 22.7141 18.9518 22.767 18.283 23.5736C17.7813 24.2083 17.4469 25.1207 17.2797 25.8612L15.6077 32.8298L13.4469 24.3141C13.4469 24.3141 13.2797 23.4017 12.6109 22.767C11.5563 21.7885 10 22.0265 10 22.0265L14.1158 37.9604C14.1158 37.9604 15.4534 38.0794 16.1222 37.7356C17.0096 37.2727 17.4598 36.9422 17.9614 34.7604C18.463 32.8166 19.8006 27.157 19.9035 26.7604C19.955 26.5885 20.0707 26.0728 20.4051 26.0728C20.7395 26.0728 20.8553 26.5356 20.9068 26.7604C21.0225 27.157 22.3473 32.8166 22.8489 34.7604C23.4019 36.9289 23.7878 37.2727 24.6881 37.7356C25.3569 38.0794 26.6945 37.9604 26.6945 37.9604L30.7846 22.0265C30.7846 22.0265 29.2283 21.8017 28.1736 22.767Z" fill="white"/>
<path d="M34.5531 24.5918C34.5531 24.5918 34.2701 24.9885 33.717 25.3323C33.3312 25.5571 32.9968 25.6761 32.6109 25.9009C31.9421 26.2447 31.7749 26.5885 31.7749 27.1042V27.2761V28.1356V28.3075V37.9075C31.7749 37.9075 32.8296 38.0265 33.4984 37.6827C34.3858 37.2199 34.5531 36.7703 34.5531 34.8265V25.2265V24.5918Z" fill="white"/>
<path d="M44.7781 30.0265L50 22.0794C50 22.0794 47.8392 21.6827 46.7203 22.7141C46 23.3488 45.2797 24.5389 45.2797 24.5389L43.3891 27.3951C43.2733 27.567 43.1704 27.686 43.0032 27.686C42.836 27.686 42.6688 27.5141 42.6174 27.3951L40.7267 24.5389C40.7267 24.5389 39.955 23.4017 39.2862 22.7141C38.1801 21.6827 36.0064 22.0794 36.0064 22.0794L41.0611 30.0133L35.8907 37.9472C35.8907 37.9472 38.1672 38.2381 39.2862 37.2067C40.0064 36.5719 40.6752 35.4876 40.6752 35.4876L42.5659 32.6315C42.6817 32.4595 42.7846 32.3405 42.9518 32.3405C43.119 32.3405 43.2862 32.5124 43.3376 32.6315L45.2283 35.4876C45.2283 35.4876 45.9485 36.5719 46.6174 37.2067C47.7235 38.2381 49.9485 37.9472 49.9485 37.9472L44.7781 30.0265Z" fill="white"/>
</g>
</g>
<defs>
<clipPath id="clip0_280_2792">
<rect width="60" height="60" fill="white"/>
</clipPath>
<clipPath id="clip1_280_2792">
<rect width="40" height="16" fill="white" transform="translate(10 22)"/>
</clipPath>
</defs>
</svg>
