<svg xmlns="http://www.w3.org/2000/svg" width="60" height="60" viewBox="0 0 60 60"><g transform="translate(-450.538 -2105)"><rect width="60" height="60" rx="8" transform="translate(450.538 2105)" fill="#00769f"/><g transform="translate(458.434 2112.894)"><path d="M8.708,47.59A18.967,18.967,0,0,0,19.4,64.657L10.35,39.872A18.892,18.892,0,0,0,8.708,47.59Z" transform="translate(-5.566 -25.485)" fill="#fff"/><path d="M46,26.714a9.984,9.984,0,0,0-1.564-5.23c-.961-1.562-1.862-2.885-1.862-4.447a3.284,3.284,0,0,1,3.184-3.366c.084,0,.164.01.246.015a18.96,18.96,0,0,0-28.65,3.569c.445.013.864.023,1.22.023,1.984,0,5.054-.241,5.054-.241a.784.784,0,0,1,.122,1.562s-1.027.121-2.17.181l6.906,20.541,4.15-12.447-2.955-8.1c-1.021-.06-1.989-.181-1.989-.181a.783.783,0,0,1,.12-1.562s3.132.241,5,.241c1.983,0,5.054-.241,5.054-.241a.784.784,0,0,1,.122,1.562s-1.029.121-2.17.181l6.853,20.385,1.892-6.321c.82-2.623,1.444-4.507,1.444-6.13Z" transform="translate(-11.091 -5.566)" fill="#fff"/><path d="M52.106,65.857,46.416,82.39a18.973,18.973,0,0,0,11.654-.3,1.666,1.666,0,0,1-.135-.261Z" transform="translate(-29.667 -42.093)" fill="#fff"/><path d="M94.788,36.046A14.549,14.549,0,0,1,94.916,38a17.889,17.889,0,0,1-1.442,6.792L87.681,61.536a18.967,18.967,0,0,0,7.107-25.49Z" transform="translate(-56.042 -23.039)" fill="#fff"/><path d="M22.106,0A22.106,22.106,0,1,0,44.213,22.105,22.131,22.131,0,0,0,22.106,0Zm0,43.2A21.092,21.092,0,1,1,43.2,22.105,21.117,21.117,0,0,1,22.106,43.2Z" fill="#fff"/></g></g></svg>