<svg xmlns="http://www.w3.org/2000/svg" width="60" height="60" viewBox="0 0 60 60"><g transform="translate(-450.538 -2105)"><rect width="60" height="60" rx="8" transform="translate(450.538 2105)" fill="#4e0039"/><path d="M32.8,60.976s-3.585,11.259-3.877,12.189C28.812,72.208,26.183,52,26.183,52c-6.108,0-9.374,4.355-11.1,8.949,0,0-4.355,11.286-4.727,12.242-.027-.876-.664-12.109-.664-12.109A9.979,9.979,0,0,0,0,52.027L5.045,82.645c6.4-.027,9.852-4.355,11.658-8.949,0,0,3.851-9.958,4.01-10.41.027.425,2.762,19.359,2.762,19.359,6.426,0,9.879-4.063,11.737-8.5l9-22.12C37.868,52.027,34.522,56.355,32.8,60.976Z" transform="translate(458.431 2067.678)" fill="#fff"/><g transform="translate(450.538 2106.5)"><path d="M10.625,0h38.75A10.616,10.616,0,0,1,60,10.625v37.25A10.616,10.616,0,0,1,49.375,58.5H10.625A10.616,10.616,0,0,1,0,47.875V10.625A10.616,10.616,0,0,1,10.625,0Z" fill="#470137"/><g transform="translate(8.74 12.821)"><path d="M57.771,60.375l-7.5,12.375,8,13.125a.43.43,0,0,1,.05.3c-.025.1-.125.025-.275.05H52.321c-.4,0-.675-.025-.85-.275-.525-1.05-1.075-2.075-1.6-3.125-.525-1.025-1.1-2.075-1.7-3.15s-1.2-2.15-1.8-3.25h-.05c-.525,1.075-1.1,2.15-1.675,3.225s-1.15,2.15-1.7,3.2c-.575,1.05-1.15,2.125-1.725,3.15-.1.25-.3.275-.575.275h-5.5c-.1,0-.175.05-.175-.075a.347.347,0,0,1,.05-.275L42.8,73.175,35.221,60.35c-.075-.1-.1-.2-.05-.25a.29.29,0,0,1,.25-.1H41.1a1.476,1.476,0,0,1,.35.05.709.709,0,0,1,.25.225c.475,1.075,1.025,2.15,1.6,3.225.6,1.075,1.175,2.125,1.8,3.175.6,1.05,1.15,2.1,1.675,3.175h.05c.525-1.1,1.075-2.175,1.625-3.225s1.125-2.1,1.7-3.15,1.125-2.125,1.675-3.15a.425.425,0,0,1,.15-.25.477.477,0,0,1,.325-.05h5.275a.23.23,0,0,1,.275.175c.025.025-.025.125-.075.175Z" transform="translate(-34.961 -57.821)" fill="#ff61f6"/><path d="M140.822,80.213a12.429,12.429,0,0,1-5.375-1.125,8.716,8.716,0,0,1-3.775-3.4,10.817,10.817,0,0,1-1.375-5.7,10.267,10.267,0,0,1,1.375-5.275,10.382,10.382,0,0,1,3.975-3.875,12.788,12.788,0,0,1,6.325-1.45,4.463,4.463,0,0,1,.525.025c.225.025.475.025.775.05v-7.9c0-.175.075-.275.25-.275H148.6a.224.224,0,0,1,.25.175v23.85c0,.45.025.95.05,1.5.05.525.075,1.025.1,1.45a.406.406,0,0,1-.25.4,19.092,19.092,0,0,1-4.075,1.2A22.053,22.053,0,0,1,140.822,80.213Zm2.45-5v-11a6.392,6.392,0,0,0-.675-.125c-.275-.025-.55-.05-.825-.05a6.163,6.163,0,0,0-2.825.65,5.6,5.6,0,0,0-2.125,1.85A5.542,5.542,0,0,0,136,69.713a6.966,6.966,0,0,0,.425,2.575,4.886,4.886,0,0,0,1.125,1.775,4.319,4.319,0,0,0,1.7,1,6.544,6.544,0,0,0,2.075.325c.375,0,.725-.025,1.05-.05A2.186,2.186,0,0,0,143.272,75.213Z" transform="translate(-106.462 -51.284)" fill="#ff61f6"/></g></g></g></svg>