<svg width="663" height="540" viewBox="0 0 663 540" fill="none" xmlns="http://www.w3.org/2000/svg">
<mask id="path-1-inside-1_3718_80" fill="white">
<path d="M50 60C50 48.9543 58.9543 40 70 40H592.5C603.546 40 612.5 48.9543 612.5 60V540H50V60Z"/>
</mask>
<path d="M50 60C50 48.9543 58.9543 40 70 40H592.5C603.546 40 612.5 48.9543 612.5 60V540H50V60Z" fill="#F3F3F3"/>
<path d="M613.75 538.75V540H611.25V538.75H613.75ZM51.25 538.75V540H48.75V538.75H51.25ZM51.25 533.75V536.25H48.75V533.75H51.25ZM613.75 533.75V536.25H611.25V533.75H613.75ZM51.25 528.75V531.25H48.75V528.75H51.25ZM613.75 528.75V531.25H611.25V528.75H613.75ZM51.25 523.75V526.25H48.75V523.75H51.25ZM613.75 523.75V526.25H611.25V523.75H613.75ZM51.25 518.75V521.25H48.75V518.75H51.25ZM613.75 518.75V521.25H611.25V518.75H613.75ZM51.25 513.75V516.25H48.75V513.75H51.25ZM613.75 513.75V516.25H611.25V513.75H613.75ZM51.25 508.75V511.25H48.75V508.75H51.25ZM613.75 508.75V511.25H611.25V508.75H613.75ZM51.25 503.75V506.25H48.75V503.75H51.25ZM613.75 503.75V506.25H611.25V503.75H613.75ZM51.25 498.75V501.25H48.75V498.75H51.25ZM613.75 498.75V501.25H611.25V498.75H613.75ZM51.25 493.75V496.25H48.75V493.75H51.25ZM613.75 493.75V496.25H611.25V493.75H613.75ZM51.25 488.75V491.25H48.75V488.75H51.25ZM613.75 488.75V491.25H611.25V488.75H613.75ZM51.25 483.75V486.25H48.75V483.75H51.25ZM613.75 483.75V486.25H611.25V483.75H613.75ZM51.25 478.75V481.25H48.75V478.75H51.25ZM613.75 478.75V481.25H611.25V478.75H613.75ZM51.25 473.75V476.25H48.75V473.75H51.25ZM613.75 473.75V476.25H611.25V473.75H613.75ZM51.25 468.75V471.25H48.75V468.75H51.25ZM613.75 468.75V471.25H611.25V468.75H613.75ZM51.25 463.75V466.25H48.75V463.75H51.25ZM613.75 463.75V466.25H611.25V463.75H613.75ZM51.25 458.75V461.25H48.75V458.75H51.25ZM613.75 458.75V461.25H611.25V458.75H613.75ZM51.25 453.75V456.25H48.75V453.75H51.25ZM613.75 453.75V456.25H611.25V453.75H613.75ZM51.25 448.75V451.25H48.75V448.75H51.25ZM613.75 448.75V451.25H611.25V448.75H613.75ZM51.25 443.75V446.25H48.75V443.75H51.25ZM613.75 443.75V446.25H611.25V443.75H613.75ZM51.25 438.75V441.25H48.75V438.75H51.25ZM613.75 438.75V441.25H611.25V438.75H613.75ZM51.25 433.75V436.25H48.75V433.75H51.25ZM613.75 433.75V436.25H611.25V433.75H613.75ZM51.25 428.75V431.25H48.75V428.75H51.25ZM613.75 428.75V431.25H611.25V428.75H613.75ZM51.25 423.75V426.25H48.75V423.75H51.25ZM613.75 423.75V426.25H611.25V423.75H613.75ZM51.25 418.75V421.25H48.75V418.75H51.25ZM613.75 418.75V421.25H611.25V418.75H613.75ZM51.25 413.75V416.25H48.75V413.75H51.25ZM613.75 413.75V416.25H611.25V413.75H613.75ZM51.25 408.75V411.25H48.75V408.75H51.25ZM613.75 408.75V411.25H611.25V408.75H613.75ZM51.25 403.75V406.25H48.75V403.75H51.25ZM613.75 403.75V406.25H611.25V403.75H613.75ZM51.25 398.75V401.25H48.75V398.75H51.25ZM613.75 398.75V401.25H611.25V398.75H613.75ZM51.25 393.75V396.25H48.75V393.75H51.25ZM613.75 393.75V396.25H611.25V393.75H613.75ZM51.25 388.75V391.25H48.75V388.75H51.25ZM613.75 388.75V391.25H611.25V388.75H613.75ZM51.25 383.75V386.25H48.75V383.75H51.25ZM613.75 383.75V386.25H611.25V383.75H613.75ZM51.25 378.75V381.25H48.75V378.75H51.25ZM613.75 378.75V381.25H611.25V378.75H613.75ZM51.25 373.75V376.25H48.75V373.75H51.25ZM613.75 373.75V376.25H611.25V373.75H613.75ZM51.25 368.75V371.25H48.75V368.75H51.25ZM613.75 368.75V371.25H611.25V368.75H613.75ZM51.25 363.75V366.25H48.75V363.75H51.25ZM613.75 363.75V366.25H611.25V363.75H613.75ZM51.25 358.75V361.25H48.75V358.75H51.25ZM613.75 358.75V361.25H611.25V358.75H613.75ZM51.25 353.75V356.25H48.75V353.75H51.25ZM613.75 353.75V356.25H611.25V353.75H613.75ZM51.25 348.75V351.25H48.75V348.75H51.25ZM613.75 348.75V351.25H611.25V348.75H613.75ZM51.25 343.75V346.25H48.75V343.75H51.25ZM613.75 343.75V346.25H611.25V343.75H613.75ZM51.25 338.75V341.25H48.75V338.75H51.25ZM613.75 338.75V341.25H611.25V338.75H613.75ZM51.25 333.75V336.25H48.75V333.75H51.25ZM613.75 333.75V336.25H611.25V333.75H613.75ZM51.25 328.75V331.25H48.75V328.75H51.25ZM613.75 328.75V331.25H611.25V328.75H613.75ZM51.25 323.75V326.25H48.75V323.75H51.25ZM613.75 323.75V326.25H611.25V323.75H613.75ZM51.25 318.75V321.25H48.75V318.75H51.25ZM613.75 318.75V321.25H611.25V318.75H613.75ZM51.25 313.75V316.25H48.75V313.75H51.25ZM613.75 313.75V316.25H611.25V313.75H613.75ZM51.25 308.75V311.25H48.75V308.75H51.25ZM613.75 308.75V311.25H611.25V308.75H613.75ZM51.25 303.75V306.25H48.75V303.75H51.25ZM613.75 303.75V306.25H611.25V303.75H613.75ZM51.25 298.75V301.25H48.75V298.75H51.25ZM613.75 298.75V301.25H611.25V298.75H613.75ZM51.25 293.75V296.25H48.75V293.75H51.25ZM613.75 293.75V296.25H611.25V293.75H613.75ZM51.25 288.75V291.25H48.75V288.75H51.25ZM613.75 288.75V291.25H611.25V288.75H613.75ZM51.25 283.75V286.25H48.75V283.75H51.25ZM613.75 283.75V286.25H611.25V283.75H613.75ZM51.25 278.75V281.25H48.75V278.75H51.25ZM613.75 278.75V281.25H611.25V278.75H613.75ZM51.25 273.75V276.25H48.75V273.75H51.25ZM613.75 273.75V276.25H611.25V273.75H613.75ZM51.25 268.75V271.25H48.75V268.75H51.25ZM613.75 268.75V271.25H611.25V268.75H613.75ZM51.25 263.75V266.25H48.75V263.75H51.25ZM613.75 263.75V266.25H611.25V263.75H613.75ZM51.25 258.75V261.25H48.75V258.75H51.25ZM613.75 258.75V261.25H611.25V258.75H613.75ZM51.25 253.75V256.25H48.75V253.75H51.25ZM613.75 253.75V256.25H611.25V253.75H613.75ZM51.25 248.75V251.25H48.75V248.75H51.25ZM613.75 248.75V251.25H611.25V248.75H613.75ZM51.25 243.75V246.25H48.75V243.75H51.25ZM613.75 243.75V246.25H611.25V243.75H613.75ZM51.25 238.75V241.25H48.75V238.75H51.25ZM613.75 238.75V241.25H611.25V238.75H613.75ZM51.25 233.75V236.25H48.75V233.75H51.25ZM613.75 233.75V236.25H611.25V233.75H613.75ZM51.25 228.75V231.25H48.75V228.75H51.25ZM613.75 228.75V231.25H611.25V228.75H613.75ZM51.25 223.75V226.25H48.75V223.75H51.25ZM613.75 223.75V226.25H611.25V223.75H613.75ZM51.25 218.75V221.25H48.75V218.75H51.25ZM613.75 218.75V221.25H611.25V218.75H613.75ZM51.25 213.75V216.25H48.75V213.75H51.25ZM613.75 213.75V216.25H611.25V213.75H613.75ZM51.25 208.75V211.25H48.75V208.75H51.25ZM613.75 208.75V211.25H611.25V208.75H613.75ZM51.25 203.75V206.25H48.75V203.75H51.25ZM613.75 203.75V206.25H611.25V203.75H613.75ZM51.25 198.75V201.25H48.75V198.75H51.25ZM613.75 198.75V201.25H611.25V198.75H613.75ZM51.25 193.75V196.25H48.75V193.75H51.25ZM613.75 193.75V196.25H611.25V193.75H613.75ZM51.25 188.75V191.25H48.75V188.75H51.25ZM613.75 188.75V191.25H611.25V188.75H613.75ZM51.25 183.75V186.25H48.75V183.75H51.25ZM613.75 183.75V186.25H611.25V183.75H613.75ZM51.25 178.75V181.25H48.75V178.75H51.25ZM613.75 178.75V181.25H611.25V178.75H613.75ZM51.25 173.75V176.25H48.75V173.75H51.25ZM613.75 173.75V176.25H611.25V173.75H613.75ZM51.25 168.75V171.25H48.75V168.75H51.25ZM613.75 168.75V171.25H611.25V168.75H613.75ZM51.25 163.75V166.25H48.75V163.75H51.25ZM613.75 163.75V166.25H611.25V163.75H613.75ZM51.25 158.75V161.25H48.75V158.75H51.25ZM613.75 158.75V161.25H611.25V158.75H613.75ZM51.25 153.75V156.25H48.75V153.75H51.25ZM613.75 153.75V156.25H611.25V153.75H613.75ZM51.25 148.75V151.25H48.75V148.75H51.25ZM613.75 148.75V151.25H611.25V148.75H613.75ZM51.25 143.75V146.25H48.75V143.75H51.25ZM613.75 143.75V146.25H611.25V143.75H613.75ZM51.25 138.75V141.25H48.75V138.75H51.25ZM613.75 138.75V141.25H611.25V138.75H613.75ZM51.25 133.75V136.25H48.75V133.75H51.25ZM613.75 133.75V136.25H611.25V133.75H613.75ZM51.25 128.75V131.25H48.75V128.75H51.25ZM613.75 128.75V131.25H611.25V128.75H613.75ZM51.25 123.75V126.25H48.75V123.75H51.25ZM613.75 123.75V126.25H611.25V123.75H613.75ZM51.25 118.75V121.25H48.75V118.75H51.25ZM613.75 118.75V121.25H611.25V118.75H613.75ZM51.25 113.75V116.25H48.75V113.75H51.25ZM613.75 113.75V116.25H611.25V113.75H613.75ZM51.25 108.75V111.25H48.75V108.75H51.25ZM613.75 108.75V111.25H611.25V108.75H613.75ZM51.25 103.75V106.25H48.75V103.75H51.25ZM613.75 103.75V106.25H611.25V103.75H613.75ZM51.25 98.75V101.25H48.75V98.75H51.25ZM613.75 98.75V101.25H611.25V98.75H613.75ZM51.25 93.75V96.25H48.75V93.75H51.25ZM613.75 93.75V96.25H611.25V93.75H613.75ZM51.25 88.75V91.25H48.75V88.75H51.25ZM613.75 88.75V91.25H611.25V88.75H613.75ZM51.25 83.75V86.25H48.75V83.75H51.25ZM613.75 83.75V86.25H611.25V83.75H613.75ZM51.25 78.75V81.25H48.75V78.75H51.25ZM613.75 78.75V81.25H611.25V78.75H613.75ZM51.25 73.75V76.25H48.75V73.75H51.25ZM613.75 73.75V76.25H611.25V73.75H613.75ZM51.25 68.75V71.25H48.75V68.75H51.25ZM613.75 68.75V71.25H611.25V68.75H613.75ZM51.25 63.75V66.25H48.75V63.75H51.25ZM613.75 63.75V66.25H611.25V63.75H613.75ZM51.25 61.25H48.75V60C48.75 59.558 48.7653 59.1192 48.792 58.6836C48.7935 58.6592 48.7953 58.6348 48.7969 58.6104L50.042 58.6904L51.29 58.7715C51.2884 58.7975 51.2877 58.8236 51.2861 58.8496C51.2777 58.9895 51.27 59.1298 51.2646 59.2705C51.2625 59.3255 51.2604 59.3805 51.2588 59.4355C51.2532 59.623 51.25 59.8112 51.25 60V61.25ZM613.75 61.25H611.25V60C611.25 59.8112 611.246 59.623 611.24 59.4355C611.238 59.3739 611.236 59.3124 611.233 59.251C611.229 59.1351 611.223 59.0196 611.217 58.9043C611.214 58.86 611.214 58.8157 611.211 58.7715L612.458 58.6904L613.703 58.6104C613.705 58.6348 613.707 58.6592 613.708 58.6836C613.735 59.1192 613.75 59.558 613.75 60V61.25ZM51.0566 53.5693L51.6484 53.7695H51.6475L52.2402 53.9707C52.2385 53.9759 52.2371 53.9812 52.2354 53.9863C52.1794 54.1517 52.1256 54.318 52.0742 54.4854C52.0555 54.5464 52.0377 54.6077 52.0195 54.6689C51.983 54.7925 51.9472 54.9164 51.9131 55.041C51.8985 55.0943 51.8842 55.1477 51.8701 55.2012C51.8388 55.3198 51.8093 55.4391 51.7803 55.5586C51.7564 55.6569 51.7333 55.7556 51.7109 55.8545C51.6822 55.982 51.6541 56.1098 51.6279 56.2383C51.6211 56.272 51.6131 56.3061 51.6064 56.3398L50.3809 56.0967L49.1562 55.8545C49.1595 55.838 49.1617 55.8212 49.165 55.8047C49.3455 54.9037 49.5825 54.023 49.873 53.167L51.0566 53.5693ZM612.627 53.167C612.917 54.023 613.154 54.9037 613.335 55.8047C613.338 55.8212 613.34 55.838 613.344 55.8545L612.119 56.0967L610.894 56.3389C610.887 56.3052 610.879 56.2719 610.872 56.2383C610.846 56.1098 610.818 55.982 610.789 55.8545C610.767 55.7555 610.743 55.657 610.719 55.5586C610.69 55.4391 610.661 55.3197 610.63 55.2012C610.616 55.1476 610.601 55.0944 610.586 55.041C610.552 54.9164 610.516 54.7925 610.479 54.6689C610.461 54.6077 610.444 54.5464 610.425 54.4854C610.373 54.3181 610.321 54.1516 610.265 53.9863C610.263 53.9812 610.262 53.9759 610.26 53.9707L610.852 53.7695L611.443 53.5693L612.627 53.167ZM53.3691 48.8877L54.4072 49.583C54.3863 49.6143 54.3665 49.6463 54.3457 49.6777C54.2707 49.7912 54.1966 49.9053 54.124 50.0205C54.0928 50.0701 54.062 50.12 54.0312 50.1699C53.9527 50.2972 53.8754 50.4254 53.7998 50.5547C53.783 50.5834 53.7657 50.6118 53.749 50.6406C53.6548 50.8038 53.563 50.9685 53.4736 51.1348C53.4587 51.1626 53.4445 51.1908 53.4297 51.2188C53.3606 51.3488 53.2926 51.4795 53.2266 51.6113C53.2108 51.6429 53.1943 51.6744 53.1787 51.7061L50.9385 50.5986C50.9583 50.5584 50.9789 50.5186 50.999 50.4785C51.3855 49.7088 51.8165 48.9655 52.29 48.2529C52.3034 48.2328 52.3166 48.2125 52.3301 48.1924L53.3691 48.8877ZM610.209 48.2529C610.683 48.9655 611.114 49.7087 611.5 50.4785C611.52 50.5186 611.541 50.5584 611.561 50.5986L610.441 51.1523L609.321 51.7061C609.306 51.6743 609.288 51.643 609.272 51.6113C609.206 51.4795 609.138 51.3488 609.069 51.2188C609.055 51.1908 609.04 51.1626 609.025 51.1348C608.936 50.9685 608.844 50.8038 608.75 50.6406C608.733 50.6118 608.716 50.5834 608.699 50.5547C608.624 50.4254 608.546 50.2972 608.468 50.1699C608.437 50.12 608.406 50.0701 608.375 50.0205C608.302 49.9053 608.228 49.7912 608.153 49.6777C608.133 49.6465 608.114 49.6141 608.093 49.583L610.169 48.1924C610.182 48.2125 610.196 48.2328 610.209 48.2529ZM56.4004 44.4932L56.8125 44.9629L57.1426 45.3389L57.6377 45.9023C57.6135 45.9236 57.5895 45.9454 57.5654 45.9668C57.4656 46.0553 57.3665 46.1447 57.2686 46.2354C57.2202 46.2801 57.1719 46.3249 57.124 46.3701C56.8657 46.6143 56.6143 46.8657 56.3701 47.124C56.3249 47.1719 56.2801 47.2202 56.2354 47.2686C56.1447 47.3665 56.0553 47.4656 55.9668 47.5654C55.9454 47.5895 55.9236 47.6135 55.9023 47.6377L54.9629 46.8135L54.0244 45.9883C54.0516 45.9573 54.079 45.9264 54.1064 45.8955C54.6775 45.2525 55.2873 44.6448 55.9316 44.0752C55.9506 44.0584 55.9692 44.0411 55.9883 44.0244L56.4004 44.4932ZM606.568 44.0752C607.213 44.6447 607.822 45.2526 608.393 45.8955C608.42 45.9264 608.447 45.9573 608.475 45.9883L607.537 46.8125L607.067 47.2256L607.066 47.2246L606.598 47.6377C606.576 47.6133 606.554 47.5897 606.532 47.5654C606.444 47.4656 606.354 47.3665 606.264 47.2686C606.219 47.2202 606.174 47.1719 606.129 47.124C605.885 46.8657 605.633 46.6143 605.375 46.3701C605.327 46.3249 605.279 46.2801 605.23 46.2354C605.133 46.1447 605.033 46.0553 604.934 45.9668C604.91 45.9456 604.886 45.9234 604.862 45.9023L605.688 44.9629L606.1 44.4932L606.511 44.0244C606.53 44.0413 606.549 44.0582 606.568 44.0752ZM61.7061 43.1787C61.6802 43.1915 61.6547 43.2058 61.6289 43.2188C61.4913 43.2875 61.3544 43.3576 61.2188 43.4297C61.1908 43.4445 61.1626 43.4587 61.1348 43.4736C60.9685 43.563 60.8038 43.6548 60.6406 43.749C60.6118 43.7657 60.5834 43.783 60.5547 43.7998C60.4299 43.8727 60.3065 43.9478 60.1836 44.0234C60.1292 44.0569 60.0745 44.09 60.0205 44.124C59.9053 44.1966 59.7912 44.2707 59.6777 44.3457C59.6463 44.3665 59.6143 44.3863 59.583 44.4072L58.8877 43.3691L58.1924 42.3301C58.2125 42.3166 58.2328 42.3034 58.2529 42.29C58.9655 41.8165 59.7088 41.3855 60.4785 40.999C60.5186 40.9789 60.5584 40.9583 60.5986 40.9385L61.7061 43.1787ZM602.021 40.999C602.788 41.3843 603.529 41.8143 604.239 42.2861C604.262 42.301 604.284 42.3152 604.307 42.3301L603.612 43.3691L602.917 44.4072C602.885 44.3861 602.853 44.3666 602.821 44.3457C602.708 44.2707 602.594 44.1966 602.479 44.124C602.425 44.0901 602.371 44.0568 602.316 44.0234C602.193 43.9476 602.069 43.8728 601.944 43.7998C601.916 43.783 601.887 43.7657 601.858 43.749C601.695 43.6548 601.531 43.563 601.364 43.4736C601.336 43.4587 601.308 43.4445 601.28 43.4297C601.145 43.3578 601.008 43.2874 600.871 43.2188C600.845 43.2058 600.82 43.1915 600.794 43.1787L601.348 42.0586L601.9 40.9385C601.941 40.9583 601.98 40.9789 602.021 40.999ZM66.0967 40.3809L66.3389 41.6064C66.3108 41.612 66.2829 41.6183 66.2549 41.624C66.1595 41.6434 66.0646 41.6648 65.9697 41.6855C65.8321 41.7157 65.6951 41.7471 65.5586 41.7803C65.4424 41.8085 65.3263 41.8368 65.2109 41.8672C65.1542 41.8821 65.0976 41.8976 65.041 41.9131C64.9164 41.9472 64.7925 41.983 64.6689 42.0195C64.6077 42.0377 64.5464 42.0555 64.4854 42.0742C64.3312 42.1216 64.1778 42.1705 64.0254 42.2217C64.0071 42.2278 63.9889 42.234 63.9707 42.2402L63.5693 41.0566L63.167 39.873C64.023 39.5825 64.9037 39.3455 65.8047 39.165C65.8212 39.1617 65.838 39.1595 65.8545 39.1562L66.0967 40.3809ZM596.694 39.165C597.596 39.3455 598.477 39.5824 599.333 39.873L598.932 41.0566L598.529 42.2402C598.511 42.2339 598.492 42.2279 598.474 42.2217C598.321 42.1705 598.168 42.1216 598.014 42.0742C597.953 42.0555 597.891 42.0377 597.83 42.0195C597.707 41.983 597.583 41.9472 597.458 41.9131C597.401 41.8976 597.345 41.8821 597.288 41.8672C597.173 41.8368 597.057 41.8085 596.94 41.7803C596.804 41.7471 596.667 41.7157 596.529 41.6855C596.434 41.6648 596.34 41.6434 596.244 41.624C596.216 41.6184 596.189 41.6119 596.161 41.6064L596.403 40.3809L596.645 39.1562C596.661 39.1595 596.678 39.1617 596.694 39.165ZM71.2441 38.75V41.25H70C69.8112 41.25 69.623 41.2532 69.4355 41.2588C69.3805 41.2604 69.3255 41.2625 69.2705 41.2646C69.1298 41.27 68.9895 41.2777 68.8496 41.2861C68.8236 41.2877 68.7975 41.2884 68.7715 41.29L68.6904 40.042L68.6104 38.7969C68.6348 38.7953 68.6592 38.7935 68.6836 38.792C69.1192 38.7653 69.558 38.75 70 38.75H71.2441ZM592.5 38.75C592.942 38.75 593.38 38.7654 593.815 38.792C593.84 38.7935 593.864 38.7953 593.889 38.7969L593.849 39.4189H593.85L593.81 40.042L593.77 40.666L593.769 40.665L593.729 41.29C593.702 41.2883 593.676 41.2877 593.649 41.2861C593.51 41.2777 593.369 41.27 593.229 41.2646C593.174 41.2626 593.119 41.2604 593.063 41.2588C592.876 41.2533 592.688 41.25 592.5 41.25H591.257V38.75H592.5ZM76.2207 38.75V41.25H73.7324V38.75H76.2207ZM81.1963 38.75V41.25H78.708V38.75H81.1963ZM86.1729 38.75V41.25H83.6846V38.75H86.1729ZM91.1484 38.75V41.25H88.6611V38.75H91.1484ZM96.125 38.75V41.25H93.6367V38.75H96.125ZM101.102 38.75V41.25H98.6133V38.75H101.102ZM106.077 38.75V41.25H103.589V38.75H106.077ZM111.054 38.75V41.25H108.565V38.75H111.054ZM116.029 38.75V41.25H113.542V38.75H116.029ZM121.006 38.75V41.25H118.518V38.75H121.006ZM125.982 38.75V41.25H123.494V38.75H125.982ZM130.958 38.75V41.25H128.471V38.75H130.958ZM135.935 38.75V41.25H133.446V38.75H135.935ZM140.911 38.75V41.25H138.423V38.75H140.911ZM145.887 38.75V41.25H143.398V38.75H145.887ZM150.863 38.75V41.25H148.375V38.75H150.863ZM155.839 38.75V41.25H153.352V38.75H155.839ZM160.815 38.75V41.25H158.327V38.75H160.815ZM165.792 38.75V41.25H163.304V38.75H165.792ZM170.768 38.75V41.25H168.28V38.75H170.768ZM175.744 38.75V41.25H173.256V38.75H175.744ZM180.721 38.75V41.25H178.232V38.75H180.721ZM185.696 38.75V41.25H183.208V38.75H185.696ZM190.673 38.75V41.25H188.185V38.75H190.673ZM195.648 38.75V41.25H193.161V38.75H195.648ZM200.625 38.75V41.25H198.137V38.75H200.625ZM205.602 38.75V41.25H203.113V38.75H205.602ZM210.577 38.75V41.25H208.09V38.75H210.577ZM215.554 38.75V41.25H213.065V38.75H215.554ZM220.53 38.75V41.25H218.042V38.75H220.53ZM225.506 38.75V41.25H223.018V38.75H225.506ZM230.482 38.75V41.25H227.994V38.75H230.482ZM235.458 38.75V41.25H232.971V38.75H235.458ZM240.435 38.75V41.25H237.946V38.75H240.435ZM245.411 38.75V41.25H242.923V38.75H245.411ZM250.387 38.75V41.25H247.899V38.75H250.387ZM255.363 38.75V41.25H252.875V38.75H255.363ZM260.34 38.75V41.25H257.852V38.75H260.34ZM265.315 38.75V41.25H262.827V38.75H265.315ZM270.292 38.75V41.25H267.804V38.75H270.292ZM275.268 38.75V41.25H272.78V38.75H275.268ZM280.244 38.75V41.25H277.756V38.75H280.244ZM285.221 38.75V41.25H282.732V38.75H285.221ZM290.196 38.75V41.25H287.709V38.75H290.196ZM295.173 38.75V41.25H292.685V38.75H295.173ZM300.149 38.75V41.25H297.661V38.75H300.149ZM305.125 38.75V41.25H302.637V38.75H305.125ZM310.102 38.75V41.25H307.613V38.75H310.102ZM315.077 38.75V41.25H312.59V38.75H315.077ZM320.054 38.75V41.25H317.565V38.75H320.054ZM325.03 38.75V41.25H322.542V38.75H325.03ZM330.006 38.75V41.25H327.519V38.75H330.006ZM334.982 38.75V41.25H332.494V38.75H334.982ZM339.959 38.75V41.25H337.471V38.75H339.959ZM344.935 38.75V41.25H342.446V38.75H344.935ZM349.911 38.75V41.25H347.423V38.75H349.911ZM354.887 38.75V41.25H352.399V38.75H354.887ZM359.863 38.75V41.25H357.375V38.75H359.863ZM364.84 38.75V41.25H362.352V38.75H364.84ZM369.815 38.75V41.25H367.328V38.75H369.815ZM374.792 38.75V41.25H372.304V38.75H374.792ZM379.769 38.75V41.25H377.28V38.75H379.769ZM384.744 38.75V41.25H382.256V38.75H384.744ZM389.721 38.75V41.25H387.232V38.75H389.721ZM394.696 38.75V41.25H392.209V38.75H394.696ZM399.673 38.75V41.25H397.185V38.75H399.673ZM404.649 38.75V41.25H402.161V38.75H404.649ZM409.625 38.75V41.25H407.138V38.75H409.625ZM414.602 38.75V41.25H412.113V38.75H414.602ZM419.578 38.75V41.25H417.09V38.75H419.578ZM424.554 38.75V41.25H422.065V38.75H424.554ZM429.53 38.75V41.25H427.042V38.75H429.53ZM434.506 38.75V41.25H432.019V38.75H434.506ZM439.482 38.75V41.25H436.994V38.75H439.482ZM444.459 38.75V41.25H441.971V38.75H444.459ZM449.435 38.75V41.25H446.947V38.75H449.435ZM454.411 38.75V41.25H451.923V38.75H454.411ZM459.388 38.75V41.25H456.899V38.75H459.388ZM464.363 38.75V41.25H461.875V38.75H464.363ZM469.34 38.75V41.25H466.852V38.75H469.34ZM474.315 38.75V41.25H471.828V38.75H474.315ZM479.292 38.75V41.25H476.804V38.75H479.292ZM484.269 38.75V41.25H481.78V38.75H484.269ZM489.244 38.75V41.25H486.757V38.75H489.244ZM494.221 38.75V41.25H491.732V38.75H494.221ZM499.197 38.75V41.25H496.709V38.75H499.197ZM504.173 38.75V41.25H501.685V38.75H504.173ZM509.149 38.75V41.25H506.661V38.75H509.149ZM514.125 38.75V41.25H511.638V38.75H514.125ZM519.102 38.75V41.25H516.613V38.75H519.102ZM524.078 38.75V41.25H521.59V38.75H524.078ZM529.054 38.75V41.25H526.566V38.75H529.054ZM534.03 38.75V41.25H531.542V38.75H534.03ZM539.007 38.75V41.25H536.519V38.75H539.007ZM543.982 38.75V41.25H541.494V38.75H543.982ZM548.959 38.75V41.25H546.471V38.75H548.959ZM553.935 38.75V41.25H551.447V38.75H553.935ZM558.911 38.75V41.25H556.423V38.75H558.911ZM563.888 38.75V41.25H561.399V38.75H563.888ZM568.863 38.75V41.25H566.376V38.75H568.863ZM573.84 38.75V41.25H571.352V38.75H573.84ZM578.816 38.75V41.25H576.328V38.75H578.816ZM583.792 38.75V41.25H581.304V38.75H583.792ZM588.769 38.75V41.25H586.28V38.75H588.769Z" fill="#FF0000" mask="url(#path-1-inside-1_3718_80)"/>
<path d="M71.485 84C71.385 84 71.295 83.965 71.215 83.895C71.145 83.825 71.11 83.735 71.11 83.625V73.875C71.11 73.765 71.145 73.675 71.215 73.605C71.295 73.535 71.385 73.5 71.485 73.5H72.88C73.03 73.5 73.14 73.54 73.21 73.62C73.29 73.7 73.345 73.76 73.375 73.8L76.135 78.885L78.925 73.8C78.945 73.76 78.99 73.7 79.06 73.62C79.14 73.54 79.255 73.5 79.405 73.5H80.8C80.91 73.5 81 73.535 81.07 73.605C81.14 73.675 81.175 73.765 81.175 73.875V83.625C81.175 83.735 81.14 83.825 81.07 83.895C81 83.965 80.91 84 80.8 84H79.27C79.17 84 79.085 83.965 79.015 83.895C78.945 83.825 78.91 83.735 78.91 83.625V77.565L77.005 81.135C76.955 81.225 76.89 81.305 76.81 81.375C76.73 81.445 76.625 81.48 76.495 81.48H75.79C75.66 81.48 75.555 81.445 75.475 81.375C75.395 81.305 75.33 81.225 75.28 81.135L73.375 77.565V83.625C73.375 83.735 73.34 83.825 73.27 83.895C73.2 83.965 73.115 84 73.015 84H71.485ZM85.53 84.15C85 84.15 84.525 84.05 84.105 83.85C83.685 83.64 83.35 83.36 83.1 83.01C82.85 82.66 82.725 82.27 82.725 81.84C82.725 81.13 83.01 80.57 83.58 80.16C84.16 79.75 84.92 79.47 85.86 79.32L87.825 79.035V78.765C87.825 78.375 87.735 78.075 87.555 77.865C87.375 77.655 87.06 77.55 86.61 77.55C86.28 77.55 86.015 77.615 85.815 77.745C85.615 77.875 85.46 78.045 85.35 78.255C85.27 78.385 85.155 78.45 85.005 78.45H83.58C83.47 78.45 83.385 78.42 83.325 78.36C83.265 78.29 83.24 78.21 83.25 78.12C83.25 77.95 83.315 77.75 83.445 77.52C83.575 77.29 83.775 77.065 84.045 76.845C84.315 76.615 84.66 76.425 85.08 76.275C85.5 76.125 86.015 76.05 86.625 76.05C87.255 76.05 87.795 76.125 88.245 76.275C88.695 76.425 89.055 76.635 89.325 76.905C89.595 77.175 89.795 77.49 89.925 77.85C90.055 78.2 90.12 78.58 90.12 78.99V83.625C90.12 83.735 90.085 83.825 90.015 83.895C89.945 83.965 89.855 84 89.745 84H88.275C88.175 84 88.09 83.965 88.02 83.895C87.95 83.825 87.915 83.735 87.915 83.625V83.07C87.785 83.26 87.61 83.44 87.39 83.61C87.17 83.77 86.905 83.9 86.595 84C86.295 84.1 85.94 84.15 85.53 84.15ZM86.13 82.59C86.46 82.59 86.755 82.52 87.015 82.38C87.275 82.24 87.48 82.025 87.63 81.735C87.78 81.445 87.855 81.08 87.855 80.64V80.385L86.46 80.61C85.92 80.7 85.525 80.835 85.275 81.015C85.025 81.195 84.9 81.415 84.9 81.675C84.9 81.865 84.955 82.03 85.065 82.17C85.185 82.31 85.34 82.415 85.53 82.485C85.72 82.555 85.92 82.59 86.13 82.59ZM92.2962 84C92.1962 84 92.1112 83.965 92.0412 83.895C91.9712 83.825 91.9362 83.735 91.9362 83.625V76.575C91.9362 76.465 91.9712 76.375 92.0412 76.305C92.1112 76.235 92.1962 76.2 92.2962 76.2H93.7962C93.9062 76.2 93.9962 76.235 94.0662 76.305C94.1362 76.375 94.1712 76.465 94.1712 76.575V83.625C94.1712 83.735 94.1362 83.825 94.0662 83.895C93.9962 83.965 93.9062 84 93.7962 84H92.2962ZM92.2512 75C92.1512 75 92.0662 74.965 91.9962 74.895C91.9262 74.825 91.8912 74.735 91.8912 74.625V73.425C91.8912 73.315 91.9262 73.225 91.9962 73.155C92.0662 73.075 92.1512 73.035 92.2512 73.035H93.8262C93.9362 73.035 94.0262 73.075 94.0962 73.155C94.1762 73.225 94.2162 73.315 94.2162 73.425V74.625C94.2162 74.735 94.1762 74.825 94.0962 74.895C94.0262 74.965 93.9362 75 93.8262 75H92.2512ZM96.4124 84C96.3124 84 96.2274 83.965 96.1574 83.895C96.0874 83.825 96.0524 83.735 96.0524 83.625V76.575C96.0524 76.465 96.0874 76.375 96.1574 76.305C96.2274 76.235 96.3124 76.2 96.4124 76.2H97.8824C97.9924 76.2 98.0824 76.235 98.1524 76.305C98.2224 76.375 98.2574 76.465 98.2574 76.575V77.16C98.5174 76.84 98.8524 76.575 99.2624 76.365C99.6724 76.155 100.172 76.05 100.762 76.05C101.352 76.05 101.867 76.185 102.307 76.455C102.757 76.715 103.107 77.1 103.357 77.61C103.617 78.11 103.747 78.72 103.747 79.44V83.625C103.747 83.735 103.707 83.825 103.627 83.895C103.557 83.965 103.472 84 103.372 84H101.782C101.672 84 101.582 83.965 101.512 83.895C101.442 83.825 101.407 83.735 101.407 83.625V79.53C101.407 79 101.277 78.59 101.017 78.3C100.767 78 100.397 77.85 99.9074 77.85C99.4374 77.85 99.0624 78 98.7824 78.3C98.5024 78.59 98.3624 79 98.3624 79.53V83.625C98.3624 83.735 98.3274 83.825 98.2574 83.895C98.1874 83.965 98.1024 84 98.0024 84H96.4124ZM113.19 84.15C112.25 84.15 111.45 83.995 110.79 83.685C110.14 83.365 109.635 82.905 109.275 82.305C108.915 81.695 108.715 80.955 108.675 80.085C108.665 79.675 108.66 79.235 108.66 78.765C108.66 78.295 108.665 77.845 108.675 77.415C108.715 76.555 108.915 75.825 109.275 75.225C109.645 74.615 110.16 74.15 110.82 73.83C111.48 73.51 112.27 73.35 113.19 73.35C113.86 73.35 114.47 73.435 115.02 73.605C115.57 73.775 116.045 74.02 116.445 74.34C116.845 74.66 117.155 75.035 117.375 75.465C117.595 75.895 117.715 76.375 117.735 76.905C117.735 76.995 117.7 77.07 117.63 77.13C117.57 77.19 117.495 77.22 117.405 77.22H115.695C115.575 77.22 115.48 77.19 115.41 77.13C115.34 77.07 115.285 76.97 115.245 76.83C115.095 76.24 114.845 75.835 114.495 75.615C114.145 75.395 113.71 75.285 113.19 75.285C112.57 75.285 112.08 75.455 111.72 75.795C111.36 76.135 111.165 76.7 111.135 77.49C111.105 78.31 111.105 79.15 111.135 80.01C111.165 80.8 111.36 81.365 111.72 81.705C112.08 82.045 112.57 82.215 113.19 82.215C113.71 82.215 114.145 82.105 114.495 81.885C114.855 81.655 115.105 81.25 115.245 80.67C115.285 80.52 115.34 80.42 115.41 80.37C115.48 80.31 115.575 80.28 115.695 80.28H117.405C117.495 80.28 117.57 80.31 117.63 80.37C117.7 80.43 117.735 80.505 117.735 80.595C117.715 81.125 117.595 81.605 117.375 82.035C117.155 82.465 116.845 82.84 116.445 83.16C116.045 83.48 115.57 83.725 115.02 83.895C114.47 84.065 113.86 84.15 113.19 84.15ZM122.826 84.15C121.996 84.15 121.301 84.015 120.741 83.745C120.181 83.465 119.751 83.07 119.451 82.56C119.161 82.05 119.001 81.455 118.971 80.775C118.961 80.575 118.956 80.35 118.956 80.1C118.956 79.84 118.961 79.615 118.971 79.425C119.001 78.735 119.171 78.14 119.481 77.64C119.791 77.13 120.226 76.74 120.786 76.47C121.346 76.19 122.026 76.05 122.826 76.05C123.616 76.05 124.291 76.19 124.851 76.47C125.411 76.74 125.846 77.13 126.156 77.64C126.466 78.14 126.636 78.735 126.666 79.425C126.686 79.615 126.696 79.84 126.696 80.1C126.696 80.35 126.686 80.575 126.666 80.775C126.636 81.455 126.471 82.05 126.171 82.56C125.881 83.07 125.456 83.465 124.896 83.745C124.336 84.015 123.646 84.15 122.826 84.15ZM122.826 82.5C123.316 82.5 123.686 82.35 123.936 82.05C124.186 81.74 124.321 81.29 124.341 80.7C124.351 80.55 124.356 80.35 124.356 80.1C124.356 79.85 124.351 79.65 124.341 79.5C124.321 78.92 124.186 78.475 123.936 78.165C123.686 77.855 123.316 77.7 122.826 77.7C122.336 77.7 121.961 77.855 121.701 78.165C121.451 78.475 121.316 78.92 121.296 79.5C121.286 79.65 121.281 79.85 121.281 80.1C121.281 80.35 121.286 80.55 121.296 80.7C121.316 81.29 121.451 81.74 121.701 82.05C121.961 82.35 122.336 82.5 122.826 82.5ZM128.624 84C128.524 84 128.439 83.965 128.369 83.895C128.299 83.825 128.264 83.735 128.264 83.625V76.575C128.264 76.465 128.299 76.375 128.369 76.305C128.439 76.235 128.524 76.2 128.624 76.2H130.094C130.204 76.2 130.294 76.235 130.364 76.305C130.434 76.375 130.469 76.465 130.469 76.575V77.16C130.729 76.84 131.064 76.575 131.474 76.365C131.884 76.155 132.384 76.05 132.974 76.05C133.564 76.05 134.079 76.185 134.519 76.455C134.969 76.715 135.319 77.1 135.569 77.61C135.829 78.11 135.959 78.72 135.959 79.44V83.625C135.959 83.735 135.919 83.825 135.839 83.895C135.769 83.965 135.684 84 135.584 84H133.994C133.884 84 133.794 83.965 133.724 83.895C133.654 83.825 133.619 83.735 133.619 83.625V79.53C133.619 79 133.489 78.59 133.229 78.3C132.979 78 132.609 77.85 132.119 77.85C131.649 77.85 131.274 78 130.994 78.3C130.714 78.59 130.574 79 130.574 79.53V83.625C130.574 83.735 130.539 83.825 130.469 83.895C130.399 83.965 130.314 84 130.214 84H128.624ZM141.419 84C140.799 84 140.269 83.9 139.829 83.7C139.389 83.49 139.054 83.17 138.824 82.74C138.604 82.31 138.494 81.77 138.494 81.12V77.97H137.324C137.214 77.97 137.124 77.935 137.054 77.865C136.984 77.795 136.949 77.705 136.949 77.595V76.575C136.949 76.465 136.984 76.375 137.054 76.305C137.124 76.235 137.214 76.2 137.324 76.2H138.494V73.725C138.494 73.615 138.529 73.525 138.599 73.455C138.679 73.385 138.769 73.35 138.869 73.35H140.339C140.449 73.35 140.539 73.385 140.609 73.455C140.679 73.525 140.714 73.615 140.714 73.725V76.2H142.589C142.689 76.2 142.774 76.235 142.844 76.305C142.914 76.375 142.949 76.465 142.949 76.575V77.595C142.949 77.705 142.914 77.795 142.844 77.865C142.774 77.935 142.689 77.97 142.589 77.97H140.714V80.94C140.714 81.32 140.779 81.62 140.909 81.84C141.049 82.05 141.289 82.155 141.629 82.155H142.724C142.824 82.155 142.909 82.19 142.979 82.26C143.049 82.33 143.084 82.415 143.084 82.515V83.625C143.084 83.735 143.049 83.825 142.979 83.895C142.909 83.965 142.824 84 142.724 84H141.419ZM147.872 84.15C146.722 84.15 145.807 83.83 145.127 83.19C144.457 82.55 144.102 81.62 144.062 80.4C144.062 80.32 144.062 80.215 144.062 80.085C144.062 79.945 144.062 79.835 144.062 79.755C144.102 78.985 144.277 78.325 144.587 77.775C144.897 77.215 145.332 76.79 145.892 76.5C146.452 76.2 147.107 76.05 147.857 76.05C148.697 76.05 149.397 76.225 149.957 76.575C150.527 76.915 150.952 77.385 151.232 77.985C151.522 78.575 151.667 79.255 151.667 80.025V80.37C151.667 80.47 151.627 80.555 151.547 80.625C151.477 80.695 151.392 80.73 151.292 80.73H146.387C146.387 80.74 146.387 80.76 146.387 80.79C146.387 80.81 146.387 80.83 146.387 80.85C146.397 81.17 146.457 81.465 146.567 81.735C146.687 81.995 146.852 82.205 147.062 82.365C147.282 82.525 147.542 82.605 147.842 82.605C148.092 82.605 148.297 82.57 148.457 82.5C148.617 82.43 148.747 82.345 148.847 82.245C148.957 82.145 149.037 82.06 149.087 81.99C149.177 81.89 149.247 81.83 149.297 81.81C149.357 81.78 149.447 81.765 149.567 81.765H151.127C151.227 81.765 151.307 81.795 151.367 81.855C151.437 81.905 151.467 81.98 151.457 82.08C151.447 82.24 151.362 82.44 151.202 82.68C151.052 82.91 150.827 83.14 150.527 83.37C150.227 83.59 149.852 83.775 149.402 83.925C148.962 84.075 148.452 84.15 147.872 84.15ZM146.387 79.365H149.327V79.335C149.327 78.975 149.267 78.665 149.147 78.405C149.037 78.135 148.872 77.925 148.652 77.775C148.432 77.625 148.167 77.55 147.857 77.55C147.547 77.55 147.282 77.625 147.062 77.775C146.842 77.925 146.672 78.135 146.552 78.405C146.442 78.665 146.387 78.975 146.387 79.335V79.365ZM153.527 84C153.427 84 153.342 83.965 153.272 83.895C153.202 83.825 153.167 83.735 153.167 83.625V76.575C153.167 76.465 153.202 76.375 153.272 76.305C153.342 76.235 153.427 76.2 153.527 76.2H154.997C155.107 76.2 155.197 76.235 155.267 76.305C155.337 76.375 155.372 76.465 155.372 76.575V77.16C155.632 76.84 155.967 76.575 156.377 76.365C156.787 76.155 157.287 76.05 157.877 76.05C158.467 76.05 158.982 76.185 159.422 76.455C159.872 76.715 160.222 77.1 160.472 77.61C160.732 78.11 160.862 78.72 160.862 79.44V83.625C160.862 83.735 160.822 83.825 160.742 83.895C160.672 83.965 160.587 84 160.487 84H158.897C158.787 84 158.697 83.965 158.627 83.895C158.557 83.825 158.522 83.735 158.522 83.625V79.53C158.522 79 158.392 78.59 158.132 78.3C157.882 78 157.512 77.85 157.022 77.85C156.552 77.85 156.177 78 155.897 78.3C155.617 78.59 155.477 79 155.477 79.53V83.625C155.477 83.735 155.442 83.825 155.372 83.895C155.302 83.965 155.217 84 155.117 84H153.527ZM166.321 84C165.701 84 165.171 83.9 164.731 83.7C164.291 83.49 163.956 83.17 163.726 82.74C163.506 82.31 163.396 81.77 163.396 81.12V77.97H162.226C162.116 77.97 162.026 77.935 161.956 77.865C161.886 77.795 161.851 77.705 161.851 77.595V76.575C161.851 76.465 161.886 76.375 161.956 76.305C162.026 76.235 162.116 76.2 162.226 76.2H163.396V73.725C163.396 73.615 163.431 73.525 163.501 73.455C163.581 73.385 163.671 73.35 163.771 73.35H165.241C165.351 73.35 165.441 73.385 165.511 73.455C165.581 73.525 165.616 73.615 165.616 73.725V76.2H167.491C167.591 76.2 167.676 76.235 167.746 76.305C167.816 76.375 167.851 76.465 167.851 76.575V77.595C167.851 77.705 167.816 77.795 167.746 77.865C167.676 77.935 167.591 77.97 167.491 77.97H165.616V80.94C165.616 81.32 165.681 81.62 165.811 81.84C165.951 82.05 166.191 82.155 166.531 82.155H167.626C167.726 82.155 167.811 82.19 167.881 82.26C167.951 82.33 167.986 82.415 167.986 82.515V83.625C167.986 83.735 167.951 83.825 167.881 83.895C167.811 83.965 167.726 84 167.626 84H166.321Z" fill="#031926"/>
<rect x="416.5" y="63.75" width="52" height="30" rx="10" fill="#E7E7E7"/>
<rect x="417.125" y="64.375" width="50.75" height="28.75" rx="9.375" stroke="black" stroke-opacity="0.25" stroke-width="1.25"/>
<path opacity="0.5" d="M449.467 87.375L443.692 81.3375C443.233 81.7208 442.706 82.0243 442.11 82.2479C441.515 82.4715 440.881 82.5833 440.208 82.5833C438.543 82.5833 437.134 81.9804 435.98 80.7745C434.827 79.5686 434.25 78.0951 434.25 76.3542C434.25 74.6132 434.827 73.1398 435.98 71.9339C437.134 70.728 438.543 70.125 440.208 70.125C441.874 70.125 443.283 70.728 444.436 71.9339C445.59 73.1398 446.167 74.6132 446.167 76.3542C446.167 77.0569 446.06 77.7198 445.846 78.3427C445.632 78.9656 445.342 79.5167 444.975 79.9958L450.75 86.0333L449.467 87.375ZM440.208 80.6667C441.354 80.6667 442.328 80.2474 443.13 79.4089C443.932 78.5703 444.333 77.5521 444.333 76.3542C444.333 75.1562 443.932 74.138 443.13 73.2995C442.328 72.4609 441.354 72.0417 440.208 72.0417C439.063 72.0417 438.089 72.4609 437.286 73.2995C436.484 74.138 436.083 75.1562 436.083 76.3542C436.083 77.5521 436.484 78.5703 437.286 79.4089C438.089 80.2474 439.063 80.6667 440.208 80.6667Z" fill="#031926"/>
<rect x="478.5" y="63.75" width="52" height="30" rx="10" fill="#209E61"/>
<path d="M503.582 86.4167C503.322 86.4167 503.105 86.3248 502.929 86.1412C502.753 85.9575 502.665 85.7299 502.665 85.4583V79.7083L497.349 72.6167C497.12 72.2972 497.085 71.9618 497.246 71.6104C497.406 71.259 497.685 71.0833 498.082 71.0833H510.915C511.313 71.0833 511.591 71.259 511.752 71.6104C511.912 71.9618 511.878 72.2972 511.649 72.6167L506.332 79.7083V85.4583C506.332 85.7299 506.244 85.9575 506.068 86.1412C505.893 86.3248 505.675 86.4167 505.415 86.4167H503.582Z" fill="white"/>
<rect x="540.5" y="63.75" width="52" height="30" rx="10" fill="#209E61"/>
<path d="M557.334 83.5417L560.771 73.9584H562.742L566.18 83.5417H564.301L563.521 81.2417H559.992L559.259 83.5417H557.334ZM560.542 79.6125H562.926L561.826 76.0188H561.688L560.542 79.6125ZM568.059 83.5417V81.7209L572.688 75.6834H568.242V73.9584H574.705V75.7792L570.121 81.8167H574.751V83.5417H568.059ZM563.751 72.0417L566.501 69.1667L569.251 72.0417H563.751ZM566.501 88.3334L563.751 85.4584H569.251L566.501 88.3334Z" fill="white"/>
<rect x="70" y="133.75" width="522.5" height="125" rx="10" fill="#E7E7E7"/>
<rect x="70" y="278.75" width="522.5" height="40" rx="10" fill="#E7E7E7"/>
<rect x="70" y="328.75" width="522.5" height="40" rx="10" fill="#E7E7E7"/>
<rect x="70" y="388.75" width="522.5" height="125" rx="10" fill="#E7E7E7"/>
</svg>
