<?xml version="1.0" encoding="UTF-8" standalone="no"?><!-- Generator: Gravit.io --><svg xmlns="http://www.w3.org/2000/svg" xmlns:xlink="http://www.w3.org/1999/xlink" style="isolation:isolate" viewBox="0 0 125 125" width="125pt" height="125pt"><defs><clipPath id="_clipPath_5rHX4QuCc4wkj0Oma8hfGsmY5osxeKtN"><rect width="125" height="125"/></clipPath></defs><g clip-path="url(#_clipPath_5rHX4QuCc4wkj0Oma8hfGsmY5osxeKtN)"><clipPath id="_clipPath_doo4v6XeBKDZRUmIZfqxtoH4P9Pgxrb0"><rect x="0" y="0" width="125" height="125" transform="matrix(1,0,0,1,0,0)" fill="rgb(255,255,255)"/></clipPath><g clip-path="url(#_clipPath_doo4v6XeBKDZRUmIZfqxtoH4P9Pgxrb0)"><path d=" M 112.43 23.85 L 105.226 23.85 C 103.685 16.349 97.014 10.651 89.042 10.651 C 81.07 10.651 74.399 16.349 72.857 23.85 L 52.726 23.85 C 51.185 16.349 44.514 10.651 36.542 10.651 C 28.57 10.651 21.899 16.349 20.357 23.85 L 13.154 23.85 C 8.732 23.85 4.75 27.292 4.75 31.715 L 4.75 106.285 C 4.75 110.708 8.732 114.35 13.154 114.35 L 112.43 114.35 C 116.853 114.35 120.251 110.708 120.251 106.285 L 120.251 31.715 C 120.25 27.292 116.852 23.85 112.43 23.85 Z  M 51.75 96.35 L 20.25 96.35 L 20.25 57.85 L 51.75 57.85 L 51.75 96.35 Z  M 78.25 96.35 L 63.25 96.35 L 63.25 82.85 L 78.25 82.85 L 78.25 96.35 Z  M 78.25 71.85 L 63.25 71.85 L 63.25 57.85 L 78.25 57.85 L 78.25 71.85 Z  M 104.75 96.35 L 89.75 96.35 L 89.75 82.85 L 104.75 82.85 L 104.75 96.35 Z  M 104.75 71.85 L 89.75 71.85 L 89.75 57.85 L 104.75 57.85 L 104.75 71.85 Z " fill="rgb(255,170,165)"/></g></g></svg>