<?xml version="1.0" encoding="UTF-8" standalone="no"?><!-- Generator: Gravit.io --><svg xmlns="http://www.w3.org/2000/svg" xmlns:xlink="http://www.w3.org/1999/xlink" style="isolation:isolate" viewBox="0 0 125 125" width="125pt" height="125pt"><defs><clipPath id="_clipPath_kv9eIs4c6p1FHE5CaacijgSOznIKhg4H"><rect width="125" height="125"/></clipPath></defs><g clip-path="url(#_clipPath_kv9eIs4c6p1FHE5CaacijgSOznIKhg4H)"><clipPath id="_clipPath_nNCt4T5eZSmWgmlrergwcRxZcxc012yw"><rect x="0" y="0" width="125" height="125" transform="matrix(1,0,0,1,0,0)" fill="rgb(255,255,255)"/></clipPath><g clip-path="url(#_clipPath_nNCt4T5eZSmWgmlrergwcRxZcxc012yw)"><path d=" M 116.376 59.124 L 66.429 10.985 C 65.379 9.974 63.984 9.417 62.501 9.417 C 61.016 9.417 59.621 9.974 58.572 10.985 L 8.625 59.124 C 6.952 60.736 7.147 62.122 7.412 62.78 C 7.678 63.438 8.47 64.583 10.793 64.583 L 16.417 64.583 L 16.417 107.368 C 16.417 111.821 20.255 115.583 24.601 115.583 L 49.917 115.583 L 49.917 86.583 L 74.417 86.583 L 74.417 115.583 L 100.399 115.583 C 104.759 115.583 108.417 111.744 108.417 107.368 L 108.417 64.583 L 114.207 64.583 C 116.53 64.583 117.322 63.438 117.588 62.78 C 117.853 62.122 118.049 60.737 116.376 59.124 Z " fill="rgb(168,230,207)"/></g></g></svg>