<svg xmlns="http://www.w3.org/2000/svg" width="40" height="40" viewBox="0 0 40 40"><g transform="translate(-1094 -27)"><rect width="40" height="40" rx="8" transform="translate(1094 27)" fill="rgba(158,61,47,0.1)"/><path d="M8,2A6.007,6.007,0,0,0,2,8V32a6.007,6.007,0,0,0,6,6H32a6.007,6.007,0,0,0,6-6V8a6.007,6.007,0,0,0-6-6H8M8,0H32a8,8,0,0,1,8,8V32a8,8,0,0,1-8,8H8a8,8,0,0,1-8-8V8A8,8,0,0,1,8,0Z" transform="translate(1094 27)" fill="#9e3d2f"/><g transform="translate(1102 35)"><path d="M0,0H24V24H0Z" fill="none"/><path d="M19,9l1.25-2.75L23,5,20.25,3.75,19,1,17.75,3.75,15,5l2.75,1.25Zm-7.5.5L9,4,6.5,9.5,1,12l5.5,2.5L9,20l2.5-5.5L17,12ZM19,15l-1.25,2.75L15,19l2.75,1.25L19,23l1.25-2.75L23,19l-2.75-1.25Z" fill="#9e3d2f"/></g></g></svg>