<svg xmlns="http://www.w3.org/2000/svg" width="40" height="40" viewBox="0 0 40 40"><g transform="translate(-1094 -27)"><rect width="40" height="40" rx="8" transform="translate(1094 27)" fill="rgba(158,61,47,0.1)"/><path d="M8,2A6.007,6.007,0,0,0,2,8V32a6.007,6.007,0,0,0,6,6H32a6.007,6.007,0,0,0,6-6V8a6.007,6.007,0,0,0-6-6H8M8,0H32a8,8,0,0,1,8,8V32a8,8,0,0,1-8,8H8a8,8,0,0,1-8-8V8A8,8,0,0,1,8,0Z" transform="translate(1094 27)" fill="#9e3d2f"/><g transform="translate(1102 35)"><path d="M0,0H24V24H0Z" fill="none"/><path d="M8.7,15.9,4.8,12,8.7,8.1A.99.99,0,1,0,7.3,6.7L2.71,11.29a1,1,0,0,0,0,1.41L7.3,17.3a.99.99,0,0,0,1.4-1.4Zm6.6,0L19.2,12,15.3,8.1a.99.99,0,0,1,1.4-1.4l4.59,4.59a1,1,0,0,1,0,1.41L16.7,17.3a.99.99,0,0,1-1.4-1.4Z" fill="#9e3d2f"/></g></g></svg>