<svg xmlns="http://www.w3.org/2000/svg" width="40" height="40" viewBox="0 0 40 40"><g transform="translate(-1094 -27)"><rect width="40" height="40" rx="8" transform="translate(1094 27)" fill="rgba(153,141,235,0.1)"/><path d="M8,2A6.007,6.007,0,0,0,2,8V32a6.007,6.007,0,0,0,6,6H32a6.007,6.007,0,0,0,6-6V8a6.007,6.007,0,0,0-6-6H8M8,0H32a8,8,0,0,1,8,8V32a8,8,0,0,1-8,8H8a8,8,0,0,1-8-8V8A8,8,0,0,1,8,0Z" transform="translate(1094 27)" fill="#998deb"/><g transform="translate(1100.667 33.667)"><path d="M0,0H26.667V26.667H0Z" fill="none"/><path d="M7.556,15.223a3.329,3.329,0,0,0-3.333,3.333A2.255,2.255,0,0,1,2,20.778,5.749,5.749,0,0,0,6.444,23a4.443,4.443,0,0,0,4.444-4.444A3.329,3.329,0,0,0,7.556,15.223ZM22.789,4.811,21.3,3.323a1.107,1.107,0,0,0-1.567,0L9.778,13.278l3.056,3.056,9.956-9.956A1.107,1.107,0,0,0,22.789,4.811Z" transform="translate(0.222 0.333)" fill="#998deb"/></g></g></svg>