<svg xmlns="http://www.w3.org/2000/svg" width="32" height="31.998" viewBox="0 0 32 31.998"><path d="M54.887,33.847c0-.02-.008-.04-.011-.06-.007-.039-.014-.078-.024-.115s-.014-.045-.022-.066-.022-.067-.035-.1-.02-.045-.031-.067a1,1,0,0,0-.047-.091c-.013-.022-.026-.043-.039-.064s-.038-.056-.058-.083-.031-.04-.047-.06-.045-.05-.069-.074-.036-.037-.055-.054-.051-.045-.078-.066-.041-.032-.063-.047l-.023-.017L39.663,23.133a1.375,1.375,0,0,0-1.525,0l-14.625,9.75-.023.017c-.022.015-.042.031-.062.047s-.053.043-.078.066-.037.035-.055.054-.047.049-.068.074-.032.039-.047.06-.04.055-.058.083-.027.042-.04.064-.032.06-.047.091-.021.045-.031.067-.025.066-.035.1-.015.044-.022.066c-.01.038-.017.076-.024.115,0,.02-.009.04-.011.06a1.3,1.3,0,0,0-.013.179v9.75a1.4,1.4,0,0,0,.013.18c0,.019.008.04.011.059.007.039.014.078.024.116.006.023.014.045.022.066s.022.067.035.1.02.045.031.066.03.062.047.092.026.042.04.063.038.056.058.083.031.041.047.06.044.05.068.074.036.037.055.053.051.045.078.066.041.032.062.047l.023.017,14.625,9.75a1.372,1.372,0,0,0,1.525,0L54.288,44.92l.023-.017c.022-.015.042-.031.063-.047s.052-.043.078-.066.037-.035.055-.053.047-.049.069-.074.032-.039.047-.06.04-.055.058-.083l.039-.063c.017-.03.032-.061.047-.092s.022-.044.031-.066.025-.067.035-.1.016-.044.022-.066c.01-.038.017-.077.024-.116,0-.019.009-.04.011-.059a1.4,1.4,0,0,0,.012-.18v-9.75A1.378,1.378,0,0,0,54.887,33.847Zm-14.613-7,10.774,7.182-4.812,3.219L40.275,33.26V26.847Zm-2.75,0V33.26l-5.961,3.988-4.813-3.219ZM25.651,36.6l3.44,2.3-3.44,2.3ZM37.525,50.957,26.752,43.775l4.813-3.219,5.961,3.987Zm1.375-8.8L34.037,38.9,38.9,35.649,43.763,38.9Zm1.375,8.8V44.543l5.961-3.987,4.813,3.219ZM52.15,41.2l-3.44-2.3,3.44-2.3Z" transform="translate(-22.9 -22.903)" fill="#fff"/></svg>