<svg id="cl_logo" xmlns="http://www.w3.org/2000/svg" xmlns:xlink="http://www.w3.org/1999/xlink" width="49.104" height="32.736" viewBox="0 0 49.104 32.736">
  <defs>
    <linearGradient id="linear-gradient" x1="0.818" y1="0.156" x2="0.35" y2="0.928" gradientUnits="objectBoundingBox">
      <stop offset="0" stop-color="#209e61"/>
      <stop offset="1" stop-color="#197b4b"/>
    </linearGradient>
    <linearGradient id="linear-gradient-2" x1="0.215" y1="0.908" x2="0.672" y2="0.253" xlink:href="#linear-gradient"/>
    <linearGradient id="linear-gradient-3" x1="0.667" y1="-0.199" x2="0.304" y2="0.936" xlink:href="#linear-gradient"/>
  </defs>
  <path id="Path_82" data-name="Path 82" d="M85.627,74a8.108,8.108,0,0,1,8.108,8.108v8.259a8.184,8.184,0,0,0-8.184-8.184H77.368a8.184,8.184,0,0,0-7.819,5.76.119.119,0,0,1,0,.05c-.038.107-.063.214-.094.327a7.553,7.553,0,0,0-.214,1.209,1.764,1.764,0,0,1-.038.441,1.394,1.394,0,0,0,0,.4,8.134,8.134,0,0,0,.258,2.046c.069.258.145.516.239.768a8.466,8.466,0,0,0,.491,1.089c.126.233.264.453.409.674a7.458,7.458,0,0,0,.472.63,8.013,8.013,0,0,0,1.089,1.089,7.459,7.459,0,0,0,.63.472c.22.145.441.283.674.409a8.468,8.468,0,0,0,1.089.491c.252.094.51.17.768.239a8.134,8.134,0,0,0,2.046.277H93.736v8.184H77.368a16.368,16.368,0,0,1,0-32.736Z" transform="translate(-61 -74)" fill="url(#linear-gradient)"/>
  <path id="Path_83" data-name="Path 83" d="M116.368,111.552h-8.184A8.184,8.184,0,0,1,100,103.368V87a8.184,8.184,0,0,1,8.184,8.184v8.184a8.184,8.184,0,0,0,8.184,8.184Z" transform="translate(-75.448 -78.816)" fill="url(#linear-gradient-2)"/>
  <path id="Path_84" data-name="Path 84" d="M129.368,117.092h0a4.092,4.092,0,0,1-4.092,4.092h-4.092A8.184,8.184,0,0,1,113,113h12.276a4.092,4.092,0,0,1,4.092,4.092Z" transform="translate(-80.264 -88.448)" fill="url(#linear-gradient-3)"/>
</svg>
