<?xml version="1.0" encoding="UTF-8" standalone="no"?><!-- Generator: Gravit.io --><svg xmlns="http://www.w3.org/2000/svg" xmlns:xlink="http://www.w3.org/1999/xlink" style="isolation:isolate" viewBox="0 0 125 125" width="125pt" height="125pt"><defs><clipPath id="_clipPath_8PndQLzzzMTfTD4kiJABMzhbrvJ7hB3f"><rect width="125" height="125"/></clipPath></defs><g clip-path="url(#_clipPath_8PndQLzzzMTfTD4kiJABMzhbrvJ7hB3f)"><clipPath id="_clipPath_6XlCEIGwfnxTcYbSdiXUJxZcwr1wzy50"><rect x="0" y="0" width="125" height="125" transform="matrix(1,0,0,1,0,0)" fill="rgb(255,255,255)"/></clipPath><g clip-path="url(#_clipPath_6XlCEIGwfnxTcYbSdiXUJxZcwr1wzy50)"><path d=" M 106.368 6.501 L 27.938 6.501 C 23.527 6.501 19.868 9.912 19.868 14.323 L 19.868 21.365 C 14.368 22.081 10.632 26.548 10.632 31.949 C 10.632 37.351 14.368 41.819 19.868 42.534 L 19.868 51.979 C 14.868 52.868 11.044 57.242 11.044 62.5 C 11.044 67.758 14.868 72.133 19.868 73.022 L 19.868 82.466 C 14.368 83.182 10.632 87.649 10.632 93.051 C 10.632 98.453 14.368 102.92 19.868 103.636 L 19.868 110.677 C 19.868 115.088 23.527 118.5 27.938 118.5 L 106.369 118.5 C 110.78 118.5 114.369 115.089 114.369 110.677 L 114.369 14.323 C 114.368 9.912 110.78 6.501 106.368 6.501 Z  M 93.868 100.001 L 40.368 100.001 L 40.368 90.001 L 93.868 90.001 L 93.868 100.001 Z  M 92.737 71.169 L 90.31 73.447 C 89.312 74.231 88.157 74.886 86.922 75.368 C 85.771 75.814 84.639 76.096 83.46 76.235 C 82.917 76.296 70.352 77.47 54.76 61.883 C 43.485 50.603 39.327 42.292 40.427 33.197 C 40.552 32.065 40.835 30.933 41.285 29.745 C 41.772 28.501 42.426 27.346 43.21 26.343 L 45.489 23.926 C 47.207 22.209 49.948 22.158 51.596 23.811 L 59.906 32.121 C 61.559 33.772 61.508 36.511 59.795 38.227 L 58.412 39.61 L 55.605 42.413 C 55.749 42.673 55.897 42.942 56.055 43.22 C 57.521 45.865 59.531 49.49 63.349 53.309 C 67.159 57.118 70.774 59.122 73.419 60.589 C 73.707 60.751 73.981 60.904 74.245 61.048 L 78.431 56.863 C 80.143 55.15 82.881 55.099 84.537 56.746 L 92.844 65.057 C 94.495 66.714 94.444 69.451 92.737 71.169 Z " fill="rgb(220,237,193)"/></g></g></svg>