<?xml version="1.0" encoding="UTF-8" standalone="no"?><!-- Generator: Gravit.io --><svg xmlns="http://www.w3.org/2000/svg" xmlns:xlink="http://www.w3.org/1999/xlink" style="isolation:isolate" viewBox="0 0 125 125" width="125pt" height="125pt"><defs><clipPath id="_clipPath_hPsH8v3AeJJQMnlH87ITaYKjDdkXTh1t"><rect width="125" height="125"/></clipPath></defs><g clip-path="url(#_clipPath_hPsH8v3AeJJQMnlH87ITaYKjDdkXTh1t)"><clipPath id="_clipPath_bYNHzK4iGYguskGYWWSLbmjxyYJi6HdM"><rect x="0" y="0" width="125" height="125" transform="matrix(1,0,0,1,0,0)" fill="rgb(255,255,255)"/></clipPath><g clip-path="url(#_clipPath_bYNHzK4iGYguskGYWWSLbmjxyYJi6HdM)"><path d=" M 79.008 112.554 L 79.741 109.854 L 83.892 107.845 L 86.924 109.556 C 88.277 110.323 89.848 110.722 91.468 110.722 C 93.998 110.722 96.43 109.738 98.141 108.027 L 108.477 97.69 C 111.392 94.775 112.033 90.056 109.997 86.471 L 108.48 83.798 L 110.2 79.697 L 112.875 78.895 C 116.85 77.798 119.501 74.01 119.501 69.888 L 119.501 55.271 C 119.501 52.853 118.704 50.439 116.912 48.647 C 115.765 47.501 114.486 46.678 112.926 46.25 L 110.22 45.567 L 108.442 40.763 L 110.063 37.929 C 112.1 34.343 111.468 29.626 108.553 26.71 L 98.22 16.373 C 96.51 14.663 94.079 13.681 91.55 13.681 C 89.976 13.681 88.449 14.064 87.125 14.788 L 82.848 16.68 C 81.428 15.912 80.001 15.13 79.174 14.661 L 78.431 11.968 C 78.018 10.471 77.195 9.27 76.048 8.124 C 74.256 6.333 71.842 5.5 69.425 5.5 L 54.806 5.5 C 50.684 5.5 46.896 8.189 45.802 12.164 L 44.966 15.092 L 41.583 17.01 L 38.594 15.04 L 38.462 14.948 C 37.11 14.181 35.539 13.77 33.918 13.77 C 31.388 13.77 28.955 14.749 27.244 16.46 L 16.908 26.793 C 13.995 29.707 13.355 34.423 15.388 38.01 L 16.908 40.686 L 15.117 44.995 L 12.48 45.686 C 8.509 46.783 5.5 50.571 5.5 54.693 L 5.5 69.311 C 5.5 71.729 6.652 74.144 8.443 75.935 C 9.588 77.08 11.046 77.904 12.543 78.319 L 14.922 78.966 L 16.916 83.816 L 15.465 86.386 C 13.429 89.972 14.071 94.691 16.987 97.605 L 27.325 107.943 C 29.036 109.654 31.469 110.635 33.998 110.635 C 35.62 110.635 37.193 110.229 38.545 109.461 L 41.111 108.004 L 45.666 109.89 L 46.377 112.471 C 46.79 113.969 47.615 115.451 48.76 116.595 C 50.552 118.387 52.966 119.5 55.383 119.5 L 70.003 119.5 C 74.125 119.5 77.913 116.529 79.008 112.554 Z  M 81.275 80.657 C 76.334 85.598 69.763 88.319 62.775 88.319 C 55.787 88.319 49.217 85.598 44.275 80.657 C 34.074 70.457 34.074 53.859 44.275 43.658 C 49.216 38.718 55.787 35.996 62.775 35.996 C 69.763 35.996 76.333 38.718 81.275 43.658 C 91.475 53.859 91.475 70.457 81.275 80.657 Z " fill="rgb(255,139,148)"/></g></g></svg>