<?xml version="1.0" encoding="UTF-8" standalone="no"?><!-- Generator: Gravit.io --><svg xmlns="http://www.w3.org/2000/svg" xmlns:xlink="http://www.w3.org/1999/xlink" style="isolation:isolate" viewBox="0 0 500 500" width="500pt" height="500pt"><defs><clipPath id="_clipPath_JXEa3uaMLwDDduKFtj6tDjmTCCn5sJBt"><rect width="500" height="500"/></clipPath></defs><g clip-path="url(#_clipPath_JXEa3uaMLwDDduKFtj6tDjmTCCn5sJBt)"><path d=" M 194.857 264.445 C 184.676 279.933 173.895 294.979 161.032 308.512 C 130.727 340.391 91.179 348.856 48.51 346.688 C 10.201 344.738 10.389 404.161 48.51 406.1 C 128.676 410.172 185.341 375.536 230.454 316.571 C 223.025 306.887 216.16 297.133 209.878 287.733 C 204.708 280.009 199.706 272.113 194.857 264.445 Z " fill="rgb(255,255,255)"/><path d=" M 272.25 217.166 C 276.368 223.641 280.436 230.008 284.539 236.249 C 292.06 225.865 300.083 215.841 309.111 206.52 C 331.901 182.996 357.865 173.33 386.373 170.595 C 384.564 172.774 382.808 174.993 380.985 177.161 C 370.57 189.538 368.813 206.994 380.985 219.171 C 391.694 229.883 412.559 231.574 422.995 219.171 C 439.066 200.078 454.418 180.38 470.489 161.287 C 480.955 150.768 484.962 133.274 472.008 119.241 L 418.542 61.314 C 392.507 33.111 350.599 75.223 376.531 103.324 L 383.472 110.843 C 354.31 112.93 326.229 120.349 300.3 137.202 C 280.928 149.796 264.638 165.981 250.105 183.714 C 253.024 187.807 255.939 191.966 258.808 196.308 C 263.395 203.25 267.894 210.327 272.25 217.166 Z " fill="rgb(255,255,255)"/><path d=" M 423 280.827 C 417.968 274.855 410.523 272.149 402.952 272.149 C 394.817 272.149 386.535 275.282 380.99 280.827 C 368.818 293.009 370.575 310.462 380.99 322.837 C 382.813 325.006 384.57 327.23 386.378 329.408 C 357.87 326.677 331.901 317.003 309.116 293.481 C 296.152 280.1 285.215 265.303 274.946 250.003 C 264.994 235.178 255.68 219.875 245.799 204.908 C 243.91 202.049 241.97 199.304 240.041 196.537 C 195.721 132.958 140.294 93.576 61.134 93.576 C 56.996 93.576 52.786 93.685 48.515 93.898 C 11.014 95.804 10.227 153.353 46.692 153.353 C 47.292 153.353 47.896 153.335 48.515 153.305 C 52.633 153.097 56.711 152.988 60.763 152.988 C 98.721 152.988 133.652 162.681 161.033 191.489 C 177.867 209.204 191.151 229.495 204.16 250.003 C 210.33 259.728 216.444 269.492 222.847 279.069 C 228.351 287.305 234.059 295.486 240.026 303.464 C 257.038 326.193 276.334 347.221 300.297 362.8 C 326.226 379.654 354.307 387.072 383.469 389.154 L 376.528 396.675 C 356.637 418.227 376.645 448.014 398.8 448.014 C 405.533 448.014 412.47 445.256 418.538 438.686 L 472.009 380.761 C 484.963 366.726 480.956 349.232 470.49 338.715 C 454.423 319.612 439.073 299.925 423 280.827 Z " fill="rgb(255,255,255)"/></g></svg>