<?xml version="1.0" encoding="UTF-8" standalone="no"?><!-- Generator: Gravit.io --><svg xmlns="http://www.w3.org/2000/svg" xmlns:xlink="http://www.w3.org/1999/xlink" style="isolation:isolate" viewBox="0 0 488 488" width="488pt" height="488pt"><defs><clipPath id="_clipPath_7dC1Dus87LCMnvgnZsCW7c68fIYoGIIR"><rect width="488" height="488"/></clipPath></defs><g clip-path="url(#_clipPath_7dC1Dus87LCMnvgnZsCW7c68fIYoGIIR)"><g><g><path d=" M 414.61 211.775 C 411.204 202.217 402.147 195.842 392 195.86 C 381.863 195.891 372.842 202.298 369.474 211.86 L 320 211.86 L 320 179.86 L 352 179.86 C 356.417 179.861 359.999 176.281 360 171.864 C 360 171.863 360 171.861 360 171.86 L 360 138.386 C 372.497 133.968 379.047 120.256 374.629 107.758 C 370.211 95.261 356.499 88.711 344.001 93.129 C 331.503 97.547 324.954 111.259 329.372 123.757 C 331.788 130.592 337.165 135.969 344 138.386 L 344 163.861 L 320 163.861 L 320 147.861 C 320.001 143.444 316.421 139.862 312.004 139.861 C 312.003 139.861 312.001 139.861 312 139.861 L 296 139.861 L 296 98.385 C 308.497 93.967 315.047 80.255 310.629 67.757 C 306.211 55.26 292.499 48.71 280.001 53.128 C 267.504 57.546 260.954 71.258 265.372 83.756 C 267.788 90.591 273.165 95.968 280 98.385 L 280 139.86 L 248 139.86 L 248 12.141 C 248.001 7.724 244.421 4.142 240.004 4.141 C 240.003 4.141 240.001 4.141 240 4.141 C 141.309 4.141 64 75.594 64 166.805 C 64 210.133 81.199 267.5 108.891 316.508 C 113.864 325.305 120.352 334.555 127.219 344.352 C 141.74 365.051 157.9 388.328 159.657 408.59 C 153.507 412.937 149.908 420.048 150.047 427.578 C 150.07 432.987 151.938 438.227 155.342 442.431 C 150.607 447.103 147.959 453.489 148 460.141 C 148.014 473.39 158.751 484.127 172 484.141 L 308 484.141 C 321.339 484.058 332.086 473.178 332.003 459.839 C 332.002 459.752 332.001 459.665 332 459.578 C 331.995 453.071 329.336 446.848 324.637 442.346 C 328.085 437.98 329.958 432.578 329.953 427.015 C 329.929 414.344 319.638 404.092 306.967 404.116 C 306.629 404.117 306.291 404.125 305.953 404.14 L 248 404.14 L 248 251.859 L 264 251.859 L 264 275.859 C 263.999 280.276 267.579 283.858 271.996 283.859 C 271.997 283.859 271.999 283.859 272 283.859 L 296 283.859 L 296 293.333 C 283.503 297.751 276.954 311.464 281.373 323.96 C 285.792 336.456 299.504 343.006 312 338.587 C 324.497 334.169 331.046 320.456 326.627 307.96 C 324.211 301.125 318.834 295.749 312 293.333 L 312 275.859 C 312.001 271.442 308.421 267.86 304.004 267.859 C 304.003 267.859 304.001 267.859 304 267.859 L 280 267.859 L 280 251.859 L 312 251.859 C 316.417 251.86 319.999 248.28 320 243.863 C 320 243.862 320 243.86 320 243.859 L 320 227.859 L 369.475 227.859 C 373.917 240.323 387.621 246.826 400.085 242.384 C 412.548 237.943 419.051 224.239 414.61 211.775 Z  M 352 107.859 C 356.418 107.859 360 111.441 360 115.859 C 360 120.277 356.418 123.859 352 123.859 C 347.582 123.859 344 120.277 344 115.859 C 344.004 111.443 347.584 107.864 352 107.859 Z  M 140.32 335.164 C 133.679 325.695 127.41 316.758 122.82 308.633 C 96.809 262.594 80 206.922 80 166.805 C 80 87.024 146.137 24.008 232 20.313 L 232 76.201 C 229.876 76.36 227.709 76.553 225.391 76.837 C 221.995 77.25 219.238 79.778 218.532 83.126 L 216.094 94.72 C 214.086 95.197 212.084 95.736 210.086 96.337 L 202.113 87.446 C 199.829 84.891 196.171 84.077 193.019 85.423 C 184.065 89.284 175.614 94.219 167.851 100.118 C 165.118 102.178 163.999 105.749 165.066 109.001 L 168.738 120.189 C 167.226 121.611 165.754 123.087 164.328 124.595 L 153.152 120.923 C 149.901 119.87 146.339 120.985 144.269 123.704 C 138.362 131.469 133.423 139.924 129.562 148.884 C 128.218 152.036 129.032 155.693 131.585 157.978 L 140.48 165.947 C 139.882 167.924 139.347 169.905 138.875 171.892 L 126.434 174.376 C 122.694 175.122 120.001 178.406 120.001 182.22 L 120.001 209.5 C 120.001 213.314 122.694 216.598 126.435 217.344 L 138.876 219.828 C 139.349 221.812 139.884 223.794 140.481 225.773 L 131.583 233.742 C 129.033 236.029 128.22 239.684 129.56 242.836 C 133.422 251.795 138.36 260.251 144.267 268.016 C 146.335 270.738 149.899 271.853 153.15 270.797 L 164.326 267.125 C 165.756 268.633 167.224 270.109 168.736 271.531 L 165.064 282.703 C 163.998 285.954 165.115 289.523 167.845 291.586 C 175.608 297.494 184.063 302.434 193.021 306.297 C 196.173 307.635 199.827 306.822 202.115 304.274 L 210.088 295.383 C 212.084 295.985 214.087 296.524 216.096 297 L 218.53 308.586 C 219.233 311.937 221.991 314.469 225.389 314.883 C 227.71 315.167 229.878 315.36 232.002 315.519 L 232.002 404.141 L 175.312 404.141 C 172.041 380.564 155.341 356.581 140.32 335.164 Z  M 168 195.859 C 168.051 232.503 195.587 263.278 232 267.387 L 232 294.898 L 230.676 288.601 C 230.008 285.412 227.473 282.946 224.266 282.367 C 219.524 281.504 214.862 280.247 210.329 278.609 C 209.46 278.3 208.544 278.142 207.622 278.14 C 205.348 278.14 203.181 279.109 201.665 280.804 L 194.142 289.195 C 189.973 287.112 185.95 284.749 182.099 282.125 L 185.572 271.555 C 186.589 268.457 185.626 265.053 183.138 262.946 C 179.449 259.823 176.024 256.4 172.9 252.712 C 170.787 250.241 167.394 249.285 164.302 250.29 L 153.736 253.767 C 151.11 249.915 148.747 245.89 146.662 241.72 L 155.06 234.197 C 157.482 232.022 158.348 228.598 157.251 225.533 C 155.615 220.999 154.358 216.337 153.493 211.596 C 152.909 208.363 150.407 205.816 147.184 205.174 L 136 202.938 L 136 188.782 L 147.184 186.548 C 150.406 185.907 152.909 183.359 153.493 180.126 C 154.358 175.382 155.615 170.717 157.25 166.18 C 158.349 163.114 157.481 159.689 155.055 157.516 L 146.664 150 C 148.751 145.832 151.113 141.807 153.734 137.953 L 164.304 141.43 C 167.396 142.434 170.788 141.479 172.902 139.008 C 176.034 135.317 179.461 131.887 183.148 128.75 C 185.626 126.647 186.584 123.252 185.57 120.164 L 182.101 109.594 C 185.952 106.971 189.974 104.609 194.14 102.524 L 201.663 110.915 C 203.839 113.335 207.261 114.202 210.327 113.11 C 214.86 111.471 219.522 110.214 224.264 109.352 C 227.47 108.776 230.005 106.313 230.674 103.125 L 232 96.828 L 232 124.331 C 195.587 128.441 168.051 159.215 168 195.859 Z  M 232 140.498 L 232 251.22 C 201.425 246.843 180.187 218.508 184.564 187.933 C 188.085 163.341 207.407 144.019 232 140.498 Z  M 316 460.141 C 315.996 464.557 312.416 468.137 308 468.141 L 172 468.141 C 167.501 468.065 163.915 464.356 163.991 459.857 C 163.993 459.764 163.996 459.671 164 459.578 C 164.004 455.162 167.584 451.582 172 451.578 L 308 451.578 C 312.499 451.654 316.085 455.363 316.009 459.862 C 316.008 459.955 316.005 460.048 316 460.141 Z  M 305.953 420.141 C 309.983 419.769 313.552 422.736 313.923 426.766 C 313.948 427.036 313.958 427.307 313.953 427.578 C 313.949 431.994 310.369 435.574 305.953 435.578 L 174.047 435.578 C 169.548 435.502 165.962 431.794 166.038 427.294 C 166.04 427.201 166.043 427.108 166.047 427.015 C 166.218 423.027 169.59 419.933 173.578 420.105 C 173.735 420.112 173.891 420.124 174.047 420.14 L 305.953 420.14 L 305.953 420.141 Z  M 304 307.859 C 308.418 307.859 312 311.441 312 315.859 C 312 320.277 308.418 323.859 304 323.859 C 299.582 323.859 296 320.277 296 315.859 C 296.004 311.443 299.584 307.864 304 307.859 Z  M 288 67.859 C 292.418 67.859 296 71.441 296 75.859 C 296 80.277 292.418 83.859 288 83.859 C 283.582 83.859 280 80.277 280 75.859 C 280.004 71.443 283.584 67.864 288 67.859 Z  M 304 235.859 L 248 235.859 L 248 155.859 L 304 155.859 L 304 235.859 L 304 235.859 Z  M 392 227.859 C 387.582 227.859 384 224.277 384 219.859 C 384 215.441 387.582 211.859 392 211.859 C 396.418 211.859 400 215.441 400 219.859 C 399.996 224.276 396.416 227.855 392 227.859 Z " fill="rgb(255,99,99)"/></g></g><g><g><path d=" M 317.152 369.828 C 314.331 374.872 311.835 380.091 309.68 385.453 L 324.555 391.344 C 326.461 386.614 328.667 382.011 331.16 377.563 L 317.152 369.828 L 317.152 369.828 Z " fill="rgb(255,99,99)"/></g></g><g><g><path d=" M 335.148 341.648 C 332.004 346.164 328.867 350.757 325.867 355.398 L 339.297 364.086 C 342.203 359.602 345.238 355.164 348.281 350.789 L 335.148 341.648 L 335.148 341.648 Z " fill="rgb(255,99,99)"/></g></g><g><g><path d=" M 353.348 315.031 C 350.649 319.312 347.641 323.742 344.489 328.289 L 357.63 337.414 C 360.931 332.664 364.071 328.031 366.888 323.547 L 353.348 315.031 L 353.348 315.031 Z " fill="rgb(255,99,99)"/></g></g><g><g><path d=" M 368.359 287.148 C 366.066 291.945 363.669 296.687 361.168 301.375 L 375.277 308.922 C 377.894 304.024 380.401 299.063 382.797 294.039 L 368.359 287.148 L 368.359 287.148 Z " fill="rgb(255,99,99)"/></g></g><g><g><path d=" M 380.855 257.789 C 378.996 262.734 377.015 267.687 374.921 272.601 L 389.648 278.867 C 391.828 273.734 393.889 268.583 395.832 263.414 L 380.855 257.789 L 380.855 257.789 Z " fill="rgb(255,99,99)"/></g></g><g><g><path d=" M 415.992 165.211 L 399.992 165.336 L 400 166.805 C 400 171.266 399.793 176.008 399.379 180.883 L 415.324 182.227 C 415.773 176.907 416 171.719 416 166.805 L 415.992 165.211 L 415.992 165.211 Z " fill="rgb(255,99,99)"/></g></g><g><g><path d=" M 411.918 131.156 L 396.34 134.797 C 397.509 139.798 398.398 144.861 399.004 149.961 L 414.895 148.07 C 414.216 142.382 413.222 136.735 411.918 131.156 Z " fill="rgb(255,99,99)"/></g></g><g><g><path d=" M 400.418 98.828 L 386.035 105.828 C 388.284 110.449 390.277 115.191 392.004 120.031 L 407.074 114.672 C 405.152 109.271 402.93 103.981 400.418 98.828 Z " fill="rgb(255,99,99)"/></g></g><g><g><path d=" M 382.117 69.859 L 369.586 79.812 C 372.788 83.844 375.774 88.042 378.531 92.39 L 392.054 83.843 C 388.992 79.009 385.675 74.341 382.117 69.859 Z " fill="rgb(255,99,99)"/></g></g><g><g><path d=" M 358.141 45.445 L 347.946 57.773 C 351.923 61.063 355.729 64.555 359.348 68.234 L 370.754 57.015 C 366.749 52.946 362.539 49.085 358.141 45.445 Z " fill="rgb(255,99,99)"/></g></g><g><g><path d=" M 329.836 26.375 L 322.227 40.453 C 326.797 42.922 331.27 45.625 335.52 48.484 L 344.45 35.203 C 339.773 32.063 334.859 29.094 329.836 26.375 Z " fill="rgb(255,99,99)"/></g></g><g><g><path d=" M 298.477 13.102 L 293.633 28.352 C 298.617 29.93 303.52 31.743 308.211 33.735 L 314.469 19.016 C 309.317 16.82 303.934 14.836 298.477 13.102 Z " fill="rgb(255,99,99)"/></g></g><g><g><path d=" M 265.285 5.758 L 263.238 21.633 C 268.398 22.297 273.562 23.196 278.586 24.313 L 282.047 8.688 C 276.559 7.477 270.918 6.492 265.285 5.758 Z " fill="rgb(255,99,99)"/></g></g><g><g><rect x="16" y="435.859" width="16" height="16" transform="matrix(1,0,0,1,0,0)" fill="rgb(255,99,99)"/></g></g><g><g><rect x="16" y="467.859" width="16" height="16" transform="matrix(1,0,0,1,0,0)" fill="rgb(255,99,99)"/></g></g><g><g><rect x="32" y="451.859" width="16" height="16" transform="matrix(1,0,0,1,0,0)" fill="rgb(255,99,99)"/></g></g><g><g><rect x="0" y="451.859" width="16" height="16" transform="matrix(1,0,0,1,0,0)" fill="rgb(255,99,99)"/></g></g><g><g><rect x="456" y="3.859" width="16" height="16" transform="matrix(1,0,0,1,0,0)" fill="rgb(255,99,99)"/></g></g><g><g><rect x="456" y="35.859" width="16" height="16" transform="matrix(1,0,0,1,0,0)" fill="rgb(255,99,99)"/></g></g><g><g><rect x="472" y="19.859" width="16" height="16" transform="matrix(1,0,0,1,0,0)" fill="rgb(255,99,99)"/></g></g><g><g><rect x="440" y="19.859" width="16" height="16" transform="matrix(1,0,0,1,0,0)" fill="rgb(255,99,99)"/></g></g></g></svg>