<?xml version="1.0" encoding="UTF-8" standalone="no"?><!-- Generator: Gravit.io --><svg xmlns="http://www.w3.org/2000/svg" xmlns:xlink="http://www.w3.org/1999/xlink" style="isolation:isolate" viewBox="0 0 486 486" width="486pt" height="486pt"><defs><clipPath id="_clipPath_wC5fDxmeEOAbtylTByBtGbEYVSgdsdQn"><rect width="486" height="486"/></clipPath></defs><g clip-path="url(#_clipPath_wC5fDxmeEOAbtylTByBtGbEYVSgdsdQn)"><g><g><g><path d=" M 454.39 318.653 C 454.39 296.127 436.065 277.789 413.539 277.789 C 405.123 277.789 397.328 280.418 390.854 284.765 L 390.827 284.765 C 390.827 284.805 390.801 284.805 390.801 284.831 C 388.066 286.707 385.543 288.808 383.323 291.239 L 383.429 291.345 C 374.96 298.955 361.418 311.73 351.588 323.357 C 349.474 317.914 346.251 312.959 342.115 308.916 C 301.78 273.403 253.292 258.975 197.71 258.975 C 179.517 258.975 161.972 260.944 145.378 264.577 C 144.889 258.539 144.545 254.867 144.545 254.867 L 36.353 254.867 C 36.353 254.867 31.61 294.476 31.61 343.307 C 31.61 392.151 36.353 431.747 36.353 431.747 L 144.545 431.747 C 144.545 431.747 145.497 421.442 146.527 406.737 C 162.632 404.028 179.094 408.269 198.159 420.107 C 222.31 435.895 252.063 445.236 284.274 445.236 C 316.934 445.236 344.969 435.605 368.301 419.407 L 368.328 419.433 C 368.579 419.235 368.869 419.024 369.226 418.746 C 375.832 414.083 382.081 408.956 387.894 403.315 C 392.479 398.638 398.649 392.653 407.963 383.563 C 439.156 352.912 443.001 346.821 443.001 346.821 C 443.001 346.821 442.909 346.848 442.882 346.848 C 450.003 339.555 454.39 329.646 454.39 318.653 Z  M 429.565 334.679 C 424.095 340.096 400.948 363.944 394.699 370.061 C 378.461 386.007 370.904 393.459 367.324 397.594 L 367.271 397.515 C 364.787 399.735 362.184 401.769 359.529 403.725 C 338.601 417.874 312.534 426.33 284.287 426.33 C 255.776 426.33 229.511 417.782 208.504 403.407 L 208.345 403.407 C 190.179 392.296 168.868 385.519 147.782 387.593 C 148.615 373.02 149.302 357.047 149.302 343.346 C 149.302 324.321 147.98 300.923 146.752 283.008 C 162.804 279.388 179.94 277.353 197.71 277.353 C 252.143 277.353 300.26 295.348 329.762 323.529 C 333.237 327.4 335.43 332.499 335.43 338.075 C 335.43 350.177 325.601 359.98 313.525 359.98 C 313.062 359.98 312.64 359.861 312.164 359.835 L 312.111 360.112 C 300.828 359.716 283.204 354.973 253.424 343.597 L 246.646 361.301 C 278.144 373.324 298.873 378.715 313.578 379.098 L 313.578 378.966 C 332.008 378.899 347.559 366.639 352.619 349.886 L 352.619 349.913 C 358.987 339.33 382.834 317.253 396.376 305.217 L 396.403 305.243 C 396.548 305.098 396.68 304.992 396.76 304.9 C 399.27 302.641 401.437 300.765 403.009 299.404 C 405.863 297.607 408.822 296.854 413.552 296.854 C 425.627 296.854 435.417 306.683 435.417 318.733 C 435.417 324.718 432.762 330.438 429.565 334.679 Z " fill="rgb(255,99,99)"/></g></g></g><path d=" M 454.3 120.337 C 454.3 128.705 452.882 137.073 450.187 145.016 C 448.485 151.965 445.223 159.766 440.968 166.716 C 436.713 173.95 431.89 180.616 426.501 186.857 C 415.863 199.054 404.233 210.259 391.751 220.329 C 372.887 236.215 352.463 250.54 331.046 262.879 C 309.63 250.54 289.347 236.215 270.342 220.329 C 257.86 210.259 246.23 199.054 235.734 186.857 C 230.203 180.616 225.38 173.95 221.125 166.716 C 216.87 159.766 213.608 151.965 211.481 144.023 C 209.069 136.364 207.793 128.279 207.793 120.195 C 207.367 107.288 209.637 94.239 214.601 82.325 C 220.7 68.851 231.054 57.788 244.102 50.838 C 256.3 44.172 270.058 40.626 283.958 40.768 C 293.035 41.052 301.971 43.463 309.913 47.86 C 316.438 51.122 322.395 55.235 328.068 59.915 C 329.203 60.908 330.195 61.759 331.33 62.752 C 332.607 61.759 333.741 60.766 335.018 59.774 C 340.691 55.235 346.79 51.264 353.314 48.001 C 361.257 43.888 370.051 41.619 378.986 41.335 C 392.886 41.193 406.644 44.739 418.842 51.405 C 431.89 58.355 442.244 69.56 448.059 83.034 C 452.74 94.948 454.867 107.572 454.3 120.337 Z " fill="rgb(255,99,99)"/></g></svg>