<?xml version="1.0" encoding="UTF-8" standalone="no"?><!-- Generator: Gravit.io --><svg xmlns="http://www.w3.org/2000/svg" xmlns:xlink="http://www.w3.org/1999/xlink" style="isolation:isolate" viewBox="0 0 486.742 486.742" width="486.742pt" height="486.742pt"><defs><clipPath id="_clipPath_gbRp0WMZPl68T7WGAKMteLkrEJY6tY11"><rect width="486.742" height="486.742"/></clipPath></defs><g clip-path="url(#_clipPath_gbRp0WMZPl68T7WGAKMteLkrEJY6tY11)"><g><g><path d=" M 33 362.371 L 33 441.271 C 33 446.071 36.9 450.071 41.8 450.071 L 102.8 450.071 C 107.6 450.071 111.6 446.171 111.6 441.271 L 111.6 302.471 L 67.3 346.771 C 57.9 356.071 45.9 361.471 33 362.371 Z " fill="rgb(255,99,99)"/><path d=" M 142 301.471 L 142 441.271 C 142 446.071 145.9 450.071 150.8 450.071 L 211.8 450.071 C 216.6 450.071 220.6 446.171 220.6 441.271 L 220.6 358.971 C 206.7 358.671 193.7 353.171 183.9 343.371 L 142 301.471 L 142 301.471 Z " fill="rgb(255,99,99)"/><path d=" M 251 350.271 L 251 441.271 C 251 446.071 254.9 450.071 259.8 450.071 L 320.8 450.071 C 325.6 450.071 329.6 446.171 329.6 441.271 L 329.6 273.371 L 259.7 343.271 C 257 345.971 254.1 348.271 251 350.271 Z " fill="rgb(255,99,99)"/><path d=" M 432.7 170.171 L 360 242.871 L 360 441.271 C 360 446.071 363.9 450.071 368.8 450.071 L 429.8 450.071 C 434.6 450.071 438.6 446.171 438.6 441.271 L 438.6 175.671 C 436.6 173.971 435.1 172.471 434 171.471 L 432.7 170.171 L 432.7 170.171 Z " fill="rgb(255,99,99)"/><path d=" M 482.6 41.371 C 479.7 38.271 475.3 36.671 469.7 36.671 C 469.2 36.671 468.6 36.671 468.1 36.671 C 439.7 37.971 411.4 39.371 383 40.671 C 379.2 40.871 374 41.071 369.9 45.171 C 368.6 46.471 367.6 47.971 366.8 49.771 C 362.6 58.871 368.5 64.771 371.3 67.571 L 378.4 74.771 C 383.3 79.771 388.3 84.771 393.3 89.671 L 221.7 261.371 L 144.6 184.271 C 140 179.671 133.8 177.071 127.2 177.071 C 120.6 177.071 114.5 179.671 109.9 184.271 L 7.2 286.871 C -2.4 296.471 -2.4 311.971 7.2 321.571 L 11.8 326.171 C 16.4 330.771 22.6 333.371 29.2 333.371 C 35.8 333.371 41.9 330.771 46.5 326.171 L 127.2 245.471 L 204.3 322.571 C 208.9 327.171 215.1 329.771 221.7 329.771 C 228.3 329.771 234.4 327.171 239.1 322.571 L 432.7 128.971 L 454.6 150.771 C 457.2 153.371 460.8 156.971 466.3 156.971 C 468.6 156.971 470.9 156.371 473.3 155.071 C 474.9 154.171 476.3 153.171 477.5 151.971 C 481.8 147.671 482.6 142.171 482.8 137.871 C 483.6 119.471 484.5 101.071 485.4 82.571 L 486.7 54.871 C 487 49.071 485.7 44.571 482.6 41.371 Z " fill="rgb(255,99,99)"/></g></g></g></svg>