<svg width="60" height="60" viewBox="0 0 60 60" fill="none" xmlns="http://www.w3.org/2000/svg">
<g clip-path="url(#clip0_40_431)">
<path opacity="0.1" d="M8 0H52C56.4 0 60 3.6 60 8V52C60 56.4 56.4 60 52 60H8C3.6 60 0 56.4 0 52V8C0 3.6 3.6 0 8 0Z" fill="#209E61"/>
<path d="M8 1H52C55.9 1 59 4.1 59 8V52C59 55.9 55.9 59 52 59H8C4.1 59 1 55.9 1 52V8C1 4.1 4.1 1 8 1Z" stroke="#209E61" stroke-width="2"/>
<path d="M34.5992 27.5166C36.2214 25.7659 36.9057 23.7581 36.9057 21.4934C36.9057 21.0311 36.8656 20.5771 36.7889 20.1332C36.1747 16.5233 33.0955 13.676 28.152 13.676H17.3907C16.2374 13.676 15.5965 14.3586 15.5965 15.5553V19.741L13.1198 18.3307C11.4542 17.3911 9.91711 18.2022 9.91711 19.9112V36.3554C9.91711 37.2516 10.4729 37.8074 11.3257 37.8074C12.1785 37.8074 12.7343 37.2516 12.7343 36.3554V21.3632L15.5949 22.9871V33.5382C15.5949 34.7765 16.8766 35.2889 18.115 34.5629L27.2959 29.2657C27.9785 28.8818 28.2355 28.3695 28.2355 27.8554C28.2355 27.3848 27.9785 26.8307 27.2959 26.4452L18.4137 21.3615V16.4915H27.85C31.9923 16.4915 34.0418 18.7129 34.0418 21.7454C34.0418 23.7097 33.1022 25.2902 32.0357 26.3584C31.3948 26.9992 31.2246 27.4265 31.2246 27.8955C31.2246 28.4512 31.4816 28.9202 32.5481 29.476C35.0682 30.7577 36.8606 32.9791 36.8606 35.7545C36.8606 39.4279 34.1703 42.0765 29.6441 42.0765H17.2638C16.154 42.0765 15.5982 42.6323 15.5982 43.4868C15.5982 44.3413 16.154 44.897 17.2638 44.897H29.6474C34.9196 44.897 38.3059 42.0415 39.3657 38.3848C39.6027 37.5687 39.7245 36.7142 39.7245 35.8413C39.7245 32.2531 37.6317 29.264 34.6009 27.5116L34.5992 27.5166ZM24.2651 27.8588L18.4154 31.19V24.6126L24.2651 27.8588Z" fill="#4700A3"/>
<path d="M46.7375 25.831L36.7889 20.1332C36.864 20.5771 36.9057 21.0311 36.9057 21.4934C36.9057 23.7565 36.2231 25.7642 34.5992 27.5166C37.6317 29.2673 39.7229 32.2581 39.7229 35.8463C39.7229 36.7192 39.6011 37.5737 39.3641 38.3898L46.7375 34.1674C48.802 33.0175 49.6582 31.6523 49.6582 30C49.6582 28.3477 48.8037 26.9825 46.7375 25.8326V25.831Z" fill="#1FD1BD"/>
<path d="M18.4155 24.611V31.19L24.2669 27.8587L18.4155 24.611Z" fill="#1FD1BD"/>
<path d="M32.5498 29.481C31.4816 28.9252 31.2263 28.4562 31.2263 27.9005C31.2263 27.4298 31.3965 27.0043 32.0374 26.3634C33.1055 25.2952 34.0435 23.7148 34.0435 21.7504C34.0435 18.7179 31.994 16.4966 27.8517 16.4966H18.4154V21.3665L27.2976 26.4502C27.9802 26.834 28.2372 27.3898 28.2372 27.8604C28.2372 28.3728 27.9802 28.8852 27.2976 29.2707L18.1167 34.5679C16.8783 35.2939 15.5966 34.7816 15.5966 33.5432V22.9921L12.736 21.3682V36.3604C12.736 37.2566 12.1802 37.8124 11.3274 37.8124C10.4746 37.8124 9.91882 37.2566 9.91882 36.3604V47.3888C9.91882 51.5562 13.4804 53.2084 17.2539 51.0538L27.9919 44.9037H17.2639C16.154 44.9037 15.5983 44.348 15.5983 43.4935C15.5983 42.639 16.154 42.0832 17.2639 42.0832H29.6475C34.1737 42.0832 36.864 39.4346 36.864 35.7612C36.864 32.9841 35.0699 30.7644 32.5514 29.4826L32.5498 29.481Z" fill="#1FD1BD"/>
<path d="M13.1215 18.3324L15.5983 19.7426V15.5569C15.5983 14.3603 16.2391 13.6777 17.3924 13.6777H25.5151L17.2539 8.94621C13.4804 6.7916 9.91882 8.44386 9.91882 12.6112V19.9129C9.91882 18.2039 11.4559 17.3928 13.1215 18.3324Z" fill="#1FD1BD"/>
</g>
<defs>
<clipPath id="clip0_40_431">
<rect width="60" height="60" fill="white"/>
</clipPath>
</defs>
</svg>
